%TF.GenerationSoftware,KiCad,Pcbnew,(6.0.7-1)-1*%
%TF.CreationDate,2022-09-30T15:54:31+08:00*%
%TF.ProjectId,PicoBoot,5069636f-426f-46f7-942e-6b696361645f,REV1*%
%TF.SameCoordinates,Original*%
%TF.FileFunction,Legend,Bot*%
%TF.FilePolarity,Positive*%
%FSLAX46Y46*%
G04 Gerber Fmt 4.6, Leading zero omitted, Abs format (unit mm)*
G04 Created by KiCad (PCBNEW (6.0.7-1)-1) date 2022-09-30 15:54:31*
%MOMM*%
%LPD*%
G01*
G04 APERTURE LIST*
%ADD10C,0.153000*%
G04 APERTURE END LIST*
D10*
X101473809Y-102074121D02*
X101511904Y-102188407D01*
X101511904Y-102378883D01*
X101473809Y-102455073D01*
X101435714Y-102493169D01*
X101359523Y-102531264D01*
X101283333Y-102531264D01*
X101207142Y-102493169D01*
X101169047Y-102455073D01*
X101130952Y-102378883D01*
X101092857Y-102226502D01*
X101054761Y-102150311D01*
X101016666Y-102112216D01*
X100940476Y-102074121D01*
X100864285Y-102074121D01*
X100788095Y-102112216D01*
X100750000Y-102150311D01*
X100711904Y-102226502D01*
X100711904Y-102416978D01*
X100750000Y-102531264D01*
X100711904Y-102797930D02*
X101511904Y-102988407D01*
X100940476Y-103140788D01*
X101511904Y-103293169D01*
X100711904Y-103483645D01*
X101435714Y-104245550D02*
X101473809Y-104207454D01*
X101511904Y-104093169D01*
X101511904Y-104016978D01*
X101473809Y-103902692D01*
X101397619Y-103826502D01*
X101321428Y-103788407D01*
X101169047Y-103750311D01*
X101054761Y-103750311D01*
X100902380Y-103788407D01*
X100826190Y-103826502D01*
X100750000Y-103902692D01*
X100711904Y-104016978D01*
X100711904Y-104093169D01*
X100750000Y-104207454D01*
X100788095Y-104245550D01*
X101511904Y-104969359D02*
X101511904Y-104588407D01*
X100711904Y-104588407D01*
X101511904Y-105236026D02*
X100711904Y-105236026D01*
X101511904Y-105693169D02*
X101054761Y-105350311D01*
X100711904Y-105693169D02*
X101169047Y-105236026D01*
X103290000Y-104016978D02*
X103251904Y-103940788D01*
X103251904Y-103826502D01*
X103290000Y-103712216D01*
X103366190Y-103636026D01*
X103442380Y-103597930D01*
X103594761Y-103559835D01*
X103709047Y-103559835D01*
X103861428Y-103597930D01*
X103937619Y-103636026D01*
X104013809Y-103712216D01*
X104051904Y-103826502D01*
X104051904Y-103902692D01*
X104013809Y-104016978D01*
X103975714Y-104055073D01*
X103709047Y-104055073D01*
X103709047Y-103902692D01*
X104051904Y-104397930D02*
X103251904Y-104397930D01*
X104051904Y-104855073D01*
X103251904Y-104855073D01*
X104051904Y-105236026D02*
X103251904Y-105236026D01*
X103251904Y-105426502D01*
X103290000Y-105540788D01*
X103366190Y-105616978D01*
X103442380Y-105655073D01*
X103594761Y-105693169D01*
X103709047Y-105693169D01*
X103861428Y-105655073D01*
X103937619Y-105616978D01*
X104013809Y-105540788D01*
X104051904Y-105426502D01*
X104051904Y-105236026D01*
X110252380Y-93889470D02*
X110328571Y-93851374D01*
X110442857Y-93851374D01*
X110557142Y-93889470D01*
X110633333Y-93965660D01*
X110671428Y-94041850D01*
X110709523Y-94194231D01*
X110709523Y-94308517D01*
X110671428Y-94460898D01*
X110633333Y-94537089D01*
X110557142Y-94613279D01*
X110442857Y-94651374D01*
X110366666Y-94651374D01*
X110252380Y-94613279D01*
X110214285Y-94575184D01*
X110214285Y-94308517D01*
X110366666Y-94308517D01*
X109871428Y-94651374D02*
X109871428Y-93851374D01*
X109566666Y-93851374D01*
X109490476Y-93889470D01*
X109452380Y-93927565D01*
X109414285Y-94003755D01*
X109414285Y-94118041D01*
X109452380Y-94194231D01*
X109490476Y-94232327D01*
X109566666Y-94270422D01*
X109871428Y-94270422D01*
X109109523Y-93927565D02*
X109071428Y-93889470D01*
X108995238Y-93851374D01*
X108804761Y-93851374D01*
X108728571Y-93889470D01*
X108690476Y-93927565D01*
X108652380Y-94003755D01*
X108652380Y-94079946D01*
X108690476Y-94194231D01*
X109147619Y-94651374D01*
X108652380Y-94651374D01*
X108157142Y-93851374D02*
X108080952Y-93851374D01*
X108004761Y-93889470D01*
X107966666Y-93927565D01*
X107928571Y-94003755D01*
X107890476Y-94156136D01*
X107890476Y-94346612D01*
X107928571Y-94498993D01*
X107966666Y-94575184D01*
X108004761Y-94613279D01*
X108080952Y-94651374D01*
X108157142Y-94651374D01*
X108233333Y-94613279D01*
X108271428Y-94575184D01*
X108309523Y-94498993D01*
X108347619Y-94346612D01*
X108347619Y-94156136D01*
X108309523Y-94003755D01*
X108271428Y-93927565D01*
X108233333Y-93889470D01*
X108157142Y-93851374D01*
X110747618Y-65888219D02*
X110252380Y-65888219D01*
X110519047Y-66192981D01*
X110404761Y-66192981D01*
X110328570Y-66231076D01*
X110290475Y-66269172D01*
X110252380Y-66345362D01*
X110252380Y-66535838D01*
X110290475Y-66612029D01*
X110328570Y-66650124D01*
X110404761Y-66688219D01*
X110633332Y-66688219D01*
X110709523Y-66650124D01*
X110747618Y-66612029D01*
X110023809Y-65888219D02*
X109757142Y-66688219D01*
X109490475Y-65888219D01*
X109299999Y-65888219D02*
X108804761Y-65888219D01*
X109071428Y-66192981D01*
X108957142Y-66192981D01*
X108880951Y-66231076D01*
X108842856Y-66269172D01*
X108804761Y-66345362D01*
X108804761Y-66535838D01*
X108842856Y-66612029D01*
X108880951Y-66650124D01*
X108957142Y-66688219D01*
X109185713Y-66688219D01*
X109261904Y-66650124D01*
X109299999Y-66612029D01*
X108461904Y-66269172D02*
X108195237Y-66269172D01*
X108080951Y-66688219D02*
X108461904Y-66688219D01*
X108461904Y-65888219D01*
X108080951Y-65888219D01*
X107738094Y-66688219D02*
X107738094Y-65888219D01*
X107280951Y-66688219D01*
X107280951Y-65888219D01*
X110747619Y-68430324D02*
X110252381Y-68430324D01*
X110519047Y-68735086D01*
X110404762Y-68735086D01*
X110328571Y-68773181D01*
X110290476Y-68811277D01*
X110252381Y-68887467D01*
X110252381Y-69077943D01*
X110290476Y-69154134D01*
X110328571Y-69192229D01*
X110404762Y-69230324D01*
X110633333Y-69230324D01*
X110709523Y-69192229D01*
X110747619Y-69154134D01*
X110023809Y-68430324D02*
X109757143Y-69230324D01*
X109490476Y-68430324D01*
X109300000Y-68430324D02*
X108804762Y-68430324D01*
X109071428Y-68735086D01*
X108957143Y-68735086D01*
X108880952Y-68773181D01*
X108842857Y-68811277D01*
X108804762Y-68887467D01*
X108804762Y-69077943D01*
X108842857Y-69154134D01*
X108880952Y-69192229D01*
X108957143Y-69230324D01*
X109185714Y-69230324D01*
X109261904Y-69192229D01*
X109300000Y-69154134D01*
X98877380Y-106563158D02*
X98953571Y-106525062D01*
X99067857Y-106525062D01*
X99182142Y-106563158D01*
X99258333Y-106639348D01*
X99296428Y-106715538D01*
X99334523Y-106867919D01*
X99334523Y-106982205D01*
X99296428Y-107134586D01*
X99258333Y-107210777D01*
X99182142Y-107286967D01*
X99067857Y-107325062D01*
X98991666Y-107325062D01*
X98877380Y-107286967D01*
X98839285Y-107248872D01*
X98839285Y-106982205D01*
X98991666Y-106982205D01*
X98496428Y-107325062D02*
X98496428Y-106525062D01*
X98191666Y-106525062D01*
X98115476Y-106563158D01*
X98077380Y-106601253D01*
X98039285Y-106677443D01*
X98039285Y-106791729D01*
X98077380Y-106867919D01*
X98115476Y-106906015D01*
X98191666Y-106944110D01*
X98496428Y-106944110D01*
X97277380Y-107325062D02*
X97734523Y-107325062D01*
X97505952Y-107325062D02*
X97505952Y-106525062D01*
X97582142Y-106639348D01*
X97658333Y-106715538D01*
X97734523Y-106753634D01*
X96553571Y-106525062D02*
X96934523Y-106525062D01*
X96972619Y-106906015D01*
X96934523Y-106867919D01*
X96858333Y-106829824D01*
X96667857Y-106829824D01*
X96591666Y-106867919D01*
X96553571Y-106906015D01*
X96515476Y-106982205D01*
X96515476Y-107172681D01*
X96553571Y-107248872D01*
X96591666Y-107286967D01*
X96667857Y-107325062D01*
X96858333Y-107325062D01*
X96934523Y-107286967D01*
X96972619Y-107248872D01*
X106630951Y-102307692D02*
X106669046Y-102421978D01*
X106669046Y-102612454D01*
X106630951Y-102688645D01*
X106592856Y-102726740D01*
X106516665Y-102764835D01*
X106440475Y-102764835D01*
X106364284Y-102726740D01*
X106326189Y-102688645D01*
X106288094Y-102612454D01*
X106249999Y-102460073D01*
X106211903Y-102383883D01*
X106173808Y-102345788D01*
X106097618Y-102307692D01*
X106021427Y-102307692D01*
X105945237Y-102345788D01*
X105907142Y-102383883D01*
X105869046Y-102460073D01*
X105869046Y-102650550D01*
X105907142Y-102764835D01*
X105869046Y-103031502D02*
X106669046Y-103221978D01*
X106097618Y-103374359D01*
X106669046Y-103526740D01*
X105869046Y-103717216D01*
X106669046Y-104021978D02*
X105869046Y-104021978D01*
X105869046Y-104212454D01*
X105907142Y-104326740D01*
X105983332Y-104402930D01*
X106059522Y-104441026D01*
X106211903Y-104479121D01*
X106326189Y-104479121D01*
X106478570Y-104441026D01*
X106554761Y-104402930D01*
X106630951Y-104326740D01*
X106669046Y-104212454D01*
X106669046Y-104021978D01*
X106669046Y-104821978D02*
X105869046Y-104821978D01*
X105869046Y-105355311D02*
X105869046Y-105507692D01*
X105907142Y-105583883D01*
X105983332Y-105660073D01*
X106135713Y-105698169D01*
X106402380Y-105698169D01*
X106554761Y-105660073D01*
X106630951Y-105583883D01*
X106669046Y-105507692D01*
X106669046Y-105355311D01*
X106630951Y-105279121D01*
X106554761Y-105202930D01*
X106402380Y-105164835D01*
X106135713Y-105164835D01*
X105983332Y-105202930D01*
X105907142Y-105279121D01*
X105869046Y-105355311D01*
X110785714Y-60804009D02*
X110519047Y-61604009D01*
X110252381Y-60804009D01*
X110023809Y-61565914D02*
X109909524Y-61604009D01*
X109719047Y-61604009D01*
X109642857Y-61565914D01*
X109604762Y-61527819D01*
X109566666Y-61451628D01*
X109566666Y-61375438D01*
X109604762Y-61299247D01*
X109642857Y-61261152D01*
X109719047Y-61223057D01*
X109871428Y-61184962D01*
X109947619Y-61146866D01*
X109985714Y-61108771D01*
X110023809Y-61032581D01*
X110023809Y-60956390D01*
X109985714Y-60880200D01*
X109947619Y-60842105D01*
X109871428Y-60804009D01*
X109680952Y-60804009D01*
X109566666Y-60842105D01*
X109071428Y-61223057D02*
X109071428Y-61604009D01*
X109338095Y-60804009D02*
X109071428Y-61223057D01*
X108804762Y-60804009D01*
X108576190Y-61565914D02*
X108461905Y-61604009D01*
X108271428Y-61604009D01*
X108195238Y-61565914D01*
X108157143Y-61527819D01*
X108119047Y-61451628D01*
X108119047Y-61375438D01*
X108157143Y-61299247D01*
X108195238Y-61261152D01*
X108271428Y-61223057D01*
X108423809Y-61184962D01*
X108500000Y-61146866D01*
X108538095Y-61108771D01*
X108576190Y-61032581D01*
X108576190Y-60956390D01*
X108538095Y-60880200D01*
X108500000Y-60842105D01*
X108423809Y-60804009D01*
X108233333Y-60804009D01*
X108119047Y-60842105D01*
X98115475Y-81128947D02*
X98191666Y-81090851D01*
X98305951Y-81090851D01*
X98420237Y-81128947D01*
X98496427Y-81205137D01*
X98534523Y-81281327D01*
X98572618Y-81433708D01*
X98572618Y-81547994D01*
X98534523Y-81700375D01*
X98496427Y-81776566D01*
X98420237Y-81852756D01*
X98305951Y-81890851D01*
X98229761Y-81890851D01*
X98115475Y-81852756D01*
X98077380Y-81814661D01*
X98077380Y-81547994D01*
X98229761Y-81547994D01*
X97734523Y-81890851D02*
X97734523Y-81090851D01*
X97429761Y-81090851D01*
X97353570Y-81128947D01*
X97315475Y-81167042D01*
X97277380Y-81243232D01*
X97277380Y-81357518D01*
X97315475Y-81433708D01*
X97353570Y-81471804D01*
X97429761Y-81509899D01*
X97734523Y-81509899D01*
X97010713Y-81090851D02*
X96477380Y-81090851D01*
X96820237Y-81890851D01*
X110252380Y-104057890D02*
X110328571Y-104019794D01*
X110442857Y-104019794D01*
X110557142Y-104057890D01*
X110633333Y-104134080D01*
X110671428Y-104210270D01*
X110709523Y-104362651D01*
X110709523Y-104476937D01*
X110671428Y-104629318D01*
X110633333Y-104705509D01*
X110557142Y-104781699D01*
X110442857Y-104819794D01*
X110366666Y-104819794D01*
X110252380Y-104781699D01*
X110214285Y-104743604D01*
X110214285Y-104476937D01*
X110366666Y-104476937D01*
X109871428Y-104819794D02*
X109871428Y-104019794D01*
X109566666Y-104019794D01*
X109490476Y-104057890D01*
X109452380Y-104095985D01*
X109414285Y-104172175D01*
X109414285Y-104286461D01*
X109452380Y-104362651D01*
X109490476Y-104400747D01*
X109566666Y-104438842D01*
X109871428Y-104438842D01*
X108652380Y-104819794D02*
X109109523Y-104819794D01*
X108880952Y-104819794D02*
X108880952Y-104019794D01*
X108957142Y-104134080D01*
X109033333Y-104210270D01*
X109109523Y-104248366D01*
X108385714Y-104019794D02*
X107852380Y-104019794D01*
X108195238Y-104819794D01*
X110709523Y-76628068D02*
X110328571Y-76628068D01*
X110785714Y-76856639D02*
X110519047Y-76056639D01*
X110252380Y-76856639D01*
X109566666Y-76094735D02*
X109642857Y-76056639D01*
X109757142Y-76056639D01*
X109871428Y-76094735D01*
X109947619Y-76170925D01*
X109985714Y-76247115D01*
X110023809Y-76399496D01*
X110023809Y-76513782D01*
X109985714Y-76666163D01*
X109947619Y-76742354D01*
X109871428Y-76818544D01*
X109757142Y-76856639D01*
X109680952Y-76856639D01*
X109566666Y-76818544D01*
X109528571Y-76780449D01*
X109528571Y-76513782D01*
X109680952Y-76513782D01*
X109185714Y-76856639D02*
X109185714Y-76056639D01*
X108728571Y-76856639D01*
X108728571Y-76056639D01*
X108347619Y-76856639D02*
X108347619Y-76056639D01*
X108157142Y-76056639D01*
X108042857Y-76094735D01*
X107966666Y-76170925D01*
X107928571Y-76247115D01*
X107890476Y-76399496D01*
X107890476Y-76513782D01*
X107928571Y-76666163D01*
X107966666Y-76742354D01*
X108042857Y-76818544D01*
X108157142Y-76856639D01*
X108347619Y-76856639D01*
X110252380Y-91347365D02*
X110328571Y-91309269D01*
X110442857Y-91309269D01*
X110557142Y-91347365D01*
X110633333Y-91423555D01*
X110671428Y-91499745D01*
X110709523Y-91652126D01*
X110709523Y-91766412D01*
X110671428Y-91918793D01*
X110633333Y-91994984D01*
X110557142Y-92071174D01*
X110442857Y-92109269D01*
X110366666Y-92109269D01*
X110252380Y-92071174D01*
X110214285Y-92033079D01*
X110214285Y-91766412D01*
X110366666Y-91766412D01*
X109871428Y-92109269D02*
X109871428Y-91309269D01*
X109566666Y-91309269D01*
X109490476Y-91347365D01*
X109452380Y-91385460D01*
X109414285Y-91461650D01*
X109414285Y-91575936D01*
X109452380Y-91652126D01*
X109490476Y-91690222D01*
X109566666Y-91728317D01*
X109871428Y-91728317D01*
X109109523Y-91385460D02*
X109071428Y-91347365D01*
X108995238Y-91309269D01*
X108804761Y-91309269D01*
X108728571Y-91347365D01*
X108690476Y-91385460D01*
X108652380Y-91461650D01*
X108652380Y-91537841D01*
X108690476Y-91652126D01*
X109147619Y-92109269D01*
X108652380Y-92109269D01*
X107890476Y-92109269D02*
X108347619Y-92109269D01*
X108119047Y-92109269D02*
X108119047Y-91309269D01*
X108195238Y-91423555D01*
X108271428Y-91499745D01*
X108347619Y-91537841D01*
X110284523Y-88525000D02*
X110360714Y-88486904D01*
X110475000Y-88486904D01*
X110589285Y-88525000D01*
X110665476Y-88601190D01*
X110703571Y-88677380D01*
X110741666Y-88829761D01*
X110741666Y-88944047D01*
X110703571Y-89096428D01*
X110665476Y-89172619D01*
X110589285Y-89248809D01*
X110475000Y-89286904D01*
X110398809Y-89286904D01*
X110284523Y-89248809D01*
X110246428Y-89210714D01*
X110246428Y-88944047D01*
X110398809Y-88944047D01*
X109903571Y-89286904D02*
X109903571Y-88486904D01*
X109446428Y-89286904D01*
X109446428Y-88486904D01*
X109065476Y-89286904D02*
X109065476Y-88486904D01*
X108875000Y-88486904D01*
X108760714Y-88525000D01*
X108684523Y-88601190D01*
X108646428Y-88677380D01*
X108608333Y-88829761D01*
X108608333Y-88944047D01*
X108646428Y-89096428D01*
X108684523Y-89172619D01*
X108760714Y-89248809D01*
X108875000Y-89286904D01*
X109065476Y-89286904D01*
X98115475Y-83672368D02*
X98191666Y-83634272D01*
X98305951Y-83634272D01*
X98420237Y-83672368D01*
X98496427Y-83748558D01*
X98534523Y-83824748D01*
X98572618Y-83977129D01*
X98572618Y-84091415D01*
X98534523Y-84243796D01*
X98496427Y-84319987D01*
X98420237Y-84396177D01*
X98305951Y-84434272D01*
X98229761Y-84434272D01*
X98115475Y-84396177D01*
X98077380Y-84358082D01*
X98077380Y-84091415D01*
X98229761Y-84091415D01*
X97734523Y-84434272D02*
X97734523Y-83634272D01*
X97429761Y-83634272D01*
X97353570Y-83672368D01*
X97315475Y-83710463D01*
X97277380Y-83786653D01*
X97277380Y-83900939D01*
X97315475Y-83977129D01*
X97353570Y-84015225D01*
X97429761Y-84053320D01*
X97734523Y-84053320D01*
X96820237Y-83977129D02*
X96896427Y-83939034D01*
X96934523Y-83900939D01*
X96972618Y-83824748D01*
X96972618Y-83786653D01*
X96934523Y-83710463D01*
X96896427Y-83672368D01*
X96820237Y-83634272D01*
X96667856Y-83634272D01*
X96591666Y-83672368D01*
X96553570Y-83710463D01*
X96515475Y-83786653D01*
X96515475Y-83824748D01*
X96553570Y-83900939D01*
X96591666Y-83939034D01*
X96667856Y-83977129D01*
X96820237Y-83977129D01*
X96896427Y-84015225D01*
X96934523Y-84053320D01*
X96972618Y-84129510D01*
X96972618Y-84281891D01*
X96934523Y-84358082D01*
X96896427Y-84396177D01*
X96820237Y-84434272D01*
X96667856Y-84434272D01*
X96591666Y-84396177D01*
X96553570Y-84358082D01*
X96515475Y-84281891D01*
X96515475Y-84129510D01*
X96553570Y-84053320D01*
X96591666Y-84015225D01*
X96667856Y-83977129D01*
X110785713Y-70972429D02*
X110519047Y-71772429D01*
X110252380Y-70972429D01*
X109528570Y-71772429D02*
X109795237Y-71391477D01*
X109985713Y-71772429D02*
X109985713Y-70972429D01*
X109680951Y-70972429D01*
X109604761Y-71010525D01*
X109566666Y-71048620D01*
X109528570Y-71124810D01*
X109528570Y-71239096D01*
X109566666Y-71315286D01*
X109604761Y-71353382D01*
X109680951Y-71391477D01*
X109985713Y-71391477D01*
X108919047Y-71353382D02*
X109185713Y-71353382D01*
X109185713Y-71772429D02*
X109185713Y-70972429D01*
X108804761Y-70972429D01*
X98877380Y-91302631D02*
X98953571Y-91264535D01*
X99067857Y-91264535D01*
X99182142Y-91302631D01*
X99258333Y-91378821D01*
X99296428Y-91455011D01*
X99334523Y-91607392D01*
X99334523Y-91721678D01*
X99296428Y-91874059D01*
X99258333Y-91950250D01*
X99182142Y-92026440D01*
X99067857Y-92064535D01*
X98991666Y-92064535D01*
X98877380Y-92026440D01*
X98839285Y-91988345D01*
X98839285Y-91721678D01*
X98991666Y-91721678D01*
X98496428Y-92064535D02*
X98496428Y-91264535D01*
X98191666Y-91264535D01*
X98115476Y-91302631D01*
X98077380Y-91340726D01*
X98039285Y-91416916D01*
X98039285Y-91531202D01*
X98077380Y-91607392D01*
X98115476Y-91645488D01*
X98191666Y-91683583D01*
X98496428Y-91683583D01*
X97277380Y-92064535D02*
X97734523Y-92064535D01*
X97505952Y-92064535D02*
X97505952Y-91264535D01*
X97582142Y-91378821D01*
X97658333Y-91455011D01*
X97734523Y-91493107D01*
X96782142Y-91264535D02*
X96705952Y-91264535D01*
X96629761Y-91302631D01*
X96591666Y-91340726D01*
X96553571Y-91416916D01*
X96515476Y-91569297D01*
X96515476Y-91759773D01*
X96553571Y-91912154D01*
X96591666Y-91988345D01*
X96629761Y-92026440D01*
X96705952Y-92064535D01*
X96782142Y-92064535D01*
X96858333Y-92026440D01*
X96896428Y-91988345D01*
X96934523Y-91912154D01*
X96972619Y-91759773D01*
X96972619Y-91569297D01*
X96934523Y-91416916D01*
X96896428Y-91340726D01*
X96858333Y-91302631D01*
X96782142Y-91264535D01*
X110252380Y-98973680D02*
X110328571Y-98935584D01*
X110442857Y-98935584D01*
X110557142Y-98973680D01*
X110633333Y-99049870D01*
X110671428Y-99126060D01*
X110709523Y-99278441D01*
X110709523Y-99392727D01*
X110671428Y-99545108D01*
X110633333Y-99621299D01*
X110557142Y-99697489D01*
X110442857Y-99735584D01*
X110366666Y-99735584D01*
X110252380Y-99697489D01*
X110214285Y-99659394D01*
X110214285Y-99392727D01*
X110366666Y-99392727D01*
X109871428Y-99735584D02*
X109871428Y-98935584D01*
X109566666Y-98935584D01*
X109490476Y-98973680D01*
X109452380Y-99011775D01*
X109414285Y-99087965D01*
X109414285Y-99202251D01*
X109452380Y-99278441D01*
X109490476Y-99316537D01*
X109566666Y-99354632D01*
X109871428Y-99354632D01*
X108652380Y-99735584D02*
X109109523Y-99735584D01*
X108880952Y-99735584D02*
X108880952Y-98935584D01*
X108957142Y-99049870D01*
X109033333Y-99126060D01*
X109109523Y-99164156D01*
X108195238Y-99278441D02*
X108271428Y-99240346D01*
X108309523Y-99202251D01*
X108347619Y-99126060D01*
X108347619Y-99087965D01*
X108309523Y-99011775D01*
X108271428Y-98973680D01*
X108195238Y-98935584D01*
X108042857Y-98935584D01*
X107966666Y-98973680D01*
X107928571Y-99011775D01*
X107890476Y-99087965D01*
X107890476Y-99126060D01*
X107928571Y-99202251D01*
X107966666Y-99240346D01*
X108042857Y-99278441D01*
X108195238Y-99278441D01*
X108271428Y-99316537D01*
X108309523Y-99354632D01*
X108347619Y-99430822D01*
X108347619Y-99583203D01*
X108309523Y-99659394D01*
X108271428Y-99697489D01*
X108195238Y-99735584D01*
X108042857Y-99735584D01*
X107966666Y-99697489D01*
X107928571Y-99659394D01*
X107890476Y-99583203D01*
X107890476Y-99430822D01*
X107928571Y-99354632D01*
X107966666Y-99316537D01*
X108042857Y-99278441D01*
X98115475Y-73498684D02*
X98191666Y-73460588D01*
X98305951Y-73460588D01*
X98420237Y-73498684D01*
X98496427Y-73574874D01*
X98534523Y-73651064D01*
X98572618Y-73803445D01*
X98572618Y-73917731D01*
X98534523Y-74070112D01*
X98496427Y-74146303D01*
X98420237Y-74222493D01*
X98305951Y-74260588D01*
X98229761Y-74260588D01*
X98115475Y-74222493D01*
X98077380Y-74184398D01*
X98077380Y-73917731D01*
X98229761Y-73917731D01*
X97734523Y-74260588D02*
X97734523Y-73460588D01*
X97429761Y-73460588D01*
X97353570Y-73498684D01*
X97315475Y-73536779D01*
X97277380Y-73612969D01*
X97277380Y-73727255D01*
X97315475Y-73803445D01*
X97353570Y-73841541D01*
X97429761Y-73879636D01*
X97734523Y-73879636D01*
X96553570Y-73460588D02*
X96934523Y-73460588D01*
X96972618Y-73841541D01*
X96934523Y-73803445D01*
X96858332Y-73765350D01*
X96667856Y-73765350D01*
X96591666Y-73803445D01*
X96553570Y-73841541D01*
X96515475Y-73917731D01*
X96515475Y-74108207D01*
X96553570Y-74184398D01*
X96591666Y-74222493D01*
X96667856Y-74260588D01*
X96858332Y-74260588D01*
X96934523Y-74222493D01*
X96972618Y-74184398D01*
X110252380Y-106600000D02*
X110328571Y-106561904D01*
X110442857Y-106561904D01*
X110557142Y-106600000D01*
X110633333Y-106676190D01*
X110671428Y-106752380D01*
X110709523Y-106904761D01*
X110709523Y-107019047D01*
X110671428Y-107171428D01*
X110633333Y-107247619D01*
X110557142Y-107323809D01*
X110442857Y-107361904D01*
X110366666Y-107361904D01*
X110252380Y-107323809D01*
X110214285Y-107285714D01*
X110214285Y-107019047D01*
X110366666Y-107019047D01*
X109871428Y-107361904D02*
X109871428Y-106561904D01*
X109566666Y-106561904D01*
X109490476Y-106600000D01*
X109452380Y-106638095D01*
X109414285Y-106714285D01*
X109414285Y-106828571D01*
X109452380Y-106904761D01*
X109490476Y-106942857D01*
X109566666Y-106980952D01*
X109871428Y-106980952D01*
X108652380Y-107361904D02*
X109109523Y-107361904D01*
X108880952Y-107361904D02*
X108880952Y-106561904D01*
X108957142Y-106676190D01*
X109033333Y-106752380D01*
X109109523Y-106790476D01*
X107966666Y-106561904D02*
X108119047Y-106561904D01*
X108195238Y-106600000D01*
X108233333Y-106638095D01*
X108309523Y-106752380D01*
X108347619Y-106904761D01*
X108347619Y-107209523D01*
X108309523Y-107285714D01*
X108271428Y-107323809D01*
X108195238Y-107361904D01*
X108042857Y-107361904D01*
X107966666Y-107323809D01*
X107928571Y-107285714D01*
X107890476Y-107209523D01*
X107890476Y-107019047D01*
X107928571Y-106942857D01*
X107966666Y-106904761D01*
X108042857Y-106866666D01*
X108195238Y-106866666D01*
X108271428Y-106904761D01*
X108309523Y-106942857D01*
X108347619Y-107019047D01*
X98115475Y-78585526D02*
X98191666Y-78547430D01*
X98305951Y-78547430D01*
X98420237Y-78585526D01*
X98496427Y-78661716D01*
X98534523Y-78737906D01*
X98572618Y-78890287D01*
X98572618Y-79004573D01*
X98534523Y-79156954D01*
X98496427Y-79233145D01*
X98420237Y-79309335D01*
X98305951Y-79347430D01*
X98229761Y-79347430D01*
X98115475Y-79309335D01*
X98077380Y-79271240D01*
X98077380Y-79004573D01*
X98229761Y-79004573D01*
X97734523Y-79347430D02*
X97734523Y-78547430D01*
X97429761Y-78547430D01*
X97353570Y-78585526D01*
X97315475Y-78623621D01*
X97277380Y-78699811D01*
X97277380Y-78814097D01*
X97315475Y-78890287D01*
X97353570Y-78928383D01*
X97429761Y-78966478D01*
X97734523Y-78966478D01*
X96591666Y-78547430D02*
X96744047Y-78547430D01*
X96820237Y-78585526D01*
X96858332Y-78623621D01*
X96934523Y-78737906D01*
X96972618Y-78890287D01*
X96972618Y-79195049D01*
X96934523Y-79271240D01*
X96896427Y-79309335D01*
X96820237Y-79347430D01*
X96667856Y-79347430D01*
X96591666Y-79309335D01*
X96553570Y-79271240D01*
X96515475Y-79195049D01*
X96515475Y-79004573D01*
X96553570Y-78928383D01*
X96591666Y-78890287D01*
X96667856Y-78852192D01*
X96820237Y-78852192D01*
X96896427Y-78890287D01*
X96934523Y-78928383D01*
X96972618Y-79004573D01*
X110252380Y-101515785D02*
X110328571Y-101477689D01*
X110442857Y-101477689D01*
X110557142Y-101515785D01*
X110633333Y-101591975D01*
X110671428Y-101668165D01*
X110709523Y-101820546D01*
X110709523Y-101934832D01*
X110671428Y-102087213D01*
X110633333Y-102163404D01*
X110557142Y-102239594D01*
X110442857Y-102277689D01*
X110366666Y-102277689D01*
X110252380Y-102239594D01*
X110214285Y-102201499D01*
X110214285Y-101934832D01*
X110366666Y-101934832D01*
X109871428Y-102277689D02*
X109871428Y-101477689D01*
X109414285Y-102277689D01*
X109414285Y-101477689D01*
X109033333Y-102277689D02*
X109033333Y-101477689D01*
X108842857Y-101477689D01*
X108728571Y-101515785D01*
X108652380Y-101591975D01*
X108614285Y-101668165D01*
X108576190Y-101820546D01*
X108576190Y-101934832D01*
X108614285Y-102087213D01*
X108652380Y-102163404D01*
X108728571Y-102239594D01*
X108842857Y-102277689D01*
X109033333Y-102277689D01*
X98877380Y-93846052D02*
X98953571Y-93807956D01*
X99067857Y-93807956D01*
X99182142Y-93846052D01*
X99258333Y-93922242D01*
X99296428Y-93998432D01*
X99334523Y-94150813D01*
X99334523Y-94265099D01*
X99296428Y-94417480D01*
X99258333Y-94493671D01*
X99182142Y-94569861D01*
X99067857Y-94607956D01*
X98991666Y-94607956D01*
X98877380Y-94569861D01*
X98839285Y-94531766D01*
X98839285Y-94265099D01*
X98991666Y-94265099D01*
X98496428Y-94607956D02*
X98496428Y-93807956D01*
X98191666Y-93807956D01*
X98115476Y-93846052D01*
X98077380Y-93884147D01*
X98039285Y-93960337D01*
X98039285Y-94074623D01*
X98077380Y-94150813D01*
X98115476Y-94188909D01*
X98191666Y-94227004D01*
X98496428Y-94227004D01*
X97277380Y-94607956D02*
X97734523Y-94607956D01*
X97505952Y-94607956D02*
X97505952Y-93807956D01*
X97582142Y-93922242D01*
X97658333Y-93998432D01*
X97734523Y-94036528D01*
X96515476Y-94607956D02*
X96972619Y-94607956D01*
X96744047Y-94607956D02*
X96744047Y-93807956D01*
X96820238Y-93922242D01*
X96896428Y-93998432D01*
X96972619Y-94036528D01*
X98115475Y-86215789D02*
X98191666Y-86177693D01*
X98305951Y-86177693D01*
X98420237Y-86215789D01*
X98496427Y-86291979D01*
X98534523Y-86368169D01*
X98572618Y-86520550D01*
X98572618Y-86634836D01*
X98534523Y-86787217D01*
X98496427Y-86863408D01*
X98420237Y-86939598D01*
X98305951Y-86977693D01*
X98229761Y-86977693D01*
X98115475Y-86939598D01*
X98077380Y-86901503D01*
X98077380Y-86634836D01*
X98229761Y-86634836D01*
X97734523Y-86977693D02*
X97734523Y-86177693D01*
X97429761Y-86177693D01*
X97353570Y-86215789D01*
X97315475Y-86253884D01*
X97277380Y-86330074D01*
X97277380Y-86444360D01*
X97315475Y-86520550D01*
X97353570Y-86558646D01*
X97429761Y-86596741D01*
X97734523Y-86596741D01*
X96896427Y-86977693D02*
X96744047Y-86977693D01*
X96667856Y-86939598D01*
X96629761Y-86901503D01*
X96553570Y-86787217D01*
X96515475Y-86634836D01*
X96515475Y-86330074D01*
X96553570Y-86253884D01*
X96591666Y-86215789D01*
X96667856Y-86177693D01*
X96820237Y-86177693D01*
X96896427Y-86215789D01*
X96934523Y-86253884D01*
X96972618Y-86330074D01*
X96972618Y-86520550D01*
X96934523Y-86596741D01*
X96896427Y-86634836D01*
X96820237Y-86672931D01*
X96667856Y-86672931D01*
X96591666Y-86634836D01*
X96553570Y-86596741D01*
X96515475Y-86520550D01*
X110252380Y-96431575D02*
X110328571Y-96393479D01*
X110442857Y-96393479D01*
X110557142Y-96431575D01*
X110633333Y-96507765D01*
X110671428Y-96583955D01*
X110709523Y-96736336D01*
X110709523Y-96850622D01*
X110671428Y-97003003D01*
X110633333Y-97079194D01*
X110557142Y-97155384D01*
X110442857Y-97193479D01*
X110366666Y-97193479D01*
X110252380Y-97155384D01*
X110214285Y-97117289D01*
X110214285Y-96850622D01*
X110366666Y-96850622D01*
X109871428Y-97193479D02*
X109871428Y-96393479D01*
X109566666Y-96393479D01*
X109490476Y-96431575D01*
X109452380Y-96469670D01*
X109414285Y-96545860D01*
X109414285Y-96660146D01*
X109452380Y-96736336D01*
X109490476Y-96774432D01*
X109566666Y-96812527D01*
X109871428Y-96812527D01*
X108652380Y-97193479D02*
X109109523Y-97193479D01*
X108880952Y-97193479D02*
X108880952Y-96393479D01*
X108957142Y-96507765D01*
X109033333Y-96583955D01*
X109109523Y-96622051D01*
X108271428Y-97193479D02*
X108119047Y-97193479D01*
X108042857Y-97155384D01*
X108004761Y-97117289D01*
X107928571Y-97003003D01*
X107890476Y-96850622D01*
X107890476Y-96545860D01*
X107928571Y-96469670D01*
X107966666Y-96431575D01*
X108042857Y-96393479D01*
X108195238Y-96393479D01*
X108271428Y-96431575D01*
X108309523Y-96469670D01*
X108347619Y-96545860D01*
X108347619Y-96736336D01*
X108309523Y-96812527D01*
X108271428Y-96850622D01*
X108195238Y-96888717D01*
X108042857Y-96888717D01*
X107966666Y-96850622D01*
X107928571Y-96812527D01*
X107890476Y-96736336D01*
X98115475Y-58238158D02*
X98191666Y-58200062D01*
X98305951Y-58200062D01*
X98420237Y-58238158D01*
X98496427Y-58314348D01*
X98534523Y-58390538D01*
X98572618Y-58542919D01*
X98572618Y-58657205D01*
X98534523Y-58809586D01*
X98496427Y-58885777D01*
X98420237Y-58961967D01*
X98305951Y-59000062D01*
X98229761Y-59000062D01*
X98115475Y-58961967D01*
X98077380Y-58923872D01*
X98077380Y-58657205D01*
X98229761Y-58657205D01*
X97734523Y-59000062D02*
X97734523Y-58200062D01*
X97429761Y-58200062D01*
X97353570Y-58238158D01*
X97315475Y-58276253D01*
X97277380Y-58352443D01*
X97277380Y-58466729D01*
X97315475Y-58542919D01*
X97353570Y-58581015D01*
X97429761Y-58619110D01*
X97734523Y-58619110D01*
X96782142Y-58200062D02*
X96705951Y-58200062D01*
X96629761Y-58238158D01*
X96591666Y-58276253D01*
X96553570Y-58352443D01*
X96515475Y-58504824D01*
X96515475Y-58695300D01*
X96553570Y-58847681D01*
X96591666Y-58923872D01*
X96629761Y-58961967D01*
X96705951Y-59000062D01*
X96782142Y-59000062D01*
X96858332Y-58961967D01*
X96896427Y-58923872D01*
X96934523Y-58847681D01*
X96972618Y-58695300D01*
X96972618Y-58504824D01*
X96934523Y-58352443D01*
X96896427Y-58276253D01*
X96858332Y-58238158D01*
X96782142Y-58200062D01*
X110891666Y-57936904D02*
X110625000Y-58736904D01*
X110358333Y-57936904D01*
X109825000Y-58317857D02*
X109710714Y-58355952D01*
X109672619Y-58394047D01*
X109634523Y-58470238D01*
X109634523Y-58584523D01*
X109672619Y-58660714D01*
X109710714Y-58698809D01*
X109786904Y-58736904D01*
X110091666Y-58736904D01*
X110091666Y-57936904D01*
X109825000Y-57936904D01*
X109748809Y-57975000D01*
X109710714Y-58013095D01*
X109672619Y-58089285D01*
X109672619Y-58165476D01*
X109710714Y-58241666D01*
X109748809Y-58279761D01*
X109825000Y-58317857D01*
X110091666Y-58317857D01*
X109291666Y-57936904D02*
X109291666Y-58584523D01*
X109253571Y-58660714D01*
X109215476Y-58698809D01*
X109139285Y-58736904D01*
X108986904Y-58736904D01*
X108910714Y-58698809D01*
X108872619Y-58660714D01*
X108834523Y-58584523D01*
X108834523Y-57936904D01*
X108491666Y-58698809D02*
X108377380Y-58736904D01*
X108186904Y-58736904D01*
X108110714Y-58698809D01*
X108072619Y-58660714D01*
X108034523Y-58584523D01*
X108034523Y-58508333D01*
X108072619Y-58432142D01*
X108110714Y-58394047D01*
X108186904Y-58355952D01*
X108339285Y-58317857D01*
X108415476Y-58279761D01*
X108453571Y-58241666D01*
X108491666Y-58165476D01*
X108491666Y-58089285D01*
X108453571Y-58013095D01*
X108415476Y-57975000D01*
X108339285Y-57936904D01*
X108148809Y-57936904D01*
X108034523Y-57975000D01*
X98115475Y-65868421D02*
X98191666Y-65830325D01*
X98305951Y-65830325D01*
X98420237Y-65868421D01*
X98496427Y-65944611D01*
X98534523Y-66020801D01*
X98572618Y-66173182D01*
X98572618Y-66287468D01*
X98534523Y-66439849D01*
X98496427Y-66516040D01*
X98420237Y-66592230D01*
X98305951Y-66630325D01*
X98229761Y-66630325D01*
X98115475Y-66592230D01*
X98077380Y-66554135D01*
X98077380Y-66287468D01*
X98229761Y-66287468D01*
X97734523Y-66630325D02*
X97734523Y-65830325D01*
X97429761Y-65830325D01*
X97353570Y-65868421D01*
X97315475Y-65906516D01*
X97277380Y-65982706D01*
X97277380Y-66096992D01*
X97315475Y-66173182D01*
X97353570Y-66211278D01*
X97429761Y-66249373D01*
X97734523Y-66249373D01*
X96972618Y-65906516D02*
X96934523Y-65868421D01*
X96858332Y-65830325D01*
X96667856Y-65830325D01*
X96591666Y-65868421D01*
X96553570Y-65906516D01*
X96515475Y-65982706D01*
X96515475Y-66058897D01*
X96553570Y-66173182D01*
X97010713Y-66630325D01*
X96515475Y-66630325D01*
X98115475Y-70955263D02*
X98191666Y-70917167D01*
X98305951Y-70917167D01*
X98420237Y-70955263D01*
X98496427Y-71031453D01*
X98534523Y-71107643D01*
X98572618Y-71260024D01*
X98572618Y-71374310D01*
X98534523Y-71526691D01*
X98496427Y-71602882D01*
X98420237Y-71679072D01*
X98305951Y-71717167D01*
X98229761Y-71717167D01*
X98115475Y-71679072D01*
X98077380Y-71640977D01*
X98077380Y-71374310D01*
X98229761Y-71374310D01*
X97734523Y-71717167D02*
X97734523Y-70917167D01*
X97429761Y-70917167D01*
X97353570Y-70955263D01*
X97315475Y-70993358D01*
X97277380Y-71069548D01*
X97277380Y-71183834D01*
X97315475Y-71260024D01*
X97353570Y-71298120D01*
X97429761Y-71336215D01*
X97734523Y-71336215D01*
X96591666Y-71183834D02*
X96591666Y-71717167D01*
X96782142Y-70879072D02*
X96972618Y-71450501D01*
X96477380Y-71450501D01*
X106138095Y-59504761D02*
X106938095Y-59504761D01*
X106938095Y-59314285D01*
X106900000Y-59200000D01*
X106823809Y-59123809D01*
X106747619Y-59085714D01*
X106595238Y-59047619D01*
X106480952Y-59047619D01*
X106328571Y-59085714D01*
X106252380Y-59123809D01*
X106176190Y-59200000D01*
X106138095Y-59314285D01*
X106138095Y-59504761D01*
X106442857Y-58704761D02*
X106442857Y-58095238D01*
X98191665Y-88759210D02*
X98267856Y-88721114D01*
X98382142Y-88721114D01*
X98496427Y-88759210D01*
X98572618Y-88835400D01*
X98610713Y-88911590D01*
X98648808Y-89063971D01*
X98648808Y-89178257D01*
X98610713Y-89330638D01*
X98572618Y-89406829D01*
X98496427Y-89483019D01*
X98382142Y-89521114D01*
X98305951Y-89521114D01*
X98191665Y-89483019D01*
X98153570Y-89444924D01*
X98153570Y-89178257D01*
X98305951Y-89178257D01*
X97810713Y-89521114D02*
X97810713Y-88721114D01*
X97353570Y-89521114D01*
X97353570Y-88721114D01*
X96972618Y-89521114D02*
X96972618Y-88721114D01*
X96782142Y-88721114D01*
X96667856Y-88759210D01*
X96591665Y-88835400D01*
X96553570Y-88911590D01*
X96515475Y-89063971D01*
X96515475Y-89178257D01*
X96553570Y-89330638D01*
X96591665Y-89406829D01*
X96667856Y-89483019D01*
X96782142Y-89521114D01*
X96972618Y-89521114D01*
X98191665Y-76042105D02*
X98267856Y-76004009D01*
X98382142Y-76004009D01*
X98496427Y-76042105D01*
X98572618Y-76118295D01*
X98610713Y-76194485D01*
X98648808Y-76346866D01*
X98648808Y-76461152D01*
X98610713Y-76613533D01*
X98572618Y-76689724D01*
X98496427Y-76765914D01*
X98382142Y-76804009D01*
X98305951Y-76804009D01*
X98191665Y-76765914D01*
X98153570Y-76727819D01*
X98153570Y-76461152D01*
X98305951Y-76461152D01*
X97810713Y-76804009D02*
X97810713Y-76004009D01*
X97353570Y-76804009D01*
X97353570Y-76004009D01*
X96972618Y-76804009D02*
X96972618Y-76004009D01*
X96782142Y-76004009D01*
X96667856Y-76042105D01*
X96591665Y-76118295D01*
X96553570Y-76194485D01*
X96515475Y-76346866D01*
X96515475Y-76461152D01*
X96553570Y-76613533D01*
X96591665Y-76689724D01*
X96667856Y-76765914D01*
X96782142Y-76804009D01*
X96972618Y-76804009D01*
X98191665Y-63325000D02*
X98267856Y-63286904D01*
X98382142Y-63286904D01*
X98496427Y-63325000D01*
X98572618Y-63401190D01*
X98610713Y-63477380D01*
X98648808Y-63629761D01*
X98648808Y-63744047D01*
X98610713Y-63896428D01*
X98572618Y-63972619D01*
X98496427Y-64048809D01*
X98382142Y-64086904D01*
X98305951Y-64086904D01*
X98191665Y-64048809D01*
X98153570Y-64010714D01*
X98153570Y-63744047D01*
X98305951Y-63744047D01*
X97810713Y-64086904D02*
X97810713Y-63286904D01*
X97353570Y-64086904D01*
X97353570Y-63286904D01*
X96972618Y-64086904D02*
X96972618Y-63286904D01*
X96782142Y-63286904D01*
X96667856Y-63325000D01*
X96591665Y-63401190D01*
X96553570Y-63477380D01*
X96515475Y-63629761D01*
X96515475Y-63744047D01*
X96553570Y-63896428D01*
X96591665Y-63972619D01*
X96667856Y-64048809D01*
X96782142Y-64086904D01*
X96972618Y-64086904D01*
X98115475Y-60781579D02*
X98191666Y-60743483D01*
X98305951Y-60743483D01*
X98420237Y-60781579D01*
X98496427Y-60857769D01*
X98534523Y-60933959D01*
X98572618Y-61086340D01*
X98572618Y-61200626D01*
X98534523Y-61353007D01*
X98496427Y-61429198D01*
X98420237Y-61505388D01*
X98305951Y-61543483D01*
X98229761Y-61543483D01*
X98115475Y-61505388D01*
X98077380Y-61467293D01*
X98077380Y-61200626D01*
X98229761Y-61200626D01*
X97734523Y-61543483D02*
X97734523Y-60743483D01*
X97429761Y-60743483D01*
X97353570Y-60781579D01*
X97315475Y-60819674D01*
X97277380Y-60895864D01*
X97277380Y-61010150D01*
X97315475Y-61086340D01*
X97353570Y-61124436D01*
X97429761Y-61162531D01*
X97734523Y-61162531D01*
X96515475Y-61543483D02*
X96972618Y-61543483D01*
X96744047Y-61543483D02*
X96744047Y-60743483D01*
X96820237Y-60857769D01*
X96896427Y-60933959D01*
X96972618Y-60972055D01*
X110252380Y-63384210D02*
X110328571Y-63346114D01*
X110442857Y-63346114D01*
X110557142Y-63384210D01*
X110633333Y-63460400D01*
X110671428Y-63536590D01*
X110709523Y-63688971D01*
X110709523Y-63803257D01*
X110671428Y-63955638D01*
X110633333Y-64031829D01*
X110557142Y-64108019D01*
X110442857Y-64146114D01*
X110366666Y-64146114D01*
X110252380Y-64108019D01*
X110214285Y-64069924D01*
X110214285Y-63803257D01*
X110366666Y-63803257D01*
X109871428Y-64146114D02*
X109871428Y-63346114D01*
X109414285Y-64146114D01*
X109414285Y-63346114D01*
X109033333Y-64146114D02*
X109033333Y-63346114D01*
X108842857Y-63346114D01*
X108728571Y-63384210D01*
X108652380Y-63460400D01*
X108614285Y-63536590D01*
X108576190Y-63688971D01*
X108576190Y-63803257D01*
X108614285Y-63955638D01*
X108652380Y-64031829D01*
X108728571Y-64108019D01*
X108842857Y-64146114D01*
X109033333Y-64146114D01*
X98115475Y-68411842D02*
X98191666Y-68373746D01*
X98305951Y-68373746D01*
X98420237Y-68411842D01*
X98496427Y-68488032D01*
X98534523Y-68564222D01*
X98572618Y-68716603D01*
X98572618Y-68830889D01*
X98534523Y-68983270D01*
X98496427Y-69059461D01*
X98420237Y-69135651D01*
X98305951Y-69173746D01*
X98229761Y-69173746D01*
X98115475Y-69135651D01*
X98077380Y-69097556D01*
X98077380Y-68830889D01*
X98229761Y-68830889D01*
X97734523Y-69173746D02*
X97734523Y-68373746D01*
X97429761Y-68373746D01*
X97353570Y-68411842D01*
X97315475Y-68449937D01*
X97277380Y-68526127D01*
X97277380Y-68640413D01*
X97315475Y-68716603D01*
X97353570Y-68754699D01*
X97429761Y-68792794D01*
X97734523Y-68792794D01*
X97010713Y-68373746D02*
X96515475Y-68373746D01*
X96782142Y-68678508D01*
X96667856Y-68678508D01*
X96591666Y-68716603D01*
X96553570Y-68754699D01*
X96515475Y-68830889D01*
X96515475Y-69021365D01*
X96553570Y-69097556D01*
X96591666Y-69135651D01*
X96667856Y-69173746D01*
X96896427Y-69173746D01*
X96972618Y-69135651D01*
X97010713Y-69097556D01*
X110252380Y-81178945D02*
X110328571Y-81140849D01*
X110442857Y-81140849D01*
X110557142Y-81178945D01*
X110633333Y-81255135D01*
X110671428Y-81331325D01*
X110709523Y-81483706D01*
X110709523Y-81597992D01*
X110671428Y-81750373D01*
X110633333Y-81826564D01*
X110557142Y-81902754D01*
X110442857Y-81940849D01*
X110366666Y-81940849D01*
X110252380Y-81902754D01*
X110214285Y-81864659D01*
X110214285Y-81597992D01*
X110366666Y-81597992D01*
X109871428Y-81940849D02*
X109871428Y-81140849D01*
X109566666Y-81140849D01*
X109490476Y-81178945D01*
X109452380Y-81217040D01*
X109414285Y-81293230D01*
X109414285Y-81407516D01*
X109452380Y-81483706D01*
X109490476Y-81521802D01*
X109566666Y-81559897D01*
X109871428Y-81559897D01*
X109109523Y-81217040D02*
X109071428Y-81178945D01*
X108995238Y-81140849D01*
X108804761Y-81140849D01*
X108728571Y-81178945D01*
X108690476Y-81217040D01*
X108652380Y-81293230D01*
X108652380Y-81369421D01*
X108690476Y-81483706D01*
X109147619Y-81940849D01*
X108652380Y-81940849D01*
X107966666Y-81140849D02*
X108119047Y-81140849D01*
X108195238Y-81178945D01*
X108233333Y-81217040D01*
X108309523Y-81331325D01*
X108347619Y-81483706D01*
X108347619Y-81788468D01*
X108309523Y-81864659D01*
X108271428Y-81902754D01*
X108195238Y-81940849D01*
X108042857Y-81940849D01*
X107966666Y-81902754D01*
X107928571Y-81864659D01*
X107890476Y-81788468D01*
X107890476Y-81597992D01*
X107928571Y-81521802D01*
X107966666Y-81483706D01*
X108042857Y-81445611D01*
X108195238Y-81445611D01*
X108271428Y-81483706D01*
X108309523Y-81521802D01*
X108347619Y-81597992D01*
X110252380Y-73552630D02*
X110328571Y-73514534D01*
X110442857Y-73514534D01*
X110557142Y-73552630D01*
X110633333Y-73628820D01*
X110671428Y-73705010D01*
X110709523Y-73857391D01*
X110709523Y-73971677D01*
X110671428Y-74124058D01*
X110633333Y-74200249D01*
X110557142Y-74276439D01*
X110442857Y-74314534D01*
X110366666Y-74314534D01*
X110252380Y-74276439D01*
X110214285Y-74238344D01*
X110214285Y-73971677D01*
X110366666Y-73971677D01*
X109871428Y-74314534D02*
X109871428Y-73514534D01*
X109566666Y-73514534D01*
X109490476Y-73552630D01*
X109452380Y-73590725D01*
X109414285Y-73666915D01*
X109414285Y-73781201D01*
X109452380Y-73857391D01*
X109490476Y-73895487D01*
X109566666Y-73933582D01*
X109871428Y-73933582D01*
X109109523Y-73590725D02*
X109071428Y-73552630D01*
X108995238Y-73514534D01*
X108804761Y-73514534D01*
X108728571Y-73552630D01*
X108690476Y-73590725D01*
X108652380Y-73666915D01*
X108652380Y-73743106D01*
X108690476Y-73857391D01*
X109147619Y-74314534D01*
X108652380Y-74314534D01*
X108195238Y-73857391D02*
X108271428Y-73819296D01*
X108309523Y-73781201D01*
X108347619Y-73705010D01*
X108347619Y-73666915D01*
X108309523Y-73590725D01*
X108271428Y-73552630D01*
X108195238Y-73514534D01*
X108042857Y-73514534D01*
X107966666Y-73552630D01*
X107928571Y-73590725D01*
X107890476Y-73666915D01*
X107890476Y-73705010D01*
X107928571Y-73781201D01*
X107966666Y-73819296D01*
X108042857Y-73857391D01*
X108195238Y-73857391D01*
X108271428Y-73895487D01*
X108309523Y-73933582D01*
X108347619Y-74009772D01*
X108347619Y-74162153D01*
X108309523Y-74238344D01*
X108271428Y-74276439D01*
X108195238Y-74314534D01*
X108042857Y-74314534D01*
X107966666Y-74276439D01*
X107928571Y-74238344D01*
X107890476Y-74162153D01*
X107890476Y-74009772D01*
X107928571Y-73933582D01*
X107966666Y-73895487D01*
X108042857Y-73857391D01*
X110252380Y-86263155D02*
X110328571Y-86225059D01*
X110442857Y-86225059D01*
X110557142Y-86263155D01*
X110633333Y-86339345D01*
X110671428Y-86415535D01*
X110709523Y-86567916D01*
X110709523Y-86682202D01*
X110671428Y-86834583D01*
X110633333Y-86910774D01*
X110557142Y-86986964D01*
X110442857Y-87025059D01*
X110366666Y-87025059D01*
X110252380Y-86986964D01*
X110214285Y-86948869D01*
X110214285Y-86682202D01*
X110366666Y-86682202D01*
X109871428Y-87025059D02*
X109871428Y-86225059D01*
X109566666Y-86225059D01*
X109490476Y-86263155D01*
X109452380Y-86301250D01*
X109414285Y-86377440D01*
X109414285Y-86491726D01*
X109452380Y-86567916D01*
X109490476Y-86606012D01*
X109566666Y-86644107D01*
X109871428Y-86644107D01*
X109109523Y-86301250D02*
X109071428Y-86263155D01*
X108995238Y-86225059D01*
X108804761Y-86225059D01*
X108728571Y-86263155D01*
X108690476Y-86301250D01*
X108652380Y-86377440D01*
X108652380Y-86453631D01*
X108690476Y-86567916D01*
X109147619Y-87025059D01*
X108652380Y-87025059D01*
X108347619Y-86301250D02*
X108309523Y-86263155D01*
X108233333Y-86225059D01*
X108042857Y-86225059D01*
X107966666Y-86263155D01*
X107928571Y-86301250D01*
X107890476Y-86377440D01*
X107890476Y-86453631D01*
X107928571Y-86567916D01*
X108385714Y-87025059D01*
X107890476Y-87025059D01*
X104011904Y-71345238D02*
X103211904Y-71345238D01*
X103211904Y-71650000D01*
X103250000Y-71726190D01*
X103288095Y-71764285D01*
X103364285Y-71802380D01*
X103478571Y-71802380D01*
X103554761Y-71764285D01*
X103592857Y-71726190D01*
X103630952Y-71650000D01*
X103630952Y-71345238D01*
X104011904Y-72145238D02*
X103211904Y-72145238D01*
X103935714Y-72983333D02*
X103973809Y-72945238D01*
X104011904Y-72830952D01*
X104011904Y-72754761D01*
X103973809Y-72640476D01*
X103897619Y-72564285D01*
X103821428Y-72526190D01*
X103669047Y-72488095D01*
X103554761Y-72488095D01*
X103402380Y-72526190D01*
X103326190Y-72564285D01*
X103250000Y-72640476D01*
X103211904Y-72754761D01*
X103211904Y-72830952D01*
X103250000Y-72945238D01*
X103288095Y-72983333D01*
X103211904Y-73478571D02*
X103211904Y-73630952D01*
X103250000Y-73707142D01*
X103326190Y-73783333D01*
X103478571Y-73821428D01*
X103745238Y-73821428D01*
X103897619Y-73783333D01*
X103973809Y-73707142D01*
X104011904Y-73630952D01*
X104011904Y-73478571D01*
X103973809Y-73402380D01*
X103897619Y-73326190D01*
X103745238Y-73288095D01*
X103478571Y-73288095D01*
X103326190Y-73326190D01*
X103250000Y-73402380D01*
X103211904Y-73478571D01*
X103707142Y-74164285D02*
X103707142Y-74773809D01*
X103592857Y-75421428D02*
X103630952Y-75535714D01*
X103669047Y-75573809D01*
X103745238Y-75611904D01*
X103859523Y-75611904D01*
X103935714Y-75573809D01*
X103973809Y-75535714D01*
X104011904Y-75459523D01*
X104011904Y-75154761D01*
X103211904Y-75154761D01*
X103211904Y-75421428D01*
X103250000Y-75497619D01*
X103288095Y-75535714D01*
X103364285Y-75573809D01*
X103440476Y-75573809D01*
X103516666Y-75535714D01*
X103554761Y-75497619D01*
X103592857Y-75421428D01*
X103592857Y-75154761D01*
X103211904Y-76107142D02*
X103211904Y-76259523D01*
X103250000Y-76335714D01*
X103326190Y-76411904D01*
X103478571Y-76450000D01*
X103745238Y-76450000D01*
X103897619Y-76411904D01*
X103973809Y-76335714D01*
X104011904Y-76259523D01*
X104011904Y-76107142D01*
X103973809Y-76030952D01*
X103897619Y-75954761D01*
X103745238Y-75916666D01*
X103478571Y-75916666D01*
X103326190Y-75954761D01*
X103250000Y-76030952D01*
X103211904Y-76107142D01*
X103211904Y-76945238D02*
X103211904Y-77097619D01*
X103250000Y-77173809D01*
X103326190Y-77250000D01*
X103478571Y-77288095D01*
X103745238Y-77288095D01*
X103897619Y-77250000D01*
X103973809Y-77173809D01*
X104011904Y-77097619D01*
X104011904Y-76945238D01*
X103973809Y-76869047D01*
X103897619Y-76792857D01*
X103745238Y-76754761D01*
X103478571Y-76754761D01*
X103326190Y-76792857D01*
X103250000Y-76869047D01*
X103211904Y-76945238D01*
X103211904Y-77516666D02*
X103211904Y-77973809D01*
X104011904Y-77745238D02*
X103211904Y-77745238D01*
X103630952Y-79345238D02*
X103592857Y-79307142D01*
X103554761Y-79230952D01*
X103554761Y-79154761D01*
X103592857Y-79078571D01*
X103630952Y-79040476D01*
X103707142Y-79002380D01*
X103783333Y-79002380D01*
X103859523Y-79040476D01*
X103897619Y-79078571D01*
X103935714Y-79154761D01*
X103935714Y-79230952D01*
X103897619Y-79307142D01*
X103859523Y-79345238D01*
X103554761Y-79345238D02*
X103859523Y-79345238D01*
X103897619Y-79383333D01*
X103897619Y-79421428D01*
X103859523Y-79497619D01*
X103783333Y-79535714D01*
X103592857Y-79535714D01*
X103478571Y-79459523D01*
X103402380Y-79345238D01*
X103364285Y-79192857D01*
X103402380Y-79040476D01*
X103478571Y-78926190D01*
X103592857Y-78850000D01*
X103745238Y-78811904D01*
X103897619Y-78850000D01*
X104011904Y-78926190D01*
X104088095Y-79040476D01*
X104126190Y-79192857D01*
X104088095Y-79345238D01*
X104011904Y-79459523D01*
X103211904Y-80411904D02*
X104011904Y-80602380D01*
X103440476Y-80754761D01*
X104011904Y-80907142D01*
X103211904Y-81097619D01*
X103211904Y-81326190D02*
X104011904Y-81516666D01*
X103440476Y-81669047D01*
X104011904Y-81821428D01*
X103211904Y-82011904D01*
X103211904Y-82240476D02*
X104011904Y-82430952D01*
X103440476Y-82583333D01*
X104011904Y-82735714D01*
X103211904Y-82926190D01*
X103935714Y-83230952D02*
X103973809Y-83269047D01*
X104011904Y-83230952D01*
X103973809Y-83192857D01*
X103935714Y-83230952D01*
X104011904Y-83230952D01*
X104011904Y-84069047D02*
X103630952Y-83802380D01*
X104011904Y-83611904D02*
X103211904Y-83611904D01*
X103211904Y-83916666D01*
X103250000Y-83992857D01*
X103288095Y-84030952D01*
X103364285Y-84069047D01*
X103478571Y-84069047D01*
X103554761Y-84030952D01*
X103592857Y-83992857D01*
X103630952Y-83916666D01*
X103630952Y-83611904D01*
X103592857Y-84411904D02*
X103592857Y-84678571D01*
X104011904Y-84792857D02*
X104011904Y-84411904D01*
X103211904Y-84411904D01*
X103211904Y-84792857D01*
X103211904Y-85021428D02*
X103211904Y-85478571D01*
X104011904Y-85250000D02*
X103211904Y-85250000D01*
X104011904Y-86202380D02*
X103630952Y-85935714D01*
X104011904Y-85745238D02*
X103211904Y-85745238D01*
X103211904Y-86050000D01*
X103250000Y-86126190D01*
X103288095Y-86164285D01*
X103364285Y-86202380D01*
X103478571Y-86202380D01*
X103554761Y-86164285D01*
X103592857Y-86126190D01*
X103630952Y-86050000D01*
X103630952Y-85745238D01*
X103211904Y-86697619D02*
X103211904Y-86850000D01*
X103250000Y-86926190D01*
X103326190Y-87002380D01*
X103478571Y-87040476D01*
X103745238Y-87040476D01*
X103897619Y-87002380D01*
X103973809Y-86926190D01*
X104011904Y-86850000D01*
X104011904Y-86697619D01*
X103973809Y-86621428D01*
X103897619Y-86545238D01*
X103745238Y-86507142D01*
X103478571Y-86507142D01*
X103326190Y-86545238D01*
X103250000Y-86621428D01*
X103211904Y-86697619D01*
X103973809Y-87345238D02*
X104011904Y-87459523D01*
X104011904Y-87650000D01*
X103973809Y-87726190D01*
X103935714Y-87764285D01*
X103859523Y-87802380D01*
X103783333Y-87802380D01*
X103707142Y-87764285D01*
X103669047Y-87726190D01*
X103630952Y-87650000D01*
X103592857Y-87497619D01*
X103554761Y-87421428D01*
X103516666Y-87383333D01*
X103440476Y-87345238D01*
X103364285Y-87345238D01*
X103288095Y-87383333D01*
X103250000Y-87421428D01*
X103211904Y-87497619D01*
X103211904Y-87688095D01*
X103250000Y-87802380D01*
X103935714Y-88602380D02*
X103973809Y-88564285D01*
X104011904Y-88450000D01*
X104011904Y-88373809D01*
X103973809Y-88259523D01*
X103897619Y-88183333D01*
X103821428Y-88145238D01*
X103669047Y-88107142D01*
X103554761Y-88107142D01*
X103402380Y-88145238D01*
X103326190Y-88183333D01*
X103250000Y-88259523D01*
X103211904Y-88373809D01*
X103211904Y-88450000D01*
X103250000Y-88564285D01*
X103288095Y-88602380D01*
X103783333Y-88907142D02*
X103783333Y-89288095D01*
X104011904Y-88830952D02*
X103211904Y-89097619D01*
X104011904Y-89364285D01*
X104011904Y-90011904D02*
X104011904Y-89630952D01*
X103211904Y-89630952D01*
X103592857Y-90278571D02*
X103592857Y-90545238D01*
X104011904Y-90659523D02*
X104011904Y-90278571D01*
X103211904Y-90278571D01*
X103211904Y-90659523D01*
X104011904Y-91459523D02*
X103630952Y-91192857D01*
X104011904Y-91002380D02*
X103211904Y-91002380D01*
X103211904Y-91307142D01*
X103250000Y-91383333D01*
X103288095Y-91421428D01*
X103364285Y-91459523D01*
X103478571Y-91459523D01*
X103554761Y-91421428D01*
X103592857Y-91383333D01*
X103630952Y-91307142D01*
X103630952Y-91002380D01*
X103935714Y-91802380D02*
X103973809Y-91840476D01*
X104011904Y-91802380D01*
X103973809Y-91764285D01*
X103935714Y-91802380D01*
X104011904Y-91802380D01*
X103935714Y-92640476D02*
X103973809Y-92602380D01*
X104011904Y-92488095D01*
X104011904Y-92411904D01*
X103973809Y-92297619D01*
X103897619Y-92221428D01*
X103821428Y-92183333D01*
X103669047Y-92145238D01*
X103554761Y-92145238D01*
X103402380Y-92183333D01*
X103326190Y-92221428D01*
X103250000Y-92297619D01*
X103211904Y-92411904D01*
X103211904Y-92488095D01*
X103250000Y-92602380D01*
X103288095Y-92640476D01*
X103211904Y-93135714D02*
X103211904Y-93288095D01*
X103250000Y-93364285D01*
X103326190Y-93440476D01*
X103478571Y-93478571D01*
X103745238Y-93478571D01*
X103897619Y-93440476D01*
X103973809Y-93364285D01*
X104011904Y-93288095D01*
X104011904Y-93135714D01*
X103973809Y-93059523D01*
X103897619Y-92983333D01*
X103745238Y-92945238D01*
X103478571Y-92945238D01*
X103326190Y-92983333D01*
X103250000Y-93059523D01*
X103211904Y-93135714D01*
X104011904Y-93821428D02*
X103211904Y-93821428D01*
X103783333Y-94088095D01*
X103211904Y-94354761D01*
X104011904Y-94354761D01*
X110214286Y-84482954D02*
X110480952Y-84102002D01*
X110671429Y-84482954D02*
X110671429Y-83682954D01*
X110366667Y-83682954D01*
X110290476Y-83721050D01*
X110252381Y-83759145D01*
X110214286Y-83835335D01*
X110214286Y-83949621D01*
X110252381Y-84025811D01*
X110290476Y-84063907D01*
X110366667Y-84102002D01*
X110671429Y-84102002D01*
X109871429Y-83682954D02*
X109871429Y-84330573D01*
X109833333Y-84406764D01*
X109795238Y-84444859D01*
X109719048Y-84482954D01*
X109566667Y-84482954D01*
X109490476Y-84444859D01*
X109452381Y-84406764D01*
X109414286Y-84330573D01*
X109414286Y-83682954D01*
X109033333Y-84482954D02*
X109033333Y-83682954D01*
X108576190Y-84482954D01*
X108576190Y-83682954D01*
X98191665Y-101476315D02*
X98267856Y-101438219D01*
X98382142Y-101438219D01*
X98496427Y-101476315D01*
X98572618Y-101552505D01*
X98610713Y-101628695D01*
X98648808Y-101781076D01*
X98648808Y-101895362D01*
X98610713Y-102047743D01*
X98572618Y-102123934D01*
X98496427Y-102200124D01*
X98382142Y-102238219D01*
X98305951Y-102238219D01*
X98191665Y-102200124D01*
X98153570Y-102162029D01*
X98153570Y-101895362D01*
X98305951Y-101895362D01*
X97810713Y-102238219D02*
X97810713Y-101438219D01*
X97353570Y-102238219D01*
X97353570Y-101438219D01*
X96972618Y-102238219D02*
X96972618Y-101438219D01*
X96782142Y-101438219D01*
X96667856Y-101476315D01*
X96591665Y-101552505D01*
X96553570Y-101628695D01*
X96515475Y-101781076D01*
X96515475Y-101895362D01*
X96553570Y-102047743D01*
X96591665Y-102123934D01*
X96667856Y-102200124D01*
X96782142Y-102238219D01*
X96972618Y-102238219D01*
X98877380Y-96389473D02*
X98953571Y-96351377D01*
X99067857Y-96351377D01*
X99182142Y-96389473D01*
X99258333Y-96465663D01*
X99296428Y-96541853D01*
X99334523Y-96694234D01*
X99334523Y-96808520D01*
X99296428Y-96960901D01*
X99258333Y-97037092D01*
X99182142Y-97113282D01*
X99067857Y-97151377D01*
X98991666Y-97151377D01*
X98877380Y-97113282D01*
X98839285Y-97075187D01*
X98839285Y-96808520D01*
X98991666Y-96808520D01*
X98496428Y-97151377D02*
X98496428Y-96351377D01*
X98191666Y-96351377D01*
X98115476Y-96389473D01*
X98077380Y-96427568D01*
X98039285Y-96503758D01*
X98039285Y-96618044D01*
X98077380Y-96694234D01*
X98115476Y-96732330D01*
X98191666Y-96770425D01*
X98496428Y-96770425D01*
X97277380Y-97151377D02*
X97734523Y-97151377D01*
X97505952Y-97151377D02*
X97505952Y-96351377D01*
X97582142Y-96465663D01*
X97658333Y-96541853D01*
X97734523Y-96579949D01*
X96972619Y-96427568D02*
X96934523Y-96389473D01*
X96858333Y-96351377D01*
X96667857Y-96351377D01*
X96591666Y-96389473D01*
X96553571Y-96427568D01*
X96515476Y-96503758D01*
X96515476Y-96579949D01*
X96553571Y-96694234D01*
X97010714Y-97151377D01*
X96515476Y-97151377D01*
X98877380Y-104019736D02*
X98953571Y-103981640D01*
X99067857Y-103981640D01*
X99182142Y-104019736D01*
X99258333Y-104095926D01*
X99296428Y-104172116D01*
X99334523Y-104324497D01*
X99334523Y-104438783D01*
X99296428Y-104591164D01*
X99258333Y-104667355D01*
X99182142Y-104743545D01*
X99067857Y-104781640D01*
X98991666Y-104781640D01*
X98877380Y-104743545D01*
X98839285Y-104705450D01*
X98839285Y-104438783D01*
X98991666Y-104438783D01*
X98496428Y-104781640D02*
X98496428Y-103981640D01*
X98191666Y-103981640D01*
X98115476Y-104019736D01*
X98077380Y-104057831D01*
X98039285Y-104134021D01*
X98039285Y-104248307D01*
X98077380Y-104324497D01*
X98115476Y-104362593D01*
X98191666Y-104400688D01*
X98496428Y-104400688D01*
X97277380Y-104781640D02*
X97734523Y-104781640D01*
X97505952Y-104781640D02*
X97505952Y-103981640D01*
X97582142Y-104095926D01*
X97658333Y-104172116D01*
X97734523Y-104210212D01*
X96591666Y-104248307D02*
X96591666Y-104781640D01*
X96782142Y-103943545D02*
X96972619Y-104514974D01*
X96477380Y-104514974D01*
X98877380Y-98932894D02*
X98953571Y-98894798D01*
X99067857Y-98894798D01*
X99182142Y-98932894D01*
X99258333Y-99009084D01*
X99296428Y-99085274D01*
X99334523Y-99237655D01*
X99334523Y-99351941D01*
X99296428Y-99504322D01*
X99258333Y-99580513D01*
X99182142Y-99656703D01*
X99067857Y-99694798D01*
X98991666Y-99694798D01*
X98877380Y-99656703D01*
X98839285Y-99618608D01*
X98839285Y-99351941D01*
X98991666Y-99351941D01*
X98496428Y-99694798D02*
X98496428Y-98894798D01*
X98191666Y-98894798D01*
X98115476Y-98932894D01*
X98077380Y-98970989D01*
X98039285Y-99047179D01*
X98039285Y-99161465D01*
X98077380Y-99237655D01*
X98115476Y-99275751D01*
X98191666Y-99313846D01*
X98496428Y-99313846D01*
X97277380Y-99694798D02*
X97734523Y-99694798D01*
X97505952Y-99694798D02*
X97505952Y-98894798D01*
X97582142Y-99009084D01*
X97658333Y-99085274D01*
X97734523Y-99123370D01*
X97010714Y-98894798D02*
X96515476Y-98894798D01*
X96782142Y-99199560D01*
X96667857Y-99199560D01*
X96591666Y-99237655D01*
X96553571Y-99275751D01*
X96515476Y-99351941D01*
X96515476Y-99542417D01*
X96553571Y-99618608D01*
X96591666Y-99656703D01*
X96667857Y-99694798D01*
X96896428Y-99694798D01*
X96972619Y-99656703D01*
X97010714Y-99618608D01*
X110252380Y-78636840D02*
X110328571Y-78598744D01*
X110442857Y-78598744D01*
X110557142Y-78636840D01*
X110633333Y-78713030D01*
X110671428Y-78789220D01*
X110709523Y-78941601D01*
X110709523Y-79055887D01*
X110671428Y-79208268D01*
X110633333Y-79284459D01*
X110557142Y-79360649D01*
X110442857Y-79398744D01*
X110366666Y-79398744D01*
X110252380Y-79360649D01*
X110214285Y-79322554D01*
X110214285Y-79055887D01*
X110366666Y-79055887D01*
X109871428Y-79398744D02*
X109871428Y-78598744D01*
X109566666Y-78598744D01*
X109490476Y-78636840D01*
X109452380Y-78674935D01*
X109414285Y-78751125D01*
X109414285Y-78865411D01*
X109452380Y-78941601D01*
X109490476Y-78979697D01*
X109566666Y-79017792D01*
X109871428Y-79017792D01*
X109109523Y-78674935D02*
X109071428Y-78636840D01*
X108995238Y-78598744D01*
X108804761Y-78598744D01*
X108728571Y-78636840D01*
X108690476Y-78674935D01*
X108652380Y-78751125D01*
X108652380Y-78827316D01*
X108690476Y-78941601D01*
X109147619Y-79398744D01*
X108652380Y-79398744D01*
X108385714Y-78598744D02*
X107852380Y-78598744D01*
X108195238Y-79398744D01*
X100338095Y-59504761D02*
X101138095Y-59504761D01*
X101138095Y-59314285D01*
X101100000Y-59200000D01*
X101023809Y-59123809D01*
X100947619Y-59085714D01*
X100795238Y-59047619D01*
X100680952Y-59047619D01*
X100528571Y-59085714D01*
X100452380Y-59123809D01*
X100376190Y-59200000D01*
X100338095Y-59314285D01*
X100338095Y-59504761D01*
X100642857Y-58704761D02*
X100642857Y-58095238D01*
X100338095Y-58400000D02*
X100947619Y-58400000D01*
M02*
