%TF.GenerationSoftware,KiCad,Pcbnew,(6.0.7-1)-1*%
%TF.CreationDate,2022-09-30T15:54:31+08:00*%
%TF.ProjectId,PicoBoot,5069636f-426f-46f7-942e-6b696361645f,REV1*%
%TF.SameCoordinates,Original*%
%TF.FileFunction,Copper,L2,Bot*%
%TF.FilePolarity,Positive*%
%FSLAX46Y46*%
G04 Gerber Fmt 4.6, Leading zero omitted, Abs format (unit mm)*
G04 Created by KiCad (PCBNEW (6.0.7-1)-1) date 2022-09-30 15:54:31*
%MOMM*%
%LPD*%
G01*
G04 APERTURE LIST*
G04 Aperture macros list*
%AMRoundRect*
0 Rectangle with rounded corners*
0 $1 Rounding radius*
0 $2 $3 $4 $5 $6 $7 $8 $9 X,Y pos of 4 corners*
0 Add a 4 corners polygon primitive as box body*
4,1,4,$2,$3,$4,$5,$6,$7,$8,$9,$2,$3,0*
0 Add four circle primitives for the rounded corners*
1,1,$1+$1,$2,$3*
1,1,$1+$1,$4,$5*
1,1,$1+$1,$6,$7*
1,1,$1+$1,$8,$9*
0 Add four rect primitives between the rounded corners*
20,1,$1+$1,$2,$3,$4,$5,0*
20,1,$1+$1,$4,$5,$6,$7,0*
20,1,$1+$1,$6,$7,$8,$9,0*
20,1,$1+$1,$8,$9,$2,$3,0*%
G04 Aperture macros list end*
%TA.AperFunction,EtchedComponent*%
%ADD10C,0.100000*%
%TD*%
%TA.AperFunction,ComponentPad*%
%ADD11O,1.700000X1.700000*%
%TD*%
%TA.AperFunction,ComponentPad*%
%ADD12RoundRect,0.425000X0.425000X-0.425000X0.425000X0.425000X-0.425000X0.425000X-0.425000X-0.425000X0*%
%TD*%
%TA.AperFunction,ComponentPad*%
%ADD13O,1.000000X2.100000*%
%TD*%
%TA.AperFunction,ComponentPad*%
%ADD14O,1.000000X1.600000*%
%TD*%
%TA.AperFunction,ComponentPad*%
%ADD15C,0.600000*%
%TD*%
%TA.AperFunction,ComponentPad*%
%ADD16R,1.700000X3.500000*%
%TD*%
%TA.AperFunction,ComponentPad*%
%ADD17R,3.500000X1.700000*%
%TD*%
%TA.AperFunction,ComponentPad*%
%ADD18R,1.700000X1.700000*%
%TD*%
%TA.AperFunction,ComponentPad*%
%ADD19C,1.700000*%
%TD*%
%TA.AperFunction,SMDPad,CuDef*%
%ADD20R,2.000000X2.000000*%
%TD*%
%TA.AperFunction,SMDPad,CuDef*%
%ADD21C,0.500000*%
%TD*%
%TA.AperFunction,ViaPad*%
%ADD22C,0.600000*%
%TD*%
%TA.AperFunction,ViaPad*%
%ADD23C,0.400000*%
%TD*%
%TA.AperFunction,ViaPad*%
%ADD24C,0.800000*%
%TD*%
%TA.AperFunction,Conductor*%
%ADD25C,0.400000*%
%TD*%
%TA.AperFunction,Conductor*%
%ADD26C,0.150000*%
%TD*%
%TA.AperFunction,Conductor*%
%ADD27C,0.300000*%
%TD*%
%TA.AperFunction,Conductor*%
%ADD28C,1.000000*%
%TD*%
G04 APERTURE END LIST*
%TO.C,NT1*%
G36*
X110100000Y-79250000D02*
G01*
X109100000Y-79250000D01*
X109100000Y-78750000D01*
X110100000Y-78750000D01*
X110100000Y-79250000D01*
G37*
D10*
X110100000Y-79250000D02*
X109100000Y-79250000D01*
X109100000Y-78750000D01*
X110100000Y-78750000D01*
X110100000Y-79250000D01*
%TD*%
D11*
%TO.P,J5,1,Pin_1*%
%TO.N,/SWCLK*%
X101100000Y-106900000D03*
D12*
%TO.P,J5,2,Pin_2*%
%TO.N,GND*%
X103640000Y-106900000D03*
D11*
%TO.P,J5,3,Pin_3*%
%TO.N,/SWD*%
X106180000Y-106900000D03*
%TD*%
D13*
%TO.P,USB1,13,SHIELD*%
%TO.N,Net-(C101-Pad2)*%
X107970000Y-64005000D03*
D14*
X99330000Y-59825000D03*
X107970000Y-59825000D03*
D13*
X99330000Y-64005000D03*
%TD*%
D15*
%TO.P,U3,57,GND*%
%TO.N,GND*%
X102975000Y-89937500D03*
X104250000Y-88662500D03*
X102975000Y-91212500D03*
X104250000Y-91212500D03*
X102975000Y-88662500D03*
X105525000Y-91212500D03*
X104250000Y-89937500D03*
X105525000Y-88662500D03*
X105525000Y-89937500D03*
%TD*%
D16*
%TO.P,,1,Pin_1*%
%TO.N,/SWCLK*%
X101100000Y-108550000D03*
%TD*%
%TO.P,,1,Pin_1*%
%TO.N,GND*%
X103650000Y-108650000D03*
%TD*%
%TO.P,,1,Pin_1*%
%TO.N,/SWD*%
X106200000Y-108625000D03*
%TD*%
D17*
%TO.P,J4,1,Pin_1*%
%TO.N,VBUS*%
X113970000Y-58700000D03*
D11*
X112270000Y-58700000D03*
D17*
%TO.P,J4,2,Pin_2*%
%TO.N,VSYS*%
X113970000Y-61240000D03*
D11*
X112270000Y-61240000D03*
D18*
%TO.P,J4,3,Pin_3*%
%TO.N,GND*%
X112270000Y-63780000D03*
D17*
X113970000Y-63780000D03*
%TO.P,J4,4,Pin_4*%
%TO.N,3V3_EN*%
X113970000Y-66320000D03*
D11*
X112270000Y-66320000D03*
%TO.P,J4,5,Pin_5*%
%TO.N,+3V3*%
X112270000Y-68860000D03*
D17*
X113970000Y-68860000D03*
D11*
%TO.P,J4,6,Pin_6*%
%TO.N,/ADC_VREF*%
X112270000Y-71400000D03*
D17*
X113970000Y-71400000D03*
D11*
%TO.P,J4,7,Pin_7*%
%TO.N,/GPIO28_ADC2*%
X112270000Y-73940000D03*
D17*
X113970000Y-73940000D03*
D18*
%TO.P,J4,8,Pin_8*%
%TO.N,AGND*%
X112270000Y-76480000D03*
D17*
X113970000Y-76480000D03*
%TO.P,J4,9,Pin_9*%
%TO.N,/GPIO27_ADC1*%
X113970000Y-79020000D03*
D11*
X112270000Y-79020000D03*
%TO.P,J4,10,Pin_10*%
%TO.N,/GPIO26_ADC0*%
X112270000Y-81560000D03*
D17*
X113970000Y-81560000D03*
D11*
%TO.P,J4,11,Pin_11*%
%TO.N,/RUN*%
X112270000Y-84100000D03*
D17*
X113970000Y-84100000D03*
%TO.P,J4,12,Pin_12*%
%TO.N,/GPIO22*%
X113970000Y-86640000D03*
D11*
X112270000Y-86640000D03*
D18*
%TO.P,J4,13,Pin_13*%
%TO.N,GND*%
X112270000Y-89180000D03*
D17*
X113970000Y-89180000D03*
D11*
%TO.P,J4,14,Pin_14*%
%TO.N,/GPIO21*%
X112270000Y-91720000D03*
D17*
X113970000Y-91720000D03*
D11*
%TO.P,J4,15,Pin_15*%
%TO.N,/GPIO20*%
X112270000Y-94260000D03*
D17*
X113970000Y-94260000D03*
D11*
%TO.P,J4,16,Pin_16*%
%TO.N,/GPIO19*%
X112270000Y-96800000D03*
D17*
X113970000Y-96800000D03*
%TO.P,J4,17,Pin_17*%
%TO.N,/GPIO18*%
X113970000Y-99340000D03*
D11*
X112270000Y-99340000D03*
D18*
%TO.P,J4,18,Pin_18*%
%TO.N,GND*%
X112270000Y-101880000D03*
D17*
X113970000Y-101880000D03*
%TO.P,J4,19,Pin_19*%
%TO.N,/GPIO17*%
X113970000Y-104420000D03*
D11*
X112270000Y-104420000D03*
D17*
%TO.P,J4,20,Pin_20*%
%TO.N,/GPIO16*%
X113970000Y-106960000D03*
D11*
X112270000Y-106960000D03*
%TD*%
D19*
%TO.P,J3,1,Pin_1*%
%TO.N,/GPIO15*%
X94950000Y-106900000D03*
D17*
X93250000Y-106900000D03*
D11*
%TO.P,J3,2,Pin_2*%
%TO.N,/GPIO14*%
X94950000Y-104360000D03*
D17*
X93250000Y-104360000D03*
%TO.P,J3,3,Pin_3*%
%TO.N,GND*%
X93250000Y-101820000D03*
D18*
X94950000Y-101820000D03*
D11*
%TO.P,J3,4,Pin_4*%
%TO.N,/GPIO13*%
X94950000Y-99280000D03*
D17*
X93250000Y-99280000D03*
D11*
%TO.P,J3,5,Pin_5*%
%TO.N,/GPIO12*%
X94950000Y-96740000D03*
D17*
X93250000Y-96740000D03*
D11*
%TO.P,J3,6,Pin_6*%
%TO.N,/GPIO11*%
X94950000Y-94200000D03*
D17*
X93250000Y-94200000D03*
D11*
%TO.P,J3,7,Pin_7*%
%TO.N,/GPIO10*%
X94950000Y-91660000D03*
D17*
X93240000Y-91660000D03*
%TO.P,J3,8,Pin_8*%
%TO.N,GND*%
X93250000Y-89120000D03*
D18*
X94950000Y-89120000D03*
D11*
%TO.P,J3,9,Pin_9*%
%TO.N,/GPIO9*%
X94950000Y-86580000D03*
D17*
X93250000Y-86580000D03*
D11*
%TO.P,J3,10,Pin_10*%
%TO.N,/GPIO8*%
X94950000Y-84040000D03*
D17*
X93250000Y-84040000D03*
%TO.P,J3,11,Pin_11*%
%TO.N,/GPIO7*%
X93250000Y-81500000D03*
D11*
X94950000Y-81500000D03*
%TO.P,J3,12,Pin_12*%
%TO.N,/GPIO6*%
X94950000Y-78960000D03*
D17*
X93260000Y-78960000D03*
%TO.P,J3,13,Pin_13*%
%TO.N,GND*%
X93250000Y-76420000D03*
D18*
X94950000Y-76420000D03*
D17*
%TO.P,J3,14,Pin_14*%
%TO.N,/GPIO5*%
X93250000Y-73880000D03*
D11*
X94950000Y-73880000D03*
D17*
%TO.P,J3,15,Pin_15*%
%TO.N,/GPIO4*%
X93250000Y-71340000D03*
D11*
X94950000Y-71340000D03*
%TO.P,J3,16,Pin_16*%
%TO.N,/GPIO3*%
X94950000Y-68800000D03*
D17*
X93250000Y-68800000D03*
D11*
%TO.P,J3,17,Pin_17*%
%TO.N,/GPIO2*%
X94950000Y-66260000D03*
D17*
X93250000Y-66250000D03*
D18*
%TO.P,J3,18,Pin_18*%
%TO.N,GND*%
X94950000Y-63720000D03*
D17*
X93250000Y-63720000D03*
D11*
%TO.P,J3,19,Pin_19*%
%TO.N,/GPIO1*%
X94950000Y-61180000D03*
D17*
X93250000Y-61170000D03*
%TO.P,J3,20,Pin_20*%
%TO.N,/GPIO0*%
X93250000Y-58640000D03*
D11*
X94950000Y-58640000D03*
%TD*%
D20*
%TO.P,TP1\u002CTP2,1,1*%
%TO.N,USB_D+*%
X102400000Y-58625000D03*
%TD*%
%TO.P,TP2,1,1*%
%TO.N,USB_D-*%
X104900000Y-58625000D03*
%TD*%
D21*
%TO.P,NT1,1,1*%
%TO.N,GND*%
X109100000Y-79000000D03*
%TO.P,NT1,2,2*%
%TO.N,AGND*%
X110100000Y-79000000D03*
%TD*%
D22*
%TO.N,VBUS*%
X105600000Y-62800000D03*
X101600000Y-66330000D03*
%TO.N,+1V1*%
X104900000Y-92000000D03*
X106778059Y-85378059D03*
X105600000Y-87600000D03*
X104848800Y-95050900D03*
X104200000Y-85300000D03*
D23*
%TO.N,/GPIO7*%
X98813453Y-90468057D03*
%TO.N,/GPIO6*%
X98800000Y-89800000D03*
%TO.N,/GPIO5*%
X98842439Y-89076816D03*
%TO.N,/GPIO4*%
X97800000Y-86200000D03*
%TO.N,/GPIO3*%
X98250000Y-87050000D03*
%TO.N,/GPIO2*%
X99250000Y-87800000D03*
%TO.N,/GPIO1*%
X99200000Y-87000000D03*
%TO.N,/GPIO0*%
X99850000Y-87100000D03*
D22*
%TO.N,/GPIO25*%
X101250000Y-69975000D03*
D23*
X109300000Y-89500000D03*
%TO.N,/RUN*%
X107300000Y-95850000D03*
%TO.N,3V3_EN*%
X106800000Y-71000000D03*
X106200000Y-68000000D03*
%TO.N,USB_D+*%
X102900000Y-63800000D03*
%TO.N,USB_D-*%
X104400000Y-63550000D03*
D24*
%TO.N,+3V3*%
X104000000Y-77200000D03*
D23*
X106600000Y-91400000D03*
D24*
X108800000Y-77400000D03*
D23*
X108800000Y-91000000D03*
X99633750Y-91033750D03*
X101700000Y-91000000D03*
%TO.N,/GPIO24*%
X108700000Y-90000000D03*
X101750000Y-68600000D03*
%TO.N,GND*%
X96700000Y-100900000D03*
X110775000Y-100400000D03*
X100200000Y-97000000D03*
X98800000Y-98800000D03*
X96600000Y-95300000D03*
X104700000Y-101200000D03*
X108380000Y-73800000D03*
X104300000Y-96600000D03*
X107400000Y-76400000D03*
X98900000Y-101000000D03*
X100900000Y-85800000D03*
X102100000Y-81600000D03*
D24*
X101400000Y-77300000D03*
D23*
X102200000Y-79400000D03*
X100900000Y-80600000D03*
X98000000Y-94925000D03*
X99500000Y-102100000D03*
X110000000Y-86600000D03*
X105000000Y-97500000D03*
X106800000Y-75600000D03*
X101850000Y-96200000D03*
X109670000Y-74520000D03*
X110575000Y-93475000D03*
X107000000Y-79200000D03*
X107400000Y-103350000D03*
X101000000Y-79400000D03*
X108420000Y-71220000D03*
X108500000Y-83800000D03*
X101000000Y-78400000D03*
X109000000Y-83500000D03*
X108380000Y-74530000D03*
X108400000Y-66400000D03*
X99600000Y-95300000D03*
X108380000Y-72470000D03*
X108970000Y-74530000D03*
X109900000Y-93300000D03*
X97200000Y-97600000D03*
X102700000Y-83900000D03*
X101200000Y-102300000D03*
X102200000Y-80500000D03*
D24*
X102200000Y-74200000D03*
D23*
X96100000Y-84900000D03*
X102200000Y-78500000D03*
X104000000Y-100500000D03*
X102100000Y-83900000D03*
X100900000Y-81600000D03*
X98275000Y-95975000D03*
X107800000Y-93300000D03*
X108400000Y-69200000D03*
X110000000Y-89600000D03*
X97800000Y-90700000D03*
X96200000Y-89400000D03*
D24*
X102600000Y-77300000D03*
D23*
X109800000Y-96350000D03*
X103600000Y-102200000D03*
X108400000Y-68600000D03*
X100200000Y-84500000D03*
X108850000Y-95300000D03*
X100600000Y-93400000D03*
X96300000Y-90400000D03*
X104950000Y-99150000D03*
D24*
X101700000Y-73200000D03*
D23*
X106450000Y-98750000D03*
X99400000Y-93700000D03*
X106350000Y-95600000D03*
X108380000Y-73170000D03*
%TD*%
D25*
%TO.N,VBUS*%
X105600000Y-63400000D02*
X105600000Y-62800000D01*
X102670000Y-66330000D02*
X105600000Y-63400000D01*
X101600000Y-66330000D02*
X102670000Y-66330000D01*
%TO.N,+1V1*%
X104900000Y-92000000D02*
X104900000Y-94999700D01*
X105600000Y-87600000D02*
X105600000Y-86556118D01*
X105600000Y-86700000D02*
X104200000Y-85300000D01*
X105600000Y-86556118D02*
X106778059Y-85378059D01*
X105600000Y-87600000D02*
X105600000Y-86700000D01*
X104900000Y-94999700D02*
X104848800Y-95050900D01*
D26*
%TO.N,/GPIO7*%
X96700000Y-88354604D02*
X96700000Y-83250000D01*
X96700000Y-83250000D02*
X94950000Y-81500000D01*
X98813453Y-90468057D02*
X96700000Y-88354604D01*
%TO.N,/GPIO6*%
X97000000Y-81010000D02*
X94950000Y-78960000D01*
X98800000Y-89800000D02*
X97000000Y-88000000D01*
X97000000Y-88000000D02*
X97000000Y-81010000D01*
%TO.N,/GPIO5*%
X97362723Y-75512723D02*
X95730000Y-73880000D01*
X95730000Y-73880000D02*
X94950000Y-73880000D01*
X98842439Y-89076816D02*
X97362723Y-87597100D01*
X97362723Y-87597100D02*
X97362723Y-75512723D01*
%TO.N,/GPIO4*%
X97800000Y-86200000D02*
X97800000Y-73500000D01*
X95640000Y-71340000D02*
X94950000Y-71340000D01*
X97800000Y-73500000D02*
X95640000Y-71340000D01*
%TO.N,/GPIO3*%
X98250000Y-71540000D02*
X95510000Y-68800000D01*
X98250000Y-87050000D02*
X98250000Y-71540000D01*
X95510000Y-68800000D02*
X94950000Y-68800000D01*
%TO.N,/GPIO2*%
X98689663Y-87239663D02*
X98695000Y-87234326D01*
X98695000Y-87234326D02*
X98695000Y-70295000D01*
X99250000Y-87800000D02*
X98689663Y-87239663D01*
X94950000Y-66550000D02*
X94950000Y-66260000D01*
X98695000Y-70295000D02*
X94950000Y-66550000D01*
%TO.N,/GPIO1*%
X97500000Y-65200000D02*
X97500000Y-63270000D01*
X95410000Y-61180000D02*
X94950000Y-61180000D01*
X99100000Y-66800000D02*
X97500000Y-65200000D01*
X99200000Y-87000000D02*
X99100000Y-86900000D01*
X99100000Y-86900000D02*
X99100000Y-66800000D01*
X97500000Y-63270000D02*
X95410000Y-61180000D01*
%TO.N,/GPIO0*%
X95170000Y-58640000D02*
X94950000Y-58640000D01*
X99850000Y-87100000D02*
X99850000Y-87020674D01*
X99500000Y-86670674D02*
X99500000Y-66400000D01*
X98100000Y-61570000D02*
X95170000Y-58640000D01*
X99500000Y-66400000D02*
X98100000Y-65000000D01*
X98100000Y-65000000D02*
X98100000Y-61570000D01*
X99850000Y-87020674D02*
X99500000Y-86670674D01*
%TO.N,/GPIO25*%
X105600000Y-82700000D02*
X109300000Y-86400000D01*
X101250000Y-69975000D02*
X100300000Y-70925000D01*
X100300000Y-82000000D02*
X101000000Y-82700000D01*
X100300000Y-70925000D02*
X100300000Y-82000000D01*
X109300000Y-86400000D02*
X109300000Y-89500000D01*
X101000000Y-82700000D02*
X105600000Y-82700000D01*
%TO.N,/RUN*%
X110500000Y-91600000D02*
X110500000Y-85600000D01*
X110500000Y-85600000D02*
X112000000Y-84100000D01*
X107300000Y-94800000D02*
X110500000Y-91600000D01*
X112000000Y-84100000D02*
X113970000Y-84100000D01*
X107300000Y-95850000D02*
X107300000Y-94800000D01*
%TO.N,3V3_EN*%
X110590000Y-68000000D02*
X106200000Y-68000000D01*
X112270000Y-66320000D02*
X110590000Y-68000000D01*
X106200000Y-68000000D02*
X106200000Y-70400000D01*
X106200000Y-70400000D02*
X106800000Y-71000000D01*
D27*
%TO.N,USB_D+*%
X102900000Y-63800000D02*
X102900000Y-59125000D01*
X102900000Y-59125000D02*
X102400000Y-58625000D01*
%TO.N,USB_D-*%
X104400000Y-63550000D02*
X104400000Y-59125000D01*
X104400000Y-59125000D02*
X104900000Y-58625000D01*
D28*
%TO.N,+3V3*%
X104000000Y-77200000D02*
X104200000Y-77400000D01*
D25*
X99633750Y-91033750D02*
X101666250Y-91033750D01*
X108400000Y-91400000D02*
X106600000Y-91400000D01*
D28*
X104200000Y-77400000D02*
X108800000Y-77400000D01*
D25*
X108800000Y-91000000D02*
X108400000Y-91400000D01*
X101666250Y-91033750D02*
X101700000Y-91000000D01*
D26*
%TO.N,/GPIO24*%
X100800000Y-83100000D02*
X99900000Y-82200000D01*
X105308262Y-83100000D02*
X100800000Y-83100000D01*
X108700000Y-90000000D02*
X108700000Y-86491738D01*
X99900000Y-82200000D02*
X99900000Y-70450000D01*
X108700000Y-86491738D02*
X105308262Y-83100000D01*
X99900000Y-70450000D02*
X101750000Y-68600000D01*
D25*
%TO.N,GND*%
X107800000Y-93100000D02*
X107800000Y-93300000D01*
X109900000Y-89700000D02*
X109900000Y-91000000D01*
X109900000Y-91000000D02*
X107800000Y-93100000D01*
X110000000Y-89600000D02*
X109900000Y-89700000D01*
%TD*%
%TA.AperFunction,Conductor*%
%TO.N,GND*%
G36*
X101092620Y-57495185D02*
G01*
X101138375Y-57547989D01*
X101147108Y-57600326D01*
X101149500Y-57600326D01*
X101149500Y-59649674D01*
X101164034Y-59722740D01*
X101170820Y-59732896D01*
X101206280Y-59785966D01*
X101219399Y-59805601D01*
X101302260Y-59860966D01*
X101336313Y-59867740D01*
X101369347Y-59874311D01*
X101369350Y-59874311D01*
X101375326Y-59875500D01*
X102375500Y-59875500D01*
X102442539Y-59895185D01*
X102488294Y-59947989D01*
X102499500Y-59999500D01*
X102499500Y-63565264D01*
X102487745Y-63617962D01*
X102468508Y-63658935D01*
X102468507Y-63658938D01*
X102464754Y-63666932D01*
X102463395Y-63675661D01*
X102449449Y-63765233D01*
X102444901Y-63794440D01*
X102461633Y-63922394D01*
X102465192Y-63930482D01*
X102465192Y-63930483D01*
X102495751Y-63999933D01*
X102513605Y-64040510D01*
X102596639Y-64139291D01*
X102603990Y-64144184D01*
X102603992Y-64144186D01*
X102619939Y-64154801D01*
X102704060Y-64210796D01*
X102712488Y-64213429D01*
X102712490Y-64213430D01*
X102760281Y-64228361D01*
X102827233Y-64249278D01*
X102836067Y-64249440D01*
X102872777Y-64250113D01*
X102956255Y-64251643D01*
X102964771Y-64249321D01*
X102964773Y-64249321D01*
X103072236Y-64220023D01*
X103072239Y-64220022D01*
X103080755Y-64217700D01*
X103190724Y-64150179D01*
X103221856Y-64115785D01*
X103281436Y-64079294D01*
X103313786Y-64075000D01*
X103988535Y-64075000D01*
X104055574Y-64094685D01*
X104101329Y-64147489D01*
X104111273Y-64216647D01*
X104082248Y-64280203D01*
X104076216Y-64286681D01*
X102519716Y-65843181D01*
X102458393Y-65876666D01*
X102432035Y-65879500D01*
X101959285Y-65879500D01*
X101892246Y-65859815D01*
X101884215Y-65854168D01*
X101884069Y-65854084D01*
X101877625Y-65849139D01*
X101841593Y-65834214D01*
X101751223Y-65796782D01*
X101751221Y-65796781D01*
X101743709Y-65793670D01*
X101600000Y-65774750D01*
X101456291Y-65793670D01*
X101448779Y-65796781D01*
X101448777Y-65796782D01*
X101358407Y-65834214D01*
X101322375Y-65849139D01*
X101207379Y-65937379D01*
X101119139Y-66052375D01*
X101063670Y-66186291D01*
X101044750Y-66330000D01*
X101063670Y-66473709D01*
X101066781Y-66481221D01*
X101066782Y-66481223D01*
X101084247Y-66523387D01*
X101119139Y-66607625D01*
X101124086Y-66614072D01*
X101193533Y-66704576D01*
X101207379Y-66722621D01*
X101213822Y-66727565D01*
X101257428Y-66761025D01*
X101322375Y-66810861D01*
X101329887Y-66813972D01*
X101329886Y-66813972D01*
X101448777Y-66863218D01*
X101448779Y-66863219D01*
X101456291Y-66866330D01*
X101600000Y-66885250D01*
X101743709Y-66866330D01*
X101751221Y-66863219D01*
X101751223Y-66863218D01*
X101870114Y-66813972D01*
X101870113Y-66813972D01*
X101877625Y-66810861D01*
X101884072Y-66805914D01*
X101891115Y-66801848D01*
X101891799Y-66803032D01*
X101948964Y-66780930D01*
X101959285Y-66780500D01*
X102635897Y-66780500D01*
X102650471Y-66781359D01*
X102675105Y-66784275D01*
X102675108Y-66784275D01*
X102684310Y-66785364D01*
X102720974Y-66778668D01*
X102742022Y-66774824D01*
X102745864Y-66774184D01*
X102779017Y-66769199D01*
X102803962Y-66765449D01*
X102810475Y-66762321D01*
X102817573Y-66761025D01*
X102827366Y-66755938D01*
X102869663Y-66733967D01*
X102873146Y-66732227D01*
X102926079Y-66706809D01*
X102931299Y-66701984D01*
X102931520Y-66701835D01*
X102937788Y-66698579D01*
X102942828Y-66694275D01*
X102980097Y-66657006D01*
X102983607Y-66653631D01*
X103018749Y-66621147D01*
X103018751Y-66621144D01*
X103025556Y-66614854D01*
X103029237Y-66608516D01*
X103034828Y-66602275D01*
X105865494Y-63771609D01*
X105926817Y-63738124D01*
X105996509Y-63743108D01*
X106051550Y-63783803D01*
X106124601Y-63879004D01*
X106124605Y-63879008D01*
X106129549Y-63885451D01*
X106135992Y-63890395D01*
X106224217Y-63958093D01*
X106249767Y-63977698D01*
X106303447Y-63999933D01*
X106382255Y-64032577D01*
X106382257Y-64032578D01*
X106389764Y-64035687D01*
X106397823Y-64036748D01*
X106498260Y-64049971D01*
X106498264Y-64049971D01*
X106502280Y-64050500D01*
X106577720Y-64050500D01*
X106581736Y-64049971D01*
X106581740Y-64049971D01*
X106682177Y-64036748D01*
X106690236Y-64035687D01*
X106697743Y-64032578D01*
X106697745Y-64032577D01*
X106776553Y-63999933D01*
X106830233Y-63977698D01*
X106855783Y-63958093D01*
X106944008Y-63890395D01*
X106950451Y-63885451D01*
X106958318Y-63875199D01*
X106997124Y-63824626D01*
X107053552Y-63783424D01*
X107123298Y-63779269D01*
X107184219Y-63813482D01*
X107216971Y-63875199D01*
X107219500Y-63900113D01*
X107219500Y-64598822D01*
X107234657Y-64728828D01*
X107294369Y-64893331D01*
X107390323Y-65039685D01*
X107395551Y-65044637D01*
X107395553Y-65044640D01*
X107512143Y-65155087D01*
X107512145Y-65155089D01*
X107517372Y-65160040D01*
X107523597Y-65163656D01*
X107523600Y-65163658D01*
X107619740Y-65219500D01*
X107668702Y-65247939D01*
X107836193Y-65298667D01*
X107894110Y-65302260D01*
X108003668Y-65309057D01*
X108003671Y-65309057D01*
X108010862Y-65309503D01*
X108183340Y-65279866D01*
X108344373Y-65211346D01*
X108350173Y-65207078D01*
X108479521Y-65111888D01*
X108479523Y-65111886D01*
X108485324Y-65107617D01*
X108548159Y-65033656D01*
X108593965Y-64979739D01*
X108593967Y-64979736D01*
X108598632Y-64974245D01*
X108678219Y-64818384D01*
X108719815Y-64648394D01*
X108720322Y-64640230D01*
X108720382Y-64639256D01*
X108720382Y-64639252D01*
X108720500Y-64637352D01*
X108720500Y-63411178D01*
X108705343Y-63281172D01*
X108697044Y-63258307D01*
X108648090Y-63123443D01*
X108648089Y-63123442D01*
X108645631Y-63116669D01*
X108549677Y-62970315D01*
X108544449Y-62965363D01*
X108544447Y-62965360D01*
X108427857Y-62854913D01*
X108427855Y-62854911D01*
X108422628Y-62849960D01*
X108416403Y-62846344D01*
X108416400Y-62846342D01*
X108277525Y-62765678D01*
X108277526Y-62765678D01*
X108271298Y-62762061D01*
X108103807Y-62711333D01*
X108037668Y-62707230D01*
X107936332Y-62700943D01*
X107936329Y-62700943D01*
X107929138Y-62700497D01*
X107756660Y-62730134D01*
X107595627Y-62798654D01*
X107589829Y-62802921D01*
X107589827Y-62802922D01*
X107460479Y-62898112D01*
X107460477Y-62898114D01*
X107454676Y-62902383D01*
X107450011Y-62907874D01*
X107450010Y-62907875D01*
X107346035Y-63030261D01*
X107346033Y-63030264D01*
X107341368Y-63035755D01*
X107338091Y-63042172D01*
X107338090Y-63042174D01*
X107328731Y-63060503D01*
X107263990Y-63187290D01*
X107215972Y-63238043D01*
X107148136Y-63254780D01*
X107082021Y-63232184D01*
X107046168Y-63192897D01*
X107045806Y-63192269D01*
X107042698Y-63184767D01*
X106950451Y-63064549D01*
X106921292Y-63042174D01*
X106836680Y-62977249D01*
X106830233Y-62972302D01*
X106697747Y-62917424D01*
X106697743Y-62917422D01*
X106690236Y-62914313D01*
X106682177Y-62913252D01*
X106581740Y-62900029D01*
X106581736Y-62900029D01*
X106577720Y-62899500D01*
X106502280Y-62899500D01*
X106498264Y-62900029D01*
X106498260Y-62900029D01*
X106397823Y-62913252D01*
X106389764Y-62914313D01*
X106382256Y-62917423D01*
X106382252Y-62917424D01*
X106324231Y-62941457D01*
X106254762Y-62948926D01*
X106192283Y-62917651D01*
X106156631Y-62857562D01*
X106153840Y-62810711D01*
X106154189Y-62808060D01*
X106154189Y-62808059D01*
X106155250Y-62800000D01*
X106136330Y-62656291D01*
X106080861Y-62522375D01*
X105992621Y-62407379D01*
X105877625Y-62319139D01*
X105809985Y-62291122D01*
X105751223Y-62266782D01*
X105751221Y-62266781D01*
X105743709Y-62263670D01*
X105600000Y-62244750D01*
X105456291Y-62263670D01*
X105448779Y-62266781D01*
X105448777Y-62266782D01*
X105390015Y-62291122D01*
X105322375Y-62319139D01*
X105207379Y-62407379D01*
X105119139Y-62522375D01*
X105063670Y-62656291D01*
X105054109Y-62728913D01*
X105047439Y-62779575D01*
X105040033Y-62796317D01*
X105043477Y-62801676D01*
X105047439Y-62820425D01*
X105063670Y-62943709D01*
X105066781Y-62951221D01*
X105066782Y-62951223D01*
X105099325Y-63029789D01*
X105119139Y-63077625D01*
X105124086Y-63084072D01*
X105128152Y-63091115D01*
X105126968Y-63091799D01*
X105149070Y-63148964D01*
X105149500Y-63159285D01*
X105149500Y-63162035D01*
X105129815Y-63229074D01*
X105113181Y-63249716D01*
X105012181Y-63350716D01*
X104950858Y-63384201D01*
X104881166Y-63379217D01*
X104825233Y-63337345D01*
X104800816Y-63271881D01*
X104800500Y-63263035D01*
X104800500Y-62836611D01*
X104810858Y-62801336D01*
X104801981Y-62782495D01*
X104800500Y-62763389D01*
X104800500Y-59999500D01*
X104820185Y-59932461D01*
X104872989Y-59886706D01*
X104924500Y-59875500D01*
X105924674Y-59875500D01*
X105930650Y-59874311D01*
X105930653Y-59874311D01*
X105963687Y-59867740D01*
X105997740Y-59860966D01*
X106080601Y-59805601D01*
X106093721Y-59785966D01*
X106129180Y-59732896D01*
X106135966Y-59722740D01*
X106150500Y-59649674D01*
X106150500Y-57600326D01*
X106153154Y-57600326D01*
X106164059Y-57542961D01*
X106212145Y-57492271D01*
X106274419Y-57475500D01*
X108489401Y-57475500D01*
X108556440Y-57495185D01*
X108604025Y-57552199D01*
X108615991Y-57581196D01*
X108624332Y-57612510D01*
X108638022Y-57717810D01*
X108639057Y-57734010D01*
X108637111Y-58835092D01*
X108617309Y-58902094D01*
X108564424Y-58947755D01*
X108495248Y-58957576D01*
X108434466Y-58928109D01*
X108433627Y-58929230D01*
X108427856Y-58924913D01*
X108422628Y-58919960D01*
X108416403Y-58916344D01*
X108416400Y-58916342D01*
X108277525Y-58835678D01*
X108277526Y-58835678D01*
X108271298Y-58832061D01*
X108103807Y-58781333D01*
X108037668Y-58777230D01*
X107936332Y-58770943D01*
X107936329Y-58770943D01*
X107929138Y-58770497D01*
X107756660Y-58800134D01*
X107595627Y-58868654D01*
X107589829Y-58872921D01*
X107589827Y-58872922D01*
X107460479Y-58968112D01*
X107460477Y-58968114D01*
X107454676Y-58972383D01*
X107450011Y-58977874D01*
X107450010Y-58977875D01*
X107346035Y-59100261D01*
X107346033Y-59100264D01*
X107341368Y-59105755D01*
X107261781Y-59261616D01*
X107220185Y-59431606D01*
X107219500Y-59442648D01*
X107219500Y-60168822D01*
X107234657Y-60298828D01*
X107237113Y-60305595D01*
X107237114Y-60305598D01*
X107291910Y-60456557D01*
X107294369Y-60463331D01*
X107298322Y-60469360D01*
X107382642Y-60597969D01*
X107390323Y-60609685D01*
X107395551Y-60614637D01*
X107395553Y-60614640D01*
X107512143Y-60725087D01*
X107512145Y-60725089D01*
X107517372Y-60730040D01*
X107523597Y-60733656D01*
X107523600Y-60733658D01*
X107560626Y-60755164D01*
X107668702Y-60817939D01*
X107836193Y-60868667D01*
X107902332Y-60872770D01*
X108003668Y-60879057D01*
X108003671Y-60879057D01*
X108010862Y-60879503D01*
X108183340Y-60849866D01*
X108344373Y-60781346D01*
X108379951Y-60755164D01*
X108436118Y-60713829D01*
X108501780Y-60689948D01*
X108569929Y-60705357D01*
X108618929Y-60755164D01*
X108633615Y-60813919D01*
X108633501Y-60878282D01*
X108630000Y-62860000D01*
X112676343Y-62829248D01*
X113888031Y-62820039D01*
X113904299Y-62820986D01*
X114010069Y-62834162D01*
X114041538Y-62842381D01*
X114072298Y-62854917D01*
X114126951Y-62898447D01*
X114149500Y-62969747D01*
X114149500Y-64527436D01*
X114129815Y-64594475D01*
X114077011Y-64640230D01*
X114069908Y-64643211D01*
X114030684Y-64658250D01*
X113998487Y-64665866D01*
X113890553Y-64676524D01*
X113873989Y-64677046D01*
X112676558Y-64634609D01*
X111700000Y-64600000D01*
X111700000Y-65307974D01*
X111680315Y-65375013D01*
X111639400Y-65414541D01*
X111625255Y-65422956D01*
X111625252Y-65422958D01*
X111620371Y-65425862D01*
X111468305Y-65559220D01*
X111343089Y-65718057D01*
X111248914Y-65897053D01*
X111247229Y-65902479D01*
X111247228Y-65902482D01*
X111234392Y-65943822D01*
X111188937Y-66090213D01*
X111165164Y-66291069D01*
X111165535Y-66296731D01*
X111165535Y-66296735D01*
X111168024Y-66334706D01*
X111178392Y-66492894D01*
X111228178Y-66688928D01*
X111230552Y-66694078D01*
X111230554Y-66694083D01*
X111259070Y-66755938D01*
X111269260Y-66825061D01*
X111240462Y-66888720D01*
X111234141Y-66895533D01*
X110491493Y-67638181D01*
X110430170Y-67671666D01*
X110403812Y-67674500D01*
X106562822Y-67674500D01*
X106495378Y-67654555D01*
X106398317Y-67591644D01*
X106398314Y-67591643D01*
X106390906Y-67586841D01*
X106382446Y-67584311D01*
X106382444Y-67584310D01*
X106275736Y-67552397D01*
X106267273Y-67549866D01*
X106258440Y-67549812D01*
X106210027Y-67549516D01*
X106138231Y-67549078D01*
X106014155Y-67584539D01*
X105905019Y-67653399D01*
X105819596Y-67750122D01*
X105764754Y-67866932D01*
X105763396Y-67875656D01*
X105763395Y-67875658D01*
X105748767Y-67969611D01*
X105744901Y-67994440D01*
X105761633Y-68122394D01*
X105765192Y-68130482D01*
X105765192Y-68130483D01*
X105804629Y-68220110D01*
X105813605Y-68240510D01*
X105819288Y-68247270D01*
X105819290Y-68247274D01*
X105845419Y-68278358D01*
X105873489Y-68342341D01*
X105874500Y-68358147D01*
X105874500Y-70380373D01*
X105874028Y-70391181D01*
X105870736Y-70428807D01*
X105880517Y-70465310D01*
X105882855Y-70475857D01*
X105889412Y-70513045D01*
X105894838Y-70522442D01*
X105896096Y-70525900D01*
X105897639Y-70529209D01*
X105900446Y-70539684D01*
X105906667Y-70548568D01*
X105922106Y-70570617D01*
X105927920Y-70579743D01*
X105939885Y-70600467D01*
X105946806Y-70612455D01*
X105955116Y-70619428D01*
X105975744Y-70636737D01*
X105983719Y-70644045D01*
X106316717Y-70977043D01*
X106350202Y-71038366D01*
X106351989Y-71048645D01*
X106361633Y-71122394D01*
X106365192Y-71130482D01*
X106365192Y-71130483D01*
X106382674Y-71170213D01*
X106413605Y-71240510D01*
X106496639Y-71339291D01*
X106503990Y-71344184D01*
X106503992Y-71344186D01*
X106596709Y-71405903D01*
X106604060Y-71410796D01*
X106612488Y-71413429D01*
X106612490Y-71413430D01*
X106660281Y-71428361D01*
X106727233Y-71449278D01*
X106736067Y-71449440D01*
X106772777Y-71450113D01*
X106856255Y-71451643D01*
X106864771Y-71449321D01*
X106864773Y-71449321D01*
X106972236Y-71420023D01*
X106972239Y-71420022D01*
X106980755Y-71417700D01*
X107090724Y-71350179D01*
X107177322Y-71254507D01*
X107181171Y-71246562D01*
X107181174Y-71246558D01*
X107229737Y-71146324D01*
X107229738Y-71146322D01*
X107233588Y-71138375D01*
X107254997Y-71011120D01*
X107255133Y-71000000D01*
X107253342Y-70987492D01*
X107238092Y-70881005D01*
X107238091Y-70881002D01*
X107236839Y-70872259D01*
X107205389Y-70803088D01*
X107187084Y-70762828D01*
X107187083Y-70762826D01*
X107183428Y-70754788D01*
X107177662Y-70748096D01*
X107104958Y-70663718D01*
X107104956Y-70663716D01*
X107099193Y-70657028D01*
X107065123Y-70634945D01*
X106998317Y-70591644D01*
X106998314Y-70591643D01*
X106990906Y-70586841D01*
X106982446Y-70584311D01*
X106982444Y-70584310D01*
X106875736Y-70552397D01*
X106867273Y-70549866D01*
X106858440Y-70549812D01*
X106849702Y-70548506D01*
X106849988Y-70546593D01*
X106793837Y-70529730D01*
X106773835Y-70513509D01*
X106561819Y-70301493D01*
X106528334Y-70240170D01*
X106525500Y-70213812D01*
X106525500Y-68449500D01*
X106545185Y-68382461D01*
X106597989Y-68336706D01*
X106649500Y-68325500D01*
X110570373Y-68325500D01*
X110581181Y-68325972D01*
X110618807Y-68329264D01*
X110655310Y-68319483D01*
X110665857Y-68317145D01*
X110679035Y-68314821D01*
X110703045Y-68310588D01*
X110712442Y-68305162D01*
X110715900Y-68303904D01*
X110719209Y-68302361D01*
X110729684Y-68299554D01*
X110760617Y-68277894D01*
X110769743Y-68272080D01*
X110793061Y-68258618D01*
X110793063Y-68258616D01*
X110802455Y-68253194D01*
X110826738Y-68224255D01*
X110834045Y-68216281D01*
X111488319Y-67562007D01*
X111549642Y-67528522D01*
X111619334Y-67533506D01*
X111675267Y-67575378D01*
X111699684Y-67640842D01*
X111700000Y-67649688D01*
X111700000Y-67847974D01*
X111680315Y-67915013D01*
X111639400Y-67954541D01*
X111625255Y-67962956D01*
X111625252Y-67962958D01*
X111620371Y-67965862D01*
X111468305Y-68099220D01*
X111343089Y-68258057D01*
X111340442Y-68263088D01*
X111310769Y-68319486D01*
X111248914Y-68437053D01*
X111247229Y-68442479D01*
X111247228Y-68442482D01*
X111235267Y-68481005D01*
X111188937Y-68630213D01*
X111165164Y-68831069D01*
X111165535Y-68836731D01*
X111165535Y-68836735D01*
X111166999Y-68859070D01*
X111178392Y-69032894D01*
X111228178Y-69228928D01*
X111230554Y-69234082D01*
X111262444Y-69303255D01*
X111312856Y-69412607D01*
X111429588Y-69577780D01*
X111574466Y-69718913D01*
X111625377Y-69752931D01*
X111644891Y-69765970D01*
X111689696Y-69819583D01*
X111700000Y-69869072D01*
X111700000Y-70387974D01*
X111680315Y-70455013D01*
X111639400Y-70494541D01*
X111625255Y-70502956D01*
X111625252Y-70502958D01*
X111620371Y-70505862D01*
X111468305Y-70639220D01*
X111343089Y-70798057D01*
X111248914Y-70977053D01*
X111247229Y-70982479D01*
X111247228Y-70982482D01*
X111241789Y-71000000D01*
X111188937Y-71170213D01*
X111188269Y-71175857D01*
X111167637Y-71350179D01*
X111165164Y-71371069D01*
X111165535Y-71376731D01*
X111165535Y-71376735D01*
X111170117Y-71446643D01*
X111178392Y-71572894D01*
X111228178Y-71768928D01*
X111312856Y-71952607D01*
X111429588Y-72117780D01*
X111574466Y-72258913D01*
X111625377Y-72292931D01*
X111644891Y-72305970D01*
X111689696Y-72359583D01*
X111700000Y-72409072D01*
X111700000Y-72927974D01*
X111680315Y-72995013D01*
X111639400Y-73034541D01*
X111625255Y-73042956D01*
X111625252Y-73042958D01*
X111620371Y-73045862D01*
X111468305Y-73179220D01*
X111343089Y-73338057D01*
X111248914Y-73517053D01*
X111188937Y-73710213D01*
X111165164Y-73911069D01*
X111165535Y-73916731D01*
X111165535Y-73916735D01*
X111175442Y-74067890D01*
X111160183Y-74136074D01*
X111110485Y-74185184D01*
X111051707Y-74200000D01*
X110200000Y-74200000D01*
X110200000Y-74469955D01*
X110188982Y-74475261D01*
X110139372Y-74502680D01*
X110137900Y-74503605D01*
X109995306Y-74593203D01*
X109995297Y-74593209D01*
X109993844Y-74594122D01*
X109947607Y-74626930D01*
X109946265Y-74628000D01*
X109946264Y-74628001D01*
X109929837Y-74641102D01*
X109925898Y-74644243D01*
X109883637Y-74682011D01*
X109762111Y-74803537D01*
X109724343Y-74845798D01*
X109707030Y-74867507D01*
X109674222Y-74913744D01*
X109673309Y-74915197D01*
X109673303Y-74915206D01*
X109632276Y-74980500D01*
X109582780Y-75059272D01*
X109555361Y-75108882D01*
X109543314Y-75133897D01*
X109521617Y-75186278D01*
X109464850Y-75348512D01*
X109449155Y-75402993D01*
X109442979Y-75430055D01*
X109433487Y-75485928D01*
X109413459Y-75663679D01*
X109411076Y-75691922D01*
X109410296Y-75705805D01*
X109409500Y-75734161D01*
X109409500Y-76667511D01*
X109389815Y-76734550D01*
X109337011Y-76780305D01*
X109267853Y-76790249D01*
X109219842Y-76771875D01*
X109219245Y-76771368D01*
X109063384Y-76691781D01*
X109056388Y-76690069D01*
X109056385Y-76690068D01*
X108964200Y-76667511D01*
X108893394Y-76650185D01*
X108887886Y-76649843D01*
X108887884Y-76649843D01*
X108884256Y-76649618D01*
X108884252Y-76649618D01*
X108882352Y-76649500D01*
X104556936Y-76649500D01*
X104489897Y-76629815D01*
X104479998Y-76622745D01*
X104402704Y-76561591D01*
X104402701Y-76561589D01*
X104397051Y-76557119D01*
X104238507Y-76483021D01*
X104231464Y-76481556D01*
X104231461Y-76481555D01*
X104074218Y-76448848D01*
X104074216Y-76448848D01*
X104067169Y-76447382D01*
X103949117Y-76450577D01*
X103899430Y-76451921D01*
X103899429Y-76451921D01*
X103892228Y-76452116D01*
X103885263Y-76453963D01*
X103885261Y-76453963D01*
X103730036Y-76495120D01*
X103730032Y-76495121D01*
X103723068Y-76496968D01*
X103716713Y-76500368D01*
X103716714Y-76500368D01*
X103616356Y-76554067D01*
X103568764Y-76579532D01*
X103437592Y-76695380D01*
X103336588Y-76838296D01*
X103271172Y-77000615D01*
X103244852Y-77173630D01*
X103259039Y-77348059D01*
X103261259Y-77354913D01*
X103261260Y-77354916D01*
X103284852Y-77427740D01*
X103312973Y-77514546D01*
X103403761Y-77664160D01*
X103407416Y-77668298D01*
X103409816Y-77671016D01*
X103409826Y-77671027D01*
X103411085Y-77672452D01*
X103412448Y-77673815D01*
X103622433Y-77883801D01*
X103634622Y-77897984D01*
X103647383Y-77915324D01*
X103652874Y-77919989D01*
X103652875Y-77919990D01*
X103687240Y-77949185D01*
X103694637Y-77956005D01*
X103700303Y-77961671D01*
X103722392Y-77979147D01*
X103725716Y-77981873D01*
X103780755Y-78028632D01*
X103787172Y-78031909D01*
X103792188Y-78035254D01*
X103797297Y-78038409D01*
X103802949Y-78042881D01*
X103868408Y-78073475D01*
X103872281Y-78075368D01*
X103891783Y-78085326D01*
X103936616Y-78108219D01*
X103943616Y-78109932D01*
X103949266Y-78112033D01*
X103954968Y-78113930D01*
X103961493Y-78116980D01*
X103968538Y-78118445D01*
X103968543Y-78118447D01*
X104032233Y-78131694D01*
X104036437Y-78132645D01*
X104106606Y-78149815D01*
X104112117Y-78150157D01*
X104112118Y-78150157D01*
X104117648Y-78150500D01*
X104117646Y-78150538D01*
X104121488Y-78150768D01*
X104125777Y-78151151D01*
X104132831Y-78152618D01*
X104209437Y-78150545D01*
X104212791Y-78150500D01*
X108843822Y-78150500D01*
X108973828Y-78135343D01*
X108980595Y-78132887D01*
X108980598Y-78132886D01*
X109131557Y-78078090D01*
X109131558Y-78078089D01*
X109138331Y-78075631D01*
X109217514Y-78023716D01*
X109284369Y-78003422D01*
X109351585Y-78022494D01*
X109397820Y-78074879D01*
X109409500Y-78127417D01*
X109409500Y-79900039D01*
X109410296Y-79928395D01*
X109411076Y-79942278D01*
X109413459Y-79970521D01*
X109413557Y-79971392D01*
X109413559Y-79971411D01*
X109420688Y-80034678D01*
X109430980Y-80126021D01*
X109440473Y-80181898D01*
X109446649Y-80208959D01*
X109462343Y-80263435D01*
X109511714Y-80404533D01*
X109512372Y-80406122D01*
X109512376Y-80406132D01*
X109514810Y-80412007D01*
X109533411Y-80456915D01*
X109545458Y-80481930D01*
X109572877Y-80531540D01*
X109652405Y-80658107D01*
X109685213Y-80704344D01*
X109702526Y-80726053D01*
X109740294Y-80768314D01*
X109845986Y-80874006D01*
X109888247Y-80911774D01*
X109909956Y-80929087D01*
X109956193Y-80961895D01*
X109957646Y-80962808D01*
X109957655Y-80962814D01*
X110060244Y-81027275D01*
X110082760Y-81041423D01*
X110132370Y-81068842D01*
X110157385Y-81080889D01*
X110182383Y-81091243D01*
X110208168Y-81101924D01*
X110208178Y-81101928D01*
X110209767Y-81102586D01*
X110350865Y-81151957D01*
X110352513Y-81152432D01*
X110352520Y-81152434D01*
X110373504Y-81158479D01*
X110405341Y-81167651D01*
X110414889Y-81169830D01*
X110430713Y-81173442D01*
X110430729Y-81173445D01*
X110432402Y-81173827D01*
X110462905Y-81179009D01*
X110486570Y-81183030D01*
X110486576Y-81183031D01*
X110488278Y-81183320D01*
X110489996Y-81183514D01*
X110489999Y-81183514D01*
X110635070Y-81199860D01*
X110635072Y-81199860D01*
X110636819Y-81200057D01*
X110693419Y-81203236D01*
X110721181Y-81203236D01*
X110777781Y-81200057D01*
X110779528Y-81199860D01*
X110779530Y-81199860D01*
X110924601Y-81183514D01*
X110924604Y-81183514D01*
X110926322Y-81183320D01*
X110928024Y-81183031D01*
X110928030Y-81183030D01*
X110951695Y-81179009D01*
X110982198Y-81173827D01*
X110983871Y-81173445D01*
X110983887Y-81173442D01*
X110999711Y-81169830D01*
X111009259Y-81167651D01*
X111041096Y-81158479D01*
X111110964Y-81158836D01*
X111169549Y-81196909D01*
X111198249Y-81260612D01*
X111193845Y-81314405D01*
X111190622Y-81324784D01*
X111190620Y-81324791D01*
X111188937Y-81330213D01*
X111165164Y-81531069D01*
X111165535Y-81536731D01*
X111165535Y-81536735D01*
X111171778Y-81631982D01*
X111178392Y-81732894D01*
X111228178Y-81928928D01*
X111312856Y-82112607D01*
X111429588Y-82277780D01*
X111529053Y-82374674D01*
X111532526Y-82378057D01*
X111566811Y-82438937D01*
X111570000Y-82466879D01*
X111570000Y-83193852D01*
X111550315Y-83260891D01*
X111527759Y-83287080D01*
X111468305Y-83339220D01*
X111343089Y-83498057D01*
X111248914Y-83677053D01*
X111188937Y-83870213D01*
X111165164Y-84071069D01*
X111165535Y-84076731D01*
X111165535Y-84076735D01*
X111171778Y-84171982D01*
X111178392Y-84272894D01*
X111179789Y-84278395D01*
X111179790Y-84278401D01*
X111199189Y-84354785D01*
X111196612Y-84424607D01*
X111166685Y-84472988D01*
X110283724Y-85355950D01*
X110275749Y-85363259D01*
X110246806Y-85387545D01*
X110241384Y-85396937D01*
X110241382Y-85396939D01*
X110227920Y-85420257D01*
X110222106Y-85429383D01*
X110200446Y-85460316D01*
X110197639Y-85470791D01*
X110196096Y-85474100D01*
X110194838Y-85477558D01*
X110189412Y-85486955D01*
X110187528Y-85497641D01*
X110182855Y-85524143D01*
X110180517Y-85534690D01*
X110170736Y-85571193D01*
X110174028Y-85608819D01*
X110174500Y-85619627D01*
X110174500Y-91413811D01*
X110154815Y-91480850D01*
X110138181Y-91501492D01*
X107083724Y-94555950D01*
X107075749Y-94563259D01*
X107046806Y-94587545D01*
X107041384Y-94596937D01*
X107041382Y-94596939D01*
X107027920Y-94620257D01*
X107022106Y-94629383D01*
X107000446Y-94660316D01*
X106997639Y-94670791D01*
X106996096Y-94674100D01*
X106994838Y-94677558D01*
X106989412Y-94686955D01*
X106985179Y-94710965D01*
X106982855Y-94724143D01*
X106980517Y-94734690D01*
X106970736Y-94771193D01*
X106971682Y-94782001D01*
X106974028Y-94808819D01*
X106974500Y-94819627D01*
X106974500Y-95491038D01*
X106954815Y-95558077D01*
X106943450Y-95573113D01*
X106919596Y-95600122D01*
X106864754Y-95716932D01*
X106863396Y-95725656D01*
X106863395Y-95725658D01*
X106856585Y-95769399D01*
X106844901Y-95844440D01*
X106861633Y-95972394D01*
X106865192Y-95980482D01*
X106865192Y-95980483D01*
X106872162Y-95996324D01*
X106913605Y-96090510D01*
X106919290Y-96097273D01*
X106978429Y-96167627D01*
X106996639Y-96189291D01*
X107003990Y-96194184D01*
X107003992Y-96194186D01*
X107019939Y-96204801D01*
X107104060Y-96260796D01*
X107112488Y-96263429D01*
X107112490Y-96263430D01*
X107160281Y-96278361D01*
X107227233Y-96299278D01*
X107236067Y-96299440D01*
X107272777Y-96300113D01*
X107356255Y-96301643D01*
X107364771Y-96299321D01*
X107364773Y-96299321D01*
X107472236Y-96270023D01*
X107472239Y-96270022D01*
X107480755Y-96267700D01*
X107590724Y-96200179D01*
X107677322Y-96104507D01*
X107681171Y-96096562D01*
X107681174Y-96096558D01*
X107729737Y-95996324D01*
X107729738Y-95996322D01*
X107733588Y-95988375D01*
X107754997Y-95861120D01*
X107755133Y-95850000D01*
X107753087Y-95835710D01*
X107738092Y-95731005D01*
X107738091Y-95731002D01*
X107736839Y-95722259D01*
X107733182Y-95714215D01*
X107687084Y-95612828D01*
X107687083Y-95612826D01*
X107683428Y-95604788D01*
X107655562Y-95572448D01*
X107626714Y-95508812D01*
X107625500Y-95491506D01*
X107625500Y-94986188D01*
X107645185Y-94919149D01*
X107661819Y-94898507D01*
X109175001Y-93385326D01*
X110716282Y-91844045D01*
X110724257Y-91836736D01*
X110744885Y-91819427D01*
X110753194Y-91812455D01*
X110772086Y-91779733D01*
X110777892Y-91770620D01*
X110793331Y-91748571D01*
X110793332Y-91748569D01*
X110799553Y-91739684D01*
X110802361Y-91729206D01*
X110803914Y-91725875D01*
X110805165Y-91722439D01*
X110810588Y-91713045D01*
X110817147Y-91675846D01*
X110819488Y-91665284D01*
X110825911Y-91641315D01*
X110829263Y-91628807D01*
X110825972Y-91591189D01*
X110825500Y-91580382D01*
X110825500Y-85786188D01*
X110845185Y-85719149D01*
X110861819Y-85698507D01*
X111358319Y-85202008D01*
X111419642Y-85168523D01*
X111489334Y-85173507D01*
X111545267Y-85215379D01*
X111569684Y-85280843D01*
X111570000Y-85289689D01*
X111570000Y-85733852D01*
X111550315Y-85800891D01*
X111527759Y-85827080D01*
X111507296Y-85845026D01*
X111468305Y-85879220D01*
X111343089Y-86038057D01*
X111248914Y-86217053D01*
X111247229Y-86222479D01*
X111247228Y-86222482D01*
X111231198Y-86274108D01*
X111188937Y-86410213D01*
X111165164Y-86611069D01*
X111165535Y-86616731D01*
X111165535Y-86616735D01*
X111167668Y-86649278D01*
X111178392Y-86812894D01*
X111228178Y-87008928D01*
X111230554Y-87014082D01*
X111303538Y-87172394D01*
X111312856Y-87192607D01*
X111429588Y-87357780D01*
X111530315Y-87455903D01*
X111532526Y-87458057D01*
X111566811Y-87518937D01*
X111570000Y-87546879D01*
X111570000Y-88203000D01*
X113891874Y-88203000D01*
X113908059Y-88204061D01*
X114013225Y-88217906D01*
X114044492Y-88226284D01*
X114072953Y-88238073D01*
X114127356Y-88281914D01*
X114149500Y-88352634D01*
X114149500Y-90007366D01*
X114129815Y-90074405D01*
X114072953Y-90121927D01*
X114044492Y-90133716D01*
X114013225Y-90142094D01*
X113981093Y-90146324D01*
X113908059Y-90155939D01*
X113891874Y-90157000D01*
X111570000Y-90157000D01*
X111570000Y-90813852D01*
X111550315Y-90880891D01*
X111527759Y-90907080D01*
X111519070Y-90914700D01*
X111468305Y-90959220D01*
X111343089Y-91118057D01*
X111340442Y-91123088D01*
X111329602Y-91143691D01*
X111248914Y-91297053D01*
X111247229Y-91302479D01*
X111247228Y-91302482D01*
X111223805Y-91377917D01*
X111188937Y-91490213D01*
X111165164Y-91691069D01*
X111165535Y-91696731D01*
X111165535Y-91696735D01*
X111168350Y-91739684D01*
X111178392Y-91892894D01*
X111228178Y-92088928D01*
X111230554Y-92094082D01*
X111249716Y-92135646D01*
X111312856Y-92272607D01*
X111429588Y-92437780D01*
X111529053Y-92534674D01*
X111532526Y-92538057D01*
X111566811Y-92598937D01*
X111570000Y-92626879D01*
X111570000Y-93353852D01*
X111550315Y-93420891D01*
X111527759Y-93447080D01*
X111468305Y-93499220D01*
X111343089Y-93658057D01*
X111248914Y-93837053D01*
X111188937Y-94030213D01*
X111165164Y-94231069D01*
X111165535Y-94236731D01*
X111165535Y-94236735D01*
X111171778Y-94331981D01*
X111178392Y-94432894D01*
X111228178Y-94628928D01*
X111230554Y-94634082D01*
X111294724Y-94773275D01*
X111312856Y-94812607D01*
X111429588Y-94977780D01*
X111512921Y-95058959D01*
X111532526Y-95078057D01*
X111566811Y-95138937D01*
X111570000Y-95166879D01*
X111570000Y-95893852D01*
X111550315Y-95960891D01*
X111527759Y-95987080D01*
X111512494Y-96000467D01*
X111468305Y-96039220D01*
X111343089Y-96198057D01*
X111248914Y-96377053D01*
X111188937Y-96570213D01*
X111165164Y-96771069D01*
X111165535Y-96776731D01*
X111165535Y-96776735D01*
X111171778Y-96871982D01*
X111178392Y-96972894D01*
X111228178Y-97168928D01*
X111312856Y-97352607D01*
X111429588Y-97517780D01*
X111529053Y-97614674D01*
X111532526Y-97618057D01*
X111566811Y-97678937D01*
X111570000Y-97706879D01*
X111570000Y-98433852D01*
X111550315Y-98500891D01*
X111527759Y-98527080D01*
X111468305Y-98579220D01*
X111343089Y-98738057D01*
X111248914Y-98917053D01*
X111188937Y-99110213D01*
X111165164Y-99311069D01*
X111165535Y-99316731D01*
X111165535Y-99316735D01*
X111171778Y-99411982D01*
X111178392Y-99512894D01*
X111228178Y-99708928D01*
X111312856Y-99892607D01*
X111429588Y-100057780D01*
X111529053Y-100154674D01*
X111532526Y-100158057D01*
X111566811Y-100218937D01*
X111570000Y-100246879D01*
X111570000Y-100903000D01*
X113891874Y-100903000D01*
X113908059Y-100904061D01*
X114013225Y-100917906D01*
X114044492Y-100926284D01*
X114072953Y-100938073D01*
X114127356Y-100981914D01*
X114149500Y-101052634D01*
X114149500Y-102705366D01*
X114129815Y-102772405D01*
X114072953Y-102819927D01*
X114044492Y-102831716D01*
X114013225Y-102840094D01*
X113928346Y-102851268D01*
X113908059Y-102853939D01*
X113891874Y-102855000D01*
X111570000Y-102855000D01*
X111570000Y-103513852D01*
X111550315Y-103580891D01*
X111527759Y-103607080D01*
X111468305Y-103659220D01*
X111343089Y-103818057D01*
X111248914Y-103997053D01*
X111188937Y-104190213D01*
X111165164Y-104391069D01*
X111165535Y-104396731D01*
X111165535Y-104396735D01*
X111171778Y-104491981D01*
X111178392Y-104592894D01*
X111228178Y-104788928D01*
X111312856Y-104972607D01*
X111429588Y-105137780D01*
X111529053Y-105234674D01*
X111532526Y-105238057D01*
X111566811Y-105298937D01*
X111570000Y-105326879D01*
X111570000Y-106053852D01*
X111550315Y-106120891D01*
X111527759Y-106147080D01*
X111468305Y-106199220D01*
X111343089Y-106358057D01*
X111248914Y-106537053D01*
X111188937Y-106730213D01*
X111183369Y-106777260D01*
X111172266Y-106871069D01*
X111165164Y-106931069D01*
X111165535Y-106936731D01*
X111165535Y-106936735D01*
X111167785Y-106971062D01*
X111178392Y-107132894D01*
X111228178Y-107328928D01*
X111312856Y-107512607D01*
X111429588Y-107677780D01*
X111529053Y-107774674D01*
X111532526Y-107778057D01*
X111566811Y-107838937D01*
X111570000Y-107866879D01*
X111570000Y-108016874D01*
X111568939Y-108033059D01*
X111555094Y-108138224D01*
X111546716Y-108169492D01*
X111534927Y-108197953D01*
X111491086Y-108252356D01*
X111420366Y-108274500D01*
X107424500Y-108274500D01*
X107357461Y-108254815D01*
X107311706Y-108202011D01*
X107300500Y-108150500D01*
X107300500Y-106850326D01*
X107298785Y-106841701D01*
X107288348Y-106789236D01*
X107285966Y-106777260D01*
X107279183Y-106767108D01*
X107278440Y-106765314D01*
X107269522Y-106729212D01*
X107268558Y-106718723D01*
X107266708Y-106698591D01*
X107221150Y-106537053D01*
X107213352Y-106509403D01*
X107213351Y-106509400D01*
X107211807Y-106503926D01*
X107122351Y-106322527D01*
X107001335Y-106160467D01*
X106898992Y-106065862D01*
X106856988Y-106027034D01*
X106856986Y-106027033D01*
X106852812Y-106023174D01*
X106848002Y-106020139D01*
X106686566Y-105918280D01*
X106686564Y-105918279D01*
X106681757Y-105915246D01*
X106493898Y-105840298D01*
X106488317Y-105839188D01*
X106488314Y-105839187D01*
X106420373Y-105825673D01*
X106295526Y-105800839D01*
X106289839Y-105800765D01*
X106289834Y-105800764D01*
X106098975Y-105798266D01*
X106098970Y-105798266D01*
X106093286Y-105798192D01*
X106087682Y-105799155D01*
X106087681Y-105799155D01*
X105899546Y-105831482D01*
X105899543Y-105831483D01*
X105893949Y-105832444D01*
X105872660Y-105840298D01*
X105709521Y-105900483D01*
X105709517Y-105900485D01*
X105704193Y-105902449D01*
X105699310Y-105905354D01*
X105699308Y-105905355D01*
X105682683Y-105915246D01*
X105530371Y-106005862D01*
X105378305Y-106139220D01*
X105253089Y-106298057D01*
X105158914Y-106477053D01*
X105157229Y-106482479D01*
X105157228Y-106482482D01*
X105140284Y-106537053D01*
X105098937Y-106670213D01*
X105075164Y-106871069D01*
X105075535Y-106876731D01*
X105075535Y-106876735D01*
X105080851Y-106957842D01*
X105088392Y-107072894D01*
X105089790Y-107078398D01*
X105095685Y-107101610D01*
X105099500Y-107132133D01*
X105099500Y-108150500D01*
X105079815Y-108217539D01*
X105027011Y-108263294D01*
X104975500Y-108274500D01*
X102324500Y-108274500D01*
X102257461Y-108254815D01*
X102211706Y-108202011D01*
X102200500Y-108150500D01*
X102200500Y-106988856D01*
X102201783Y-106971062D01*
X102203176Y-106961455D01*
X102203700Y-106957842D01*
X102204134Y-106941292D01*
X102205119Y-106903661D01*
X102205215Y-106900000D01*
X102201020Y-106854346D01*
X102200500Y-106843000D01*
X102200500Y-106775326D01*
X102189241Y-106718722D01*
X102187378Y-106705881D01*
X102187228Y-106704245D01*
X102187227Y-106704242D01*
X102186708Y-106698591D01*
X102141150Y-106537053D01*
X102133352Y-106509403D01*
X102133351Y-106509400D01*
X102131807Y-106503926D01*
X102042351Y-106322527D01*
X101921335Y-106160467D01*
X101818992Y-106065862D01*
X101776988Y-106027034D01*
X101776986Y-106027033D01*
X101772812Y-106023174D01*
X101768002Y-106020139D01*
X101606566Y-105918280D01*
X101606564Y-105918279D01*
X101601757Y-105915246D01*
X101413898Y-105840298D01*
X101408317Y-105839188D01*
X101408314Y-105839187D01*
X101340373Y-105825673D01*
X101215526Y-105800839D01*
X101209839Y-105800765D01*
X101209834Y-105800764D01*
X101018975Y-105798266D01*
X101018970Y-105798266D01*
X101013286Y-105798192D01*
X101007682Y-105799155D01*
X101007681Y-105799155D01*
X100819546Y-105831482D01*
X100819543Y-105831483D01*
X100813949Y-105832444D01*
X100792660Y-105840298D01*
X100629521Y-105900483D01*
X100629517Y-105900485D01*
X100624193Y-105902449D01*
X100619310Y-105905354D01*
X100619308Y-105905355D01*
X100602683Y-105915246D01*
X100450371Y-106005862D01*
X100298305Y-106139220D01*
X100173089Y-106298057D01*
X100078914Y-106477053D01*
X100077229Y-106482479D01*
X100077228Y-106482482D01*
X100060284Y-106537053D01*
X100018937Y-106670213D01*
X100018270Y-106675849D01*
X100018268Y-106675858D01*
X100016571Y-106690195D01*
X100013453Y-106702144D01*
X100014034Y-106702260D01*
X100000690Y-106769346D01*
X99999500Y-106775326D01*
X99999500Y-106827126D01*
X99998640Y-106841701D01*
X99995164Y-106871069D01*
X99995535Y-106876731D01*
X99995535Y-106876735D01*
X99999235Y-106933182D01*
X99999500Y-106941292D01*
X99999500Y-108150500D01*
X99979815Y-108217539D01*
X99927011Y-108263294D01*
X99875500Y-108274500D01*
X95879634Y-108274500D01*
X95812595Y-108254815D01*
X95765073Y-108197953D01*
X95753284Y-108169492D01*
X95744906Y-108138224D01*
X95731061Y-108033059D01*
X95730000Y-108016874D01*
X95730000Y-107728141D01*
X95749685Y-107661102D01*
X95758664Y-107648850D01*
X95857206Y-107530367D01*
X95857207Y-107530366D01*
X95860837Y-107526001D01*
X95959664Y-107349531D01*
X96024678Y-107158007D01*
X96028319Y-107132894D01*
X96053176Y-106961458D01*
X96053176Y-106961453D01*
X96053700Y-106957842D01*
X96054134Y-106941292D01*
X96055119Y-106903661D01*
X96055215Y-106900000D01*
X96036708Y-106698591D01*
X95991150Y-106537053D01*
X95983352Y-106509403D01*
X95983351Y-106509400D01*
X95981807Y-106503926D01*
X95892351Y-106322527D01*
X95771335Y-106160467D01*
X95767160Y-106156608D01*
X95763353Y-106152379D01*
X95764960Y-106150933D01*
X95733963Y-106099115D01*
X95730000Y-106068018D01*
X95730000Y-105188141D01*
X95749685Y-105121102D01*
X95758664Y-105108850D01*
X95857206Y-104990367D01*
X95857207Y-104990366D01*
X95860837Y-104986001D01*
X95959664Y-104809531D01*
X96024678Y-104618007D01*
X96053700Y-104417842D01*
X96055215Y-104360000D01*
X96036708Y-104158591D01*
X95991150Y-103997053D01*
X95983352Y-103969403D01*
X95983351Y-103969400D01*
X95981807Y-103963926D01*
X95892351Y-103782527D01*
X95771335Y-103620467D01*
X95767160Y-103616608D01*
X95763353Y-103612379D01*
X95764960Y-103610933D01*
X95733963Y-103559115D01*
X95730000Y-103528018D01*
X95730000Y-102797000D01*
X93408126Y-102797000D01*
X93391941Y-102795939D01*
X93331736Y-102788013D01*
X93286775Y-102782094D01*
X93255508Y-102773716D01*
X93227047Y-102761927D01*
X93172644Y-102718086D01*
X93150500Y-102647366D01*
X93150500Y-100992634D01*
X93170185Y-100925595D01*
X93227047Y-100878073D01*
X93255508Y-100866284D01*
X93286775Y-100857906D01*
X93391941Y-100844061D01*
X93408126Y-100843000D01*
X95730000Y-100843000D01*
X95730000Y-100108141D01*
X95749685Y-100041102D01*
X95758664Y-100028850D01*
X95857206Y-99910367D01*
X95857207Y-99910366D01*
X95860837Y-99906001D01*
X95959664Y-99729531D01*
X96024678Y-99538007D01*
X96053700Y-99337842D01*
X96055215Y-99280000D01*
X96036708Y-99078591D01*
X95991150Y-98917053D01*
X95983352Y-98889403D01*
X95983351Y-98889400D01*
X95981807Y-98883926D01*
X95892351Y-98702527D01*
X95771335Y-98540467D01*
X95767160Y-98536608D01*
X95763353Y-98532379D01*
X95764960Y-98530933D01*
X95733963Y-98479115D01*
X95730000Y-98448018D01*
X95730000Y-97568141D01*
X95749685Y-97501102D01*
X95758664Y-97488850D01*
X95857206Y-97370367D01*
X95857207Y-97370366D01*
X95860837Y-97366001D01*
X95959664Y-97189531D01*
X96024678Y-96998007D01*
X96053700Y-96797842D01*
X96055215Y-96740000D01*
X96036708Y-96538591D01*
X95991150Y-96377053D01*
X95983352Y-96349403D01*
X95983351Y-96349400D01*
X95981807Y-96343926D01*
X95892351Y-96162527D01*
X95771335Y-96000467D01*
X95767160Y-95996608D01*
X95763353Y-95992379D01*
X95764960Y-95990933D01*
X95733963Y-95939115D01*
X95730000Y-95908018D01*
X95730000Y-95050900D01*
X104293550Y-95050900D01*
X104312470Y-95194609D01*
X104367939Y-95328525D01*
X104456179Y-95443521D01*
X104571175Y-95531761D01*
X104578687Y-95534872D01*
X104578686Y-95534872D01*
X104697577Y-95584118D01*
X104697579Y-95584119D01*
X104705091Y-95587230D01*
X104848800Y-95606150D01*
X104992509Y-95587230D01*
X105000021Y-95584119D01*
X105000023Y-95584118D01*
X105118914Y-95534872D01*
X105118913Y-95534872D01*
X105126425Y-95531761D01*
X105241421Y-95443521D01*
X105329661Y-95328525D01*
X105385130Y-95194609D01*
X105404050Y-95050900D01*
X105385130Y-94907191D01*
X105359939Y-94846374D01*
X105350500Y-94798922D01*
X105350500Y-92359285D01*
X105370185Y-92292246D01*
X105375832Y-92284215D01*
X105375916Y-92284069D01*
X105380861Y-92277625D01*
X105436330Y-92143709D01*
X105455250Y-92000000D01*
X105436330Y-91856291D01*
X105431581Y-91844824D01*
X105389824Y-91744015D01*
X105380861Y-91722375D01*
X105318661Y-91641315D01*
X105297565Y-91613822D01*
X105292621Y-91607379D01*
X105177625Y-91519139D01*
X105129932Y-91499384D01*
X105051223Y-91466782D01*
X105051221Y-91466781D01*
X105043709Y-91463670D01*
X104900000Y-91444750D01*
X104756291Y-91463670D01*
X104748779Y-91466781D01*
X104748777Y-91466782D01*
X104670068Y-91499384D01*
X104622375Y-91519139D01*
X104507379Y-91607379D01*
X104502435Y-91613822D01*
X104481339Y-91641315D01*
X104419139Y-91722375D01*
X104410176Y-91744015D01*
X104368420Y-91844824D01*
X104363670Y-91856291D01*
X104344750Y-92000000D01*
X104363670Y-92143709D01*
X104419139Y-92277625D01*
X104424086Y-92284072D01*
X104428152Y-92291115D01*
X104426968Y-92291799D01*
X104449070Y-92348964D01*
X104449500Y-92359285D01*
X104449500Y-94624890D01*
X104429815Y-94691929D01*
X104423878Y-94700374D01*
X104367939Y-94773275D01*
X104312470Y-94907191D01*
X104293550Y-95050900D01*
X95730000Y-95050900D01*
X95730000Y-95028141D01*
X95749685Y-94961102D01*
X95758664Y-94948850D01*
X95857206Y-94830367D01*
X95857207Y-94830366D01*
X95860837Y-94826001D01*
X95959664Y-94649531D01*
X96024678Y-94458007D01*
X96053700Y-94257842D01*
X96055215Y-94200000D01*
X96036708Y-93998591D01*
X95991150Y-93837053D01*
X95983352Y-93809403D01*
X95983351Y-93809400D01*
X95981807Y-93803926D01*
X95892351Y-93622527D01*
X95771335Y-93460467D01*
X95767160Y-93456608D01*
X95763353Y-93452379D01*
X95764960Y-93450933D01*
X95733963Y-93399115D01*
X95730000Y-93368018D01*
X95730000Y-92488141D01*
X95749685Y-92421102D01*
X95758664Y-92408850D01*
X95857206Y-92290367D01*
X95857207Y-92290366D01*
X95860837Y-92286001D01*
X95959664Y-92109531D01*
X96024678Y-91918007D01*
X96034328Y-91851451D01*
X96053176Y-91721458D01*
X96053176Y-91721453D01*
X96053700Y-91717842D01*
X96054106Y-91702362D01*
X96054940Y-91670514D01*
X96055215Y-91660000D01*
X96036708Y-91458591D01*
X95999002Y-91324895D01*
X95983352Y-91269403D01*
X95983351Y-91269400D01*
X95981807Y-91263926D01*
X95892351Y-91082527D01*
X95771335Y-90920467D01*
X95767160Y-90916608D01*
X95763353Y-90912379D01*
X95764960Y-90910933D01*
X95733963Y-90859115D01*
X95730000Y-90828018D01*
X95730000Y-90097000D01*
X93408126Y-90097000D01*
X93391941Y-90095939D01*
X93346928Y-90090013D01*
X93286775Y-90082094D01*
X93255508Y-90073716D01*
X93227047Y-90061927D01*
X93172644Y-90018086D01*
X93150500Y-89947366D01*
X93150500Y-88292634D01*
X93170185Y-88225595D01*
X93227047Y-88178073D01*
X93255508Y-88166284D01*
X93286775Y-88157906D01*
X93371654Y-88146732D01*
X93391941Y-88144061D01*
X93408126Y-88143000D01*
X95730000Y-88143000D01*
X95730000Y-87408141D01*
X95749685Y-87341102D01*
X95758664Y-87328850D01*
X95857206Y-87210367D01*
X95857207Y-87210366D01*
X95860837Y-87206001D01*
X95959664Y-87029531D01*
X96008182Y-86886603D01*
X96022852Y-86843387D01*
X96022853Y-86843384D01*
X96024678Y-86838007D01*
X96036419Y-86757028D01*
X96053176Y-86641458D01*
X96053176Y-86641453D01*
X96053700Y-86637842D01*
X96053996Y-86626564D01*
X96055119Y-86583661D01*
X96055215Y-86580000D01*
X96036708Y-86378591D01*
X96009257Y-86281258D01*
X95983352Y-86189403D01*
X95983351Y-86189400D01*
X95981807Y-86183926D01*
X95892351Y-86002527D01*
X95771335Y-85840467D01*
X95767160Y-85836608D01*
X95763353Y-85832379D01*
X95764960Y-85830933D01*
X95733963Y-85779115D01*
X95730000Y-85748018D01*
X95730000Y-84868141D01*
X95749685Y-84801102D01*
X95758664Y-84788850D01*
X95857206Y-84670367D01*
X95857207Y-84670366D01*
X95860837Y-84666001D01*
X95959664Y-84489531D01*
X96024678Y-84298007D01*
X96053700Y-84097842D01*
X96055215Y-84040000D01*
X96036708Y-83838591D01*
X95991150Y-83677053D01*
X95983352Y-83649403D01*
X95983351Y-83649400D01*
X95981807Y-83643926D01*
X95892351Y-83462527D01*
X95771335Y-83300467D01*
X95767160Y-83296608D01*
X95763353Y-83292379D01*
X95764960Y-83290933D01*
X95733963Y-83239115D01*
X95730000Y-83208018D01*
X95730000Y-83039688D01*
X95749685Y-82972649D01*
X95802489Y-82926894D01*
X95871647Y-82916950D01*
X95935203Y-82945975D01*
X95941681Y-82952007D01*
X96338181Y-83348507D01*
X96371666Y-83409830D01*
X96374500Y-83436188D01*
X96374500Y-88334977D01*
X96374028Y-88345785D01*
X96370736Y-88383411D01*
X96380517Y-88419914D01*
X96382855Y-88430461D01*
X96389412Y-88467649D01*
X96394838Y-88477046D01*
X96396096Y-88480504D01*
X96397639Y-88483813D01*
X96400446Y-88494288D01*
X96406667Y-88503172D01*
X96422106Y-88525221D01*
X96427920Y-88534347D01*
X96446806Y-88567059D01*
X96455116Y-88574032D01*
X96475744Y-88591341D01*
X96483719Y-88598649D01*
X98330170Y-90445100D01*
X98363655Y-90506423D01*
X98365442Y-90516702D01*
X98373940Y-90581688D01*
X98375086Y-90590451D01*
X98378645Y-90598539D01*
X98378645Y-90598540D01*
X98404342Y-90656941D01*
X98427058Y-90708567D01*
X98432743Y-90715330D01*
X98492752Y-90786719D01*
X98510092Y-90807348D01*
X98517443Y-90812241D01*
X98517445Y-90812243D01*
X98607607Y-90872259D01*
X98617513Y-90878853D01*
X98625941Y-90881486D01*
X98625943Y-90881487D01*
X98673734Y-90896418D01*
X98740686Y-90917335D01*
X98749520Y-90917497D01*
X98786230Y-90918170D01*
X98869708Y-90919700D01*
X98878224Y-90917378D01*
X98878226Y-90917378D01*
X98985689Y-90888080D01*
X98985692Y-90888079D01*
X98994208Y-90885757D01*
X99001733Y-90881137D01*
X99007763Y-90878527D01*
X99077106Y-90869967D01*
X99140069Y-90900256D01*
X99176661Y-90959777D01*
X99180051Y-90995908D01*
X99179565Y-90998005D01*
X99180219Y-91007251D01*
X99180042Y-91009506D01*
X99180105Y-91011667D01*
X99180010Y-91019459D01*
X99178651Y-91028190D01*
X99179797Y-91036952D01*
X99184829Y-91075435D01*
X99185566Y-91082755D01*
X99188066Y-91118057D01*
X99189133Y-91133134D01*
X99192478Y-91141779D01*
X99192905Y-91143691D01*
X99194306Y-91147910D01*
X99195383Y-91156144D01*
X99200231Y-91167162D01*
X99216210Y-91203478D01*
X99218358Y-91208677D01*
X99222986Y-91220640D01*
X99238011Y-91259476D01*
X99243749Y-91266754D01*
X99244842Y-91268671D01*
X99244986Y-91268876D01*
X99247355Y-91274260D01*
X99283314Y-91317038D01*
X99285725Y-91320000D01*
X99295789Y-91332766D01*
X99314282Y-91356224D01*
X99321878Y-91365860D01*
X99327784Y-91369942D01*
X99330389Y-91373041D01*
X99337480Y-91377761D01*
X99337485Y-91377765D01*
X99380467Y-91406376D01*
X99382257Y-91407590D01*
X99433319Y-91442881D01*
X99437110Y-91444080D01*
X99437810Y-91444546D01*
X99443437Y-91446304D01*
X99501332Y-91464392D01*
X99501745Y-91464522D01*
X99545061Y-91478221D01*
X99562480Y-91483730D01*
X99569087Y-91484250D01*
X99626522Y-91484250D01*
X99628794Y-91484271D01*
X99690005Y-91485393D01*
X99693448Y-91484454D01*
X99696740Y-91484250D01*
X101632147Y-91484250D01*
X101646721Y-91485109D01*
X101671355Y-91488025D01*
X101671358Y-91488025D01*
X101680560Y-91489114D01*
X101717225Y-91482418D01*
X101738272Y-91478574D01*
X101742114Y-91477934D01*
X101775267Y-91472949D01*
X101800212Y-91469199D01*
X101806725Y-91466071D01*
X101813823Y-91464775D01*
X101851259Y-91445329D01*
X101865913Y-91437717D01*
X101869396Y-91435977D01*
X101922329Y-91410559D01*
X101927549Y-91405734D01*
X101927770Y-91405585D01*
X101934038Y-91402329D01*
X101939078Y-91398025D01*
X101973869Y-91363234D01*
X101982343Y-91355509D01*
X101983194Y-91354803D01*
X101990724Y-91350179D01*
X101996651Y-91343631D01*
X101996656Y-91343627D01*
X102002781Y-91336859D01*
X102010532Y-91329025D01*
X102021806Y-91318604D01*
X102025487Y-91312267D01*
X102031070Y-91306033D01*
X102042487Y-91294616D01*
X102045340Y-91290753D01*
X102053148Y-91281214D01*
X102071395Y-91261055D01*
X102077322Y-91254507D01*
X102082241Y-91244355D01*
X102094091Y-91224752D01*
X102097129Y-91220640D01*
X102097134Y-91220631D01*
X102102635Y-91213183D01*
X102114240Y-91180137D01*
X102119642Y-91167162D01*
X102129736Y-91146327D01*
X102129737Y-91146323D01*
X102133588Y-91138375D01*
X102135055Y-91129661D01*
X102136130Y-91123266D01*
X102141417Y-91102749D01*
X102144449Y-91094116D01*
X102144450Y-91094112D01*
X102147520Y-91085369D01*
X102148737Y-91054389D01*
X102150359Y-91038688D01*
X102154204Y-91015835D01*
X102154204Y-91015832D01*
X102154997Y-91011120D01*
X102155133Y-91000000D01*
X102153390Y-90987828D01*
X102152234Y-90965384D01*
X102152474Y-90959267D01*
X102152838Y-90950006D01*
X102150463Y-90941048D01*
X102150463Y-90941046D01*
X102144121Y-90917127D01*
X102141231Y-90902926D01*
X102138091Y-90881000D01*
X102138091Y-90880999D01*
X102136839Y-90872259D01*
X102130076Y-90857385D01*
X102123101Y-90837852D01*
X102118119Y-90819063D01*
X102102240Y-90793602D01*
X102094579Y-90779313D01*
X102089835Y-90768880D01*
X102083428Y-90754788D01*
X102077668Y-90748103D01*
X102077664Y-90748097D01*
X102070125Y-90739348D01*
X102058851Y-90724029D01*
X102046433Y-90704118D01*
X102039434Y-90698044D01*
X102039431Y-90698041D01*
X102026812Y-90687091D01*
X102014147Y-90674382D01*
X102004961Y-90663721D01*
X102004958Y-90663718D01*
X101999193Y-90657028D01*
X101978701Y-90643746D01*
X101964881Y-90633351D01*
X101964876Y-90633346D01*
X101959085Y-90628321D01*
X101951116Y-90621406D01*
X101951115Y-90621405D01*
X101944117Y-90615333D01*
X101935642Y-90611586D01*
X101935640Y-90611585D01*
X101924034Y-90606454D01*
X101906732Y-90597099D01*
X101906464Y-90596925D01*
X101890906Y-90586841D01*
X101882441Y-90584309D01*
X101882438Y-90584308D01*
X101863642Y-90578687D01*
X101849049Y-90573304D01*
X101820218Y-90560558D01*
X101802421Y-90558451D01*
X101781477Y-90554114D01*
X101778189Y-90553131D01*
X101775737Y-90552397D01*
X101775735Y-90552397D01*
X101767273Y-90549866D01*
X101758241Y-90549811D01*
X101734777Y-90549667D01*
X101720964Y-90548810D01*
X101694898Y-90545725D01*
X101694893Y-90545725D01*
X101685690Y-90544636D01*
X101672046Y-90547128D01*
X101649009Y-90549144D01*
X101648143Y-90549139D01*
X101647066Y-90549132D01*
X101638231Y-90549078D01*
X101629737Y-90551506D01*
X101629735Y-90551506D01*
X101603110Y-90559116D01*
X101591310Y-90561873D01*
X101561541Y-90567309D01*
X101561537Y-90567310D01*
X101552427Y-90568974D01*
X101544205Y-90573245D01*
X101535434Y-90576248D01*
X101534498Y-90573516D01*
X101494660Y-90583250D01*
X99641516Y-90583250D01*
X99640759Y-90583248D01*
X99571981Y-90582828D01*
X99563486Y-90585256D01*
X99563484Y-90585256D01*
X99545584Y-90590371D01*
X99529950Y-90593766D01*
X99508952Y-90596923D01*
X99508951Y-90596923D01*
X99499788Y-90598301D01*
X99482724Y-90606495D01*
X99463131Y-90613938D01*
X99447905Y-90618289D01*
X99440433Y-90623004D01*
X99439607Y-90623373D01*
X99370373Y-90632776D01*
X99307046Y-90603257D01*
X99269731Y-90544186D01*
X99266696Y-90489606D01*
X99267656Y-90483900D01*
X99267657Y-90483893D01*
X99268450Y-90479177D01*
X99268586Y-90468057D01*
X99267908Y-90463320D01*
X99251545Y-90349062D01*
X99251544Y-90349059D01*
X99250292Y-90340316D01*
X99204913Y-90240510D01*
X99200537Y-90230885D01*
X99200536Y-90230883D01*
X99196881Y-90222845D01*
X99183203Y-90206971D01*
X99154354Y-90143335D01*
X99164489Y-90074204D01*
X99172686Y-90059629D01*
X99177322Y-90054507D01*
X99200162Y-90007366D01*
X99229737Y-89946324D01*
X99229738Y-89946322D01*
X99233588Y-89938375D01*
X99254997Y-89811120D01*
X99255133Y-89800000D01*
X99249556Y-89761056D01*
X99238092Y-89681005D01*
X99238091Y-89681002D01*
X99236839Y-89672259D01*
X99183428Y-89554788D01*
X99173989Y-89543833D01*
X99145139Y-89480201D01*
X99155272Y-89411070D01*
X99175993Y-89379677D01*
X99219761Y-89331323D01*
X99223610Y-89323378D01*
X99223613Y-89323374D01*
X99272176Y-89223140D01*
X99272177Y-89223138D01*
X99276027Y-89215191D01*
X99297436Y-89087936D01*
X99297572Y-89076816D01*
X99279278Y-88949075D01*
X99225867Y-88831604D01*
X99220101Y-88824912D01*
X99147397Y-88740534D01*
X99147395Y-88740532D01*
X99141632Y-88733844D01*
X99107562Y-88711761D01*
X99040756Y-88668460D01*
X99040753Y-88668459D01*
X99033345Y-88663657D01*
X99024885Y-88661127D01*
X99024883Y-88661126D01*
X98918175Y-88629213D01*
X98909712Y-88626682D01*
X98900879Y-88626628D01*
X98892141Y-88625322D01*
X98892427Y-88623408D01*
X98836277Y-88606546D01*
X98816275Y-88590325D01*
X98358478Y-88132528D01*
X97837792Y-87611843D01*
X97804307Y-87550520D01*
X97809291Y-87480829D01*
X97851163Y-87424895D01*
X97916627Y-87400478D01*
X97984900Y-87415330D01*
X97994183Y-87420939D01*
X98046709Y-87455903D01*
X98054060Y-87460796D01*
X98062488Y-87463429D01*
X98062490Y-87463430D01*
X98065448Y-87464354D01*
X98177233Y-87499278D01*
X98186067Y-87499440D01*
X98222777Y-87500113D01*
X98306255Y-87501643D01*
X98314774Y-87499321D01*
X98314778Y-87499320D01*
X98382252Y-87480924D01*
X98452109Y-87482281D01*
X98502550Y-87512876D01*
X98766717Y-87777043D01*
X98800202Y-87838366D01*
X98801989Y-87848645D01*
X98805779Y-87877625D01*
X98811633Y-87922394D01*
X98863605Y-88040510D01*
X98946639Y-88139291D01*
X98953990Y-88144184D01*
X98953992Y-88144186D01*
X99042348Y-88203000D01*
X99054060Y-88210796D01*
X99062488Y-88213429D01*
X99062490Y-88213430D01*
X99103634Y-88226284D01*
X99177233Y-88249278D01*
X99186067Y-88249440D01*
X99222777Y-88250113D01*
X99306255Y-88251643D01*
X99314771Y-88249321D01*
X99314773Y-88249321D01*
X99422236Y-88220023D01*
X99422239Y-88220022D01*
X99430755Y-88217700D01*
X99540724Y-88150179D01*
X99627322Y-88054507D01*
X99631171Y-88046562D01*
X99631174Y-88046558D01*
X99679737Y-87946324D01*
X99679738Y-87946322D01*
X99683588Y-87938375D01*
X99692724Y-87884072D01*
X99704204Y-87815835D01*
X99704204Y-87815832D01*
X99704997Y-87811120D01*
X99705133Y-87800000D01*
X99698148Y-87751223D01*
X99689598Y-87691520D01*
X99699580Y-87622367D01*
X99745365Y-87569589D01*
X99814618Y-87549963D01*
X99906255Y-87551643D01*
X99914771Y-87549321D01*
X99914773Y-87549321D01*
X100022236Y-87520023D01*
X100022239Y-87520022D01*
X100030755Y-87517700D01*
X100140724Y-87450179D01*
X100227322Y-87354507D01*
X100231171Y-87346562D01*
X100231174Y-87346558D01*
X100279737Y-87246324D01*
X100279738Y-87246322D01*
X100283588Y-87238375D01*
X100292156Y-87187449D01*
X100304204Y-87115835D01*
X100304204Y-87115832D01*
X100304997Y-87111120D01*
X100305133Y-87100000D01*
X100304455Y-87095263D01*
X100288092Y-86981005D01*
X100288091Y-86981002D01*
X100286839Y-86972259D01*
X100283182Y-86964215D01*
X100237084Y-86862828D01*
X100237083Y-86862826D01*
X100233428Y-86854788D01*
X100227662Y-86848096D01*
X100154958Y-86763718D01*
X100154956Y-86763716D01*
X100149193Y-86757028D01*
X100102933Y-86727044D01*
X100048317Y-86691644D01*
X100048314Y-86691643D01*
X100040906Y-86686841D01*
X100032445Y-86684311D01*
X100032444Y-86684310D01*
X100008269Y-86677080D01*
X99979013Y-86668330D01*
X99926863Y-86637211D01*
X99861819Y-86572167D01*
X99828334Y-86510844D01*
X99825500Y-86484486D01*
X99825500Y-82885188D01*
X99845185Y-82818149D01*
X99897989Y-82772394D01*
X99967147Y-82762450D01*
X100030703Y-82791475D01*
X100037177Y-82797503D01*
X100309072Y-83069399D01*
X100555955Y-83316282D01*
X100563264Y-83324257D01*
X100587545Y-83353194D01*
X100596940Y-83358619D01*
X100596941Y-83358619D01*
X100620261Y-83372083D01*
X100629379Y-83377892D01*
X100660316Y-83399554D01*
X100670791Y-83402361D01*
X100674108Y-83403908D01*
X100677561Y-83405165D01*
X100686955Y-83410588D01*
X100697639Y-83412472D01*
X100724155Y-83417148D01*
X100734712Y-83419489D01*
X100760712Y-83426455D01*
X100760713Y-83426455D01*
X100771193Y-83429263D01*
X100781997Y-83428318D01*
X100782000Y-83428318D01*
X100808811Y-83425972D01*
X100819618Y-83425500D01*
X105122074Y-83425500D01*
X105189113Y-83445185D01*
X105209755Y-83461819D01*
X106482328Y-84734392D01*
X106515813Y-84795715D01*
X106510829Y-84865407D01*
X106470133Y-84920449D01*
X106391884Y-84980491D01*
X106391881Y-84980494D01*
X106385438Y-84985438D01*
X106297198Y-85100434D01*
X106294087Y-85107945D01*
X106253581Y-85205737D01*
X106241729Y-85234350D01*
X106240668Y-85242412D01*
X106238565Y-85250259D01*
X106237246Y-85249906D01*
X106212444Y-85305964D01*
X106205455Y-85313560D01*
X105615740Y-85903275D01*
X105554417Y-85936760D01*
X105484725Y-85931776D01*
X105440378Y-85903275D01*
X104772604Y-85235501D01*
X104739119Y-85174178D01*
X104737433Y-85164508D01*
X104737391Y-85164353D01*
X104736330Y-85156291D01*
X104729790Y-85140500D01*
X104683972Y-85029886D01*
X104680861Y-85022375D01*
X104657462Y-84991881D01*
X104597565Y-84913822D01*
X104592621Y-84907379D01*
X104477625Y-84819139D01*
X104404500Y-84788850D01*
X104351223Y-84766782D01*
X104351221Y-84766781D01*
X104343709Y-84763670D01*
X104200000Y-84744750D01*
X104056291Y-84763670D01*
X104048779Y-84766781D01*
X104048777Y-84766782D01*
X103995500Y-84788850D01*
X103922375Y-84819139D01*
X103807379Y-84907379D01*
X103802435Y-84913822D01*
X103742538Y-84991881D01*
X103719139Y-85022375D01*
X103716028Y-85029886D01*
X103670211Y-85140500D01*
X103663670Y-85156291D01*
X103644750Y-85300000D01*
X103663670Y-85443709D01*
X103666781Y-85451221D01*
X103666782Y-85451223D01*
X103681583Y-85486955D01*
X103719139Y-85577625D01*
X103807379Y-85692621D01*
X103922375Y-85780861D01*
X103929887Y-85783972D01*
X103929886Y-85783972D01*
X104048777Y-85833218D01*
X104048779Y-85833219D01*
X104056291Y-85836330D01*
X104064353Y-85837391D01*
X104072200Y-85839494D01*
X104071847Y-85840813D01*
X104127905Y-85865615D01*
X104135501Y-85872604D01*
X105113181Y-86850284D01*
X105146666Y-86911607D01*
X105149500Y-86937965D01*
X105149500Y-87240715D01*
X105129815Y-87307754D01*
X105124168Y-87315785D01*
X105124084Y-87315931D01*
X105119139Y-87322375D01*
X105116028Y-87329886D01*
X105070712Y-87439291D01*
X105063670Y-87456291D01*
X105044750Y-87600000D01*
X105063670Y-87743709D01*
X105119139Y-87877625D01*
X105207379Y-87992621D01*
X105322375Y-88080861D01*
X105329887Y-88083972D01*
X105329886Y-88083972D01*
X105448777Y-88133218D01*
X105448779Y-88133219D01*
X105456291Y-88136330D01*
X105600000Y-88155250D01*
X105743709Y-88136330D01*
X105751221Y-88133219D01*
X105751223Y-88133218D01*
X105870114Y-88083972D01*
X105870113Y-88083972D01*
X105877625Y-88080861D01*
X105992621Y-87992621D01*
X106080861Y-87877625D01*
X106136330Y-87743709D01*
X106155250Y-87600000D01*
X106136330Y-87456291D01*
X106129289Y-87439291D01*
X106083972Y-87329886D01*
X106080861Y-87322375D01*
X106075914Y-87315928D01*
X106071848Y-87308885D01*
X106073032Y-87308201D01*
X106050930Y-87251036D01*
X106050500Y-87240715D01*
X106050500Y-86794083D01*
X106070185Y-86727044D01*
X106086819Y-86706402D01*
X106842558Y-85950663D01*
X106903881Y-85917178D01*
X106913551Y-85915492D01*
X106913706Y-85915450D01*
X106921768Y-85914389D01*
X106929280Y-85911278D01*
X106929282Y-85911277D01*
X107022647Y-85872604D01*
X107055684Y-85858920D01*
X107092157Y-85830933D01*
X107164237Y-85775624D01*
X107170680Y-85770680D01*
X107175624Y-85764237D01*
X107175627Y-85764234D01*
X107235669Y-85685985D01*
X107292097Y-85644782D01*
X107361843Y-85640627D01*
X107421726Y-85673790D01*
X108338181Y-86590245D01*
X108371666Y-86651568D01*
X108374500Y-86677926D01*
X108374500Y-89641038D01*
X108354815Y-89708077D01*
X108343450Y-89723113D01*
X108319596Y-89750122D01*
X108264754Y-89866932D01*
X108263396Y-89875656D01*
X108263395Y-89875658D01*
X108246260Y-89985710D01*
X108244901Y-89994440D01*
X108261633Y-90122394D01*
X108265192Y-90130482D01*
X108265192Y-90130483D01*
X108302888Y-90216153D01*
X108313605Y-90240510D01*
X108396639Y-90339291D01*
X108403990Y-90344184D01*
X108403992Y-90344186D01*
X108419939Y-90354801D01*
X108504060Y-90410796D01*
X108512492Y-90413430D01*
X108518376Y-90416237D01*
X108570411Y-90462864D01*
X108588977Y-90530222D01*
X108568179Y-90596925D01*
X108535624Y-90629648D01*
X108532211Y-90631421D01*
X108527172Y-90635725D01*
X108525448Y-90637449D01*
X108523671Y-90639092D01*
X108523392Y-90638790D01*
X108518796Y-90642463D01*
X108519218Y-90642959D01*
X108512491Y-90648685D01*
X108505019Y-90653399D01*
X108480470Y-90681195D01*
X108473700Y-90688861D01*
X108468439Y-90694458D01*
X108249716Y-90913181D01*
X108188393Y-90946666D01*
X108162035Y-90949500D01*
X106607766Y-90949500D01*
X106607009Y-90949498D01*
X106538231Y-90949078D01*
X106529736Y-90951506D01*
X106529734Y-90951506D01*
X106511834Y-90956621D01*
X106496200Y-90960016D01*
X106475202Y-90963173D01*
X106475201Y-90963173D01*
X106466038Y-90964551D01*
X106448974Y-90972745D01*
X106429381Y-90980188D01*
X106414155Y-90984539D01*
X106406688Y-90989251D01*
X106406680Y-90989254D01*
X106387523Y-91001342D01*
X106375040Y-91008248D01*
X106343921Y-91023191D01*
X106337113Y-91029484D01*
X106337109Y-91029487D01*
X106332986Y-91033298D01*
X106314986Y-91047110D01*
X106312494Y-91048682D01*
X106312491Y-91048685D01*
X106305019Y-91053399D01*
X106284965Y-91076107D01*
X106281509Y-91080020D01*
X106272736Y-91088994D01*
X106244444Y-91115146D01*
X106239789Y-91123161D01*
X106239788Y-91123162D01*
X106239003Y-91124514D01*
X106226809Y-91141421D01*
X106225440Y-91143505D01*
X106219596Y-91150122D01*
X106211596Y-91167162D01*
X106202785Y-91185928D01*
X106197767Y-91195507D01*
X106176404Y-91232287D01*
X106174311Y-91241318D01*
X106172107Y-91246884D01*
X106170881Y-91250425D01*
X106171090Y-91250489D01*
X106168506Y-91258940D01*
X106164754Y-91266932D01*
X106163396Y-91275656D01*
X106163394Y-91275661D01*
X106158045Y-91310010D01*
X106156320Y-91318928D01*
X106147908Y-91355223D01*
X106145815Y-91364255D01*
X106146469Y-91373501D01*
X106146292Y-91375755D01*
X106146355Y-91377917D01*
X106146260Y-91385709D01*
X106144901Y-91394440D01*
X106146047Y-91403202D01*
X106151079Y-91441685D01*
X106151816Y-91449005D01*
X106154312Y-91484250D01*
X106155383Y-91499384D01*
X106158728Y-91508029D01*
X106159155Y-91509941D01*
X106160556Y-91514160D01*
X106161633Y-91522394D01*
X106165191Y-91530480D01*
X106182460Y-91569728D01*
X106184608Y-91574927D01*
X106195250Y-91602435D01*
X106204261Y-91625726D01*
X106209999Y-91633004D01*
X106211092Y-91634921D01*
X106211236Y-91635126D01*
X106213605Y-91640510D01*
X106249564Y-91683288D01*
X106251975Y-91686250D01*
X106264676Y-91702362D01*
X106281444Y-91723631D01*
X106288128Y-91732110D01*
X106294034Y-91736192D01*
X106296639Y-91739291D01*
X106303730Y-91744011D01*
X106303735Y-91744015D01*
X106346717Y-91772626D01*
X106348507Y-91773840D01*
X106399569Y-91809131D01*
X106403360Y-91810330D01*
X106404060Y-91810796D01*
X106409687Y-91812554D01*
X106467582Y-91830642D01*
X106467995Y-91830772D01*
X106511311Y-91844471D01*
X106528730Y-91849980D01*
X106535337Y-91850500D01*
X106592772Y-91850500D01*
X106595044Y-91850521D01*
X106656255Y-91851643D01*
X106659698Y-91850704D01*
X106662990Y-91850500D01*
X108365897Y-91850500D01*
X108380471Y-91851359D01*
X108405105Y-91854275D01*
X108405108Y-91854275D01*
X108414310Y-91855364D01*
X108450975Y-91848668D01*
X108472022Y-91844824D01*
X108475864Y-91844184D01*
X108509017Y-91839199D01*
X108533962Y-91835449D01*
X108540475Y-91832321D01*
X108547573Y-91831025D01*
X108555799Y-91826752D01*
X108599663Y-91803967D01*
X108603146Y-91802227D01*
X108656079Y-91776809D01*
X108661299Y-91771984D01*
X108661520Y-91771835D01*
X108667788Y-91768579D01*
X108672828Y-91764275D01*
X108710097Y-91727006D01*
X108713607Y-91723631D01*
X108748749Y-91691147D01*
X108748751Y-91691144D01*
X108755556Y-91684854D01*
X108759237Y-91678516D01*
X108764828Y-91672275D01*
X109073869Y-91363234D01*
X109082342Y-91355510D01*
X109083194Y-91354802D01*
X109090724Y-91350179D01*
X109124938Y-91312380D01*
X109129169Y-91307934D01*
X109142487Y-91294616D01*
X109145340Y-91290753D01*
X109153148Y-91281214D01*
X109171392Y-91261059D01*
X109171395Y-91261055D01*
X109177322Y-91254507D01*
X109181173Y-91246559D01*
X109181176Y-91246554D01*
X109182241Y-91244355D01*
X109194088Y-91224754D01*
X109202634Y-91213184D01*
X109205704Y-91204442D01*
X109205706Y-91204438D01*
X109214239Y-91180138D01*
X109219641Y-91167162D01*
X109228253Y-91149387D01*
X109229736Y-91146326D01*
X109229736Y-91146325D01*
X109233588Y-91138375D01*
X109236131Y-91123260D01*
X109241416Y-91102751D01*
X109244447Y-91094119D01*
X109244448Y-91094115D01*
X109247519Y-91085369D01*
X109248736Y-91054394D01*
X109250358Y-91038694D01*
X109254204Y-91015835D01*
X109254204Y-91015832D01*
X109254997Y-91011120D01*
X109255133Y-91000000D01*
X109253390Y-90987828D01*
X109252234Y-90965384D01*
X109252474Y-90959270D01*
X109252474Y-90959267D01*
X109252838Y-90950006D01*
X109244120Y-90917126D01*
X109241231Y-90902929D01*
X109238091Y-90881000D01*
X109238091Y-90880999D01*
X109236839Y-90872259D01*
X109233184Y-90864219D01*
X109233184Y-90864218D01*
X109230075Y-90857381D01*
X109223097Y-90837840D01*
X109220493Y-90828019D01*
X109220492Y-90828017D01*
X109218118Y-90819064D01*
X109213214Y-90811200D01*
X109202244Y-90793609D01*
X109194580Y-90779316D01*
X109187082Y-90762824D01*
X109187081Y-90762822D01*
X109183428Y-90754788D01*
X109170122Y-90739345D01*
X109158847Y-90724024D01*
X109146433Y-90704119D01*
X109126810Y-90687091D01*
X109114150Y-90674386D01*
X109104960Y-90663721D01*
X109099193Y-90657028D01*
X109078693Y-90643741D01*
X109064873Y-90633346D01*
X109062156Y-90630988D01*
X109044116Y-90615334D01*
X109024041Y-90606458D01*
X109006745Y-90597106D01*
X108998320Y-90591646D01*
X108998319Y-90591645D01*
X108990906Y-90586841D01*
X108982443Y-90584310D01*
X108979744Y-90583063D01*
X108927142Y-90537076D01*
X108907753Y-90469950D01*
X108927733Y-90402998D01*
X108966868Y-90364827D01*
X108983196Y-90354801D01*
X108990724Y-90350179D01*
X109077322Y-90254507D01*
X109081171Y-90246562D01*
X109081174Y-90246558D01*
X109129737Y-90146324D01*
X109129738Y-90146322D01*
X109133588Y-90138375D01*
X109147865Y-90053513D01*
X109178399Y-89990668D01*
X109238063Y-89954308D01*
X109272418Y-89950106D01*
X109356255Y-89951643D01*
X109364771Y-89949321D01*
X109364773Y-89949321D01*
X109472236Y-89920023D01*
X109472239Y-89920022D01*
X109480755Y-89917700D01*
X109590724Y-89850179D01*
X109677322Y-89754507D01*
X109681171Y-89746562D01*
X109681174Y-89746558D01*
X109729737Y-89646324D01*
X109729738Y-89646322D01*
X109733588Y-89638375D01*
X109746298Y-89562828D01*
X109754204Y-89515835D01*
X109754204Y-89515832D01*
X109754997Y-89511120D01*
X109755133Y-89500000D01*
X109748979Y-89457028D01*
X109738092Y-89381005D01*
X109738091Y-89381002D01*
X109736839Y-89372259D01*
X109733182Y-89364215D01*
X109687084Y-89262828D01*
X109687083Y-89262826D01*
X109683428Y-89254788D01*
X109655562Y-89222448D01*
X109626714Y-89158812D01*
X109625500Y-89141506D01*
X109625500Y-86419619D01*
X109625972Y-86408812D01*
X109628318Y-86382000D01*
X109628318Y-86381998D01*
X109629263Y-86371193D01*
X109619489Y-86334712D01*
X109617148Y-86324155D01*
X109612472Y-86297639D01*
X109610588Y-86286955D01*
X109605165Y-86277561D01*
X109603908Y-86274108D01*
X109602361Y-86270791D01*
X109599554Y-86260316D01*
X109577892Y-86229379D01*
X109572083Y-86220261D01*
X109558617Y-86196937D01*
X109558616Y-86196935D01*
X109553194Y-86187545D01*
X109524262Y-86163268D01*
X109516287Y-86155960D01*
X105844050Y-82483724D01*
X105836741Y-82475749D01*
X105819427Y-82455115D01*
X105812455Y-82446806D01*
X105803063Y-82441384D01*
X105803061Y-82441382D01*
X105779743Y-82427920D01*
X105770617Y-82422106D01*
X105748568Y-82406667D01*
X105748569Y-82406667D01*
X105739684Y-82400446D01*
X105729209Y-82397639D01*
X105725900Y-82396096D01*
X105722442Y-82394838D01*
X105713045Y-82389412D01*
X105689035Y-82385179D01*
X105675857Y-82382855D01*
X105665310Y-82380517D01*
X105628807Y-82370736D01*
X105591181Y-82374028D01*
X105580373Y-82374500D01*
X101186189Y-82374500D01*
X101119150Y-82354815D01*
X101098508Y-82338181D01*
X100661819Y-81901493D01*
X100628334Y-81840170D01*
X100625500Y-81813812D01*
X100625500Y-71111188D01*
X100645185Y-71044149D01*
X100661819Y-71023507D01*
X101122879Y-70562447D01*
X101184202Y-70528962D01*
X101226742Y-70527188D01*
X101250000Y-70530250D01*
X101393709Y-70511330D01*
X101401221Y-70508219D01*
X101401223Y-70508218D01*
X101504851Y-70465294D01*
X101527625Y-70455861D01*
X101642621Y-70367621D01*
X101730861Y-70252625D01*
X101786330Y-70118709D01*
X101805250Y-69975000D01*
X101786330Y-69831291D01*
X101781481Y-69819583D01*
X101733972Y-69704886D01*
X101730861Y-69697375D01*
X101642621Y-69582379D01*
X101527625Y-69494139D01*
X101528132Y-69493478D01*
X101484535Y-69447753D01*
X101471314Y-69379145D01*
X101497284Y-69314281D01*
X101507071Y-69303255D01*
X101723250Y-69087076D01*
X101784573Y-69053591D01*
X101795605Y-69051708D01*
X101797425Y-69051481D01*
X101806255Y-69051643D01*
X101875025Y-69032894D01*
X101922236Y-69020023D01*
X101922239Y-69020022D01*
X101930755Y-69017700D01*
X102040724Y-68950179D01*
X102127322Y-68854507D01*
X102131171Y-68846562D01*
X102131174Y-68846558D01*
X102179737Y-68746324D01*
X102179738Y-68746322D01*
X102183588Y-68738375D01*
X102185665Y-68726031D01*
X102204204Y-68615835D01*
X102204204Y-68615832D01*
X102204997Y-68611120D01*
X102205133Y-68600000D01*
X102204147Y-68593114D01*
X102188092Y-68481005D01*
X102188091Y-68481002D01*
X102186839Y-68472259D01*
X102176491Y-68449500D01*
X102137084Y-68362828D01*
X102137083Y-68362826D01*
X102133428Y-68354788D01*
X102097381Y-68312953D01*
X102054958Y-68263718D01*
X102054956Y-68263716D01*
X102049193Y-68257028D01*
X101995964Y-68222527D01*
X101948317Y-68191644D01*
X101948314Y-68191643D01*
X101940906Y-68186841D01*
X101932446Y-68184311D01*
X101932444Y-68184310D01*
X101825736Y-68152397D01*
X101817273Y-68149866D01*
X101808440Y-68149812D01*
X101760027Y-68149516D01*
X101688231Y-68149078D01*
X101564155Y-68184539D01*
X101455019Y-68253399D01*
X101369596Y-68350122D01*
X101314754Y-68466932D01*
X101313395Y-68475658D01*
X101313395Y-68475659D01*
X101301066Y-68554846D01*
X101271302Y-68618060D01*
X101266223Y-68623451D01*
X100037181Y-69852493D01*
X99975858Y-69885978D01*
X99906166Y-69880994D01*
X99850233Y-69839122D01*
X99825816Y-69773658D01*
X99825500Y-69764812D01*
X99825500Y-66419627D01*
X99825972Y-66408819D01*
X99828318Y-66382001D01*
X99829264Y-66371193D01*
X99819483Y-66334690D01*
X99817145Y-66324143D01*
X99812472Y-66297641D01*
X99810588Y-66286955D01*
X99805162Y-66277558D01*
X99803904Y-66274100D01*
X99802361Y-66270791D01*
X99799554Y-66260316D01*
X99777894Y-66229383D01*
X99772080Y-66220257D01*
X99758618Y-66196939D01*
X99758616Y-66196937D01*
X99753194Y-66187545D01*
X99724255Y-66163262D01*
X99716281Y-66155955D01*
X99062214Y-65501888D01*
X99028729Y-65440565D01*
X99033713Y-65370873D01*
X99075585Y-65314940D01*
X99141049Y-65290523D01*
X99185835Y-65295530D01*
X99196193Y-65298667D01*
X99254110Y-65302260D01*
X99363668Y-65309057D01*
X99363671Y-65309057D01*
X99370862Y-65309503D01*
X99543340Y-65279866D01*
X99704373Y-65211346D01*
X99710173Y-65207078D01*
X99839521Y-65111888D01*
X99839523Y-65111886D01*
X99845324Y-65107617D01*
X99908159Y-65033656D01*
X99953965Y-64979739D01*
X99953967Y-64979736D01*
X99958632Y-64974245D01*
X100038219Y-64818384D01*
X100079815Y-64648394D01*
X100080322Y-64640230D01*
X100080382Y-64639256D01*
X100080382Y-64639252D01*
X100080500Y-64637352D01*
X100080500Y-63900113D01*
X100100185Y-63833074D01*
X100152989Y-63787319D01*
X100222147Y-63777375D01*
X100285703Y-63806400D01*
X100302876Y-63824626D01*
X100341682Y-63875199D01*
X100349549Y-63885451D01*
X100355992Y-63890395D01*
X100444217Y-63958093D01*
X100469767Y-63977698D01*
X100523447Y-63999933D01*
X100602255Y-64032577D01*
X100602257Y-64032578D01*
X100609764Y-64035687D01*
X100617823Y-64036748D01*
X100718260Y-64049971D01*
X100718264Y-64049971D01*
X100722280Y-64050500D01*
X100797720Y-64050500D01*
X100801736Y-64049971D01*
X100801740Y-64049971D01*
X100902177Y-64036748D01*
X100910236Y-64035687D01*
X100917743Y-64032578D01*
X100917745Y-64032577D01*
X100996553Y-63999933D01*
X101050233Y-63977698D01*
X101075783Y-63958093D01*
X101164008Y-63890395D01*
X101170451Y-63885451D01*
X101210642Y-63833074D01*
X101257751Y-63771680D01*
X101262698Y-63765233D01*
X101305464Y-63661988D01*
X101317577Y-63632745D01*
X101317578Y-63632743D01*
X101320687Y-63625236D01*
X101340466Y-63475000D01*
X101320687Y-63324764D01*
X101305594Y-63288325D01*
X101267710Y-63196867D01*
X101262698Y-63184767D01*
X101170451Y-63064549D01*
X101141292Y-63042174D01*
X101056680Y-62977249D01*
X101050233Y-62972302D01*
X100917747Y-62917424D01*
X100917743Y-62917422D01*
X100910236Y-62914313D01*
X100902177Y-62913252D01*
X100801740Y-62900029D01*
X100801736Y-62900029D01*
X100797720Y-62899500D01*
X100722280Y-62899500D01*
X100718264Y-62900029D01*
X100718260Y-62900029D01*
X100617823Y-62913252D01*
X100609764Y-62914313D01*
X100602257Y-62917422D01*
X100602253Y-62917424D01*
X100469767Y-62972302D01*
X100463320Y-62977249D01*
X100378709Y-63042174D01*
X100349549Y-63064549D01*
X100257302Y-63184767D01*
X100254192Y-63192276D01*
X100251541Y-63196867D01*
X100200974Y-63245083D01*
X100132367Y-63258307D01*
X100067502Y-63232339D01*
X100027594Y-63177176D01*
X100008091Y-63123445D01*
X100008089Y-63123442D01*
X100005631Y-63116669D01*
X99909677Y-62970315D01*
X99904449Y-62965363D01*
X99904447Y-62965360D01*
X99787857Y-62854913D01*
X99787855Y-62854911D01*
X99782628Y-62849960D01*
X99776403Y-62846344D01*
X99776400Y-62846342D01*
X99637525Y-62765678D01*
X99637526Y-62765678D01*
X99631298Y-62762061D01*
X99463807Y-62711333D01*
X99397668Y-62707230D01*
X99296332Y-62700943D01*
X99296329Y-62700943D01*
X99289138Y-62700497D01*
X99116660Y-62730134D01*
X98955627Y-62798654D01*
X98949829Y-62802921D01*
X98949827Y-62802922D01*
X98820479Y-62898112D01*
X98820477Y-62898114D01*
X98814676Y-62902383D01*
X98810011Y-62907874D01*
X98810010Y-62907875D01*
X98706035Y-63030261D01*
X98706033Y-63030264D01*
X98701368Y-63035755D01*
X98698091Y-63042172D01*
X98698088Y-63042177D01*
X98659935Y-63116895D01*
X98611917Y-63167649D01*
X98544081Y-63184385D01*
X98477966Y-63161789D01*
X98434562Y-63107036D01*
X98425500Y-63060503D01*
X98425500Y-61589627D01*
X98425972Y-61578819D01*
X98428318Y-61552001D01*
X98429264Y-61541193D01*
X98419483Y-61504690D01*
X98417145Y-61494143D01*
X98412472Y-61467641D01*
X98410588Y-61456955D01*
X98405162Y-61447558D01*
X98403904Y-61444100D01*
X98402361Y-61440791D01*
X98399554Y-61430316D01*
X98377894Y-61399383D01*
X98372080Y-61390257D01*
X98358618Y-61366939D01*
X98358616Y-61366937D01*
X98353194Y-61357545D01*
X98324255Y-61333262D01*
X98316281Y-61325955D01*
X97159148Y-60168822D01*
X98579500Y-60168822D01*
X98594657Y-60298828D01*
X98597113Y-60305595D01*
X98597114Y-60305598D01*
X98651910Y-60456557D01*
X98654369Y-60463331D01*
X98658322Y-60469360D01*
X98742642Y-60597969D01*
X98750323Y-60609685D01*
X98755551Y-60614637D01*
X98755553Y-60614640D01*
X98872143Y-60725087D01*
X98872145Y-60725089D01*
X98877372Y-60730040D01*
X98883597Y-60733656D01*
X98883600Y-60733658D01*
X98920626Y-60755164D01*
X99028702Y-60817939D01*
X99196193Y-60868667D01*
X99262332Y-60872770D01*
X99363668Y-60879057D01*
X99363671Y-60879057D01*
X99370862Y-60879503D01*
X99543340Y-60849866D01*
X99704373Y-60781346D01*
X99710173Y-60777078D01*
X99839521Y-60681888D01*
X99839523Y-60681886D01*
X99845324Y-60677617D01*
X99912990Y-60597969D01*
X99953965Y-60549739D01*
X99953967Y-60549736D01*
X99958632Y-60544245D01*
X100038219Y-60388384D01*
X100043862Y-60365326D01*
X100061883Y-60291675D01*
X100079815Y-60218394D01*
X100080500Y-60207352D01*
X100080500Y-59481178D01*
X100065343Y-59351172D01*
X100029566Y-59252607D01*
X100008090Y-59193443D01*
X100008089Y-59193442D01*
X100005631Y-59186669D01*
X99928437Y-59068928D01*
X99913630Y-59046344D01*
X99913629Y-59046343D01*
X99909677Y-59040315D01*
X99904449Y-59035363D01*
X99904447Y-59035360D01*
X99787857Y-58924913D01*
X99787855Y-58924911D01*
X99782628Y-58919960D01*
X99776403Y-58916344D01*
X99776400Y-58916342D01*
X99637525Y-58835678D01*
X99637526Y-58835678D01*
X99631298Y-58832061D01*
X99463807Y-58781333D01*
X99397668Y-58777230D01*
X99296332Y-58770943D01*
X99296329Y-58770943D01*
X99289138Y-58770497D01*
X99116660Y-58800134D01*
X98955627Y-58868654D01*
X98949829Y-58872921D01*
X98949827Y-58872922D01*
X98820479Y-58968112D01*
X98820477Y-58968114D01*
X98814676Y-58972383D01*
X98810011Y-58977874D01*
X98810010Y-58977875D01*
X98706035Y-59100261D01*
X98706033Y-59100264D01*
X98701368Y-59105755D01*
X98621781Y-59261616D01*
X98580185Y-59431606D01*
X98579500Y-59442648D01*
X98579500Y-60168822D01*
X97159148Y-60168822D01*
X96044648Y-59054322D01*
X96011163Y-58992999D01*
X96014910Y-58926782D01*
X96022852Y-58903387D01*
X96022853Y-58903384D01*
X96024678Y-58898007D01*
X96034542Y-58829973D01*
X96053176Y-58701458D01*
X96053176Y-58701453D01*
X96053700Y-58697842D01*
X96055215Y-58640000D01*
X96036708Y-58438591D01*
X95981807Y-58243926D01*
X95892351Y-58062527D01*
X95771335Y-57900467D01*
X95767160Y-57896608D01*
X95763353Y-57892379D01*
X95764960Y-57890933D01*
X95733963Y-57839115D01*
X95730000Y-57808018D01*
X95730000Y-57733126D01*
X95731061Y-57716941D01*
X95744906Y-57611776D01*
X95753284Y-57580508D01*
X95765073Y-57552047D01*
X95808914Y-57497644D01*
X95879634Y-57475500D01*
X101025581Y-57475500D01*
X101092620Y-57495185D01*
G37*
%TD.AperFunction*%
%TA.AperFunction,Conductor*%
G36*
X95972763Y-74583089D02*
G01*
X97000904Y-75611230D01*
X97034389Y-75672553D01*
X97037223Y-75698911D01*
X97037223Y-80287535D01*
X97017538Y-80354574D01*
X96964734Y-80400329D01*
X96895576Y-80410273D01*
X96832020Y-80381248D01*
X96825542Y-80375216D01*
X95988784Y-79538458D01*
X95955299Y-79477135D01*
X95960123Y-79409687D01*
X95959664Y-79409531D01*
X95960259Y-79407778D01*
X96024678Y-79218007D01*
X96053700Y-79017842D01*
X96055215Y-78960000D01*
X96036708Y-78758591D01*
X95981807Y-78563926D01*
X95892351Y-78382527D01*
X95771335Y-78220467D01*
X95767160Y-78216608D01*
X95763353Y-78212379D01*
X95764960Y-78210933D01*
X95733963Y-78159115D01*
X95730000Y-78128018D01*
X95730000Y-77397000D01*
X93408126Y-77397000D01*
X93391941Y-77395939D01*
X93371654Y-77393268D01*
X93286775Y-77382094D01*
X93255508Y-77373716D01*
X93227047Y-77361927D01*
X93172644Y-77318086D01*
X93150500Y-77247366D01*
X93150500Y-75592634D01*
X93170185Y-75525595D01*
X93227047Y-75478073D01*
X93255508Y-75466284D01*
X93286775Y-75457906D01*
X93391941Y-75444061D01*
X93408126Y-75443000D01*
X95730000Y-75443000D01*
X95730000Y-74708141D01*
X95749685Y-74641102D01*
X95758665Y-74628849D01*
X95789747Y-74591478D01*
X95847749Y-74552523D01*
X95917605Y-74551111D01*
X95972763Y-74583089D01*
G37*
%TD.AperFunction*%
%TA.AperFunction,Conductor*%
G36*
X95940654Y-62170980D02*
G01*
X96547746Y-62778073D01*
X97138181Y-63368508D01*
X97171666Y-63429831D01*
X97174500Y-63456189D01*
X97174500Y-65180373D01*
X97174028Y-65191181D01*
X97170736Y-65228807D01*
X97180517Y-65265310D01*
X97182855Y-65275857D01*
X97189412Y-65313045D01*
X97194838Y-65322442D01*
X97196096Y-65325900D01*
X97197639Y-65329209D01*
X97200446Y-65339684D01*
X97206667Y-65348568D01*
X97222106Y-65370617D01*
X97227920Y-65379743D01*
X97246806Y-65412455D01*
X97255116Y-65419428D01*
X97275744Y-65436737D01*
X97283719Y-65444045D01*
X98738181Y-66898507D01*
X98771666Y-66959830D01*
X98774500Y-66986188D01*
X98774500Y-69614812D01*
X98754815Y-69681851D01*
X98702011Y-69727606D01*
X98632853Y-69737550D01*
X98569297Y-69708525D01*
X98562819Y-69702493D01*
X95886103Y-67025777D01*
X95852618Y-66964454D01*
X95857602Y-66894762D01*
X95865594Y-66877507D01*
X95919920Y-66780500D01*
X95959664Y-66709531D01*
X96024678Y-66518007D01*
X96029141Y-66487228D01*
X96053176Y-66321458D01*
X96053176Y-66321453D01*
X96053700Y-66317842D01*
X96055215Y-66260000D01*
X96036708Y-66058591D01*
X96002523Y-65937379D01*
X95983352Y-65869403D01*
X95983351Y-65869400D01*
X95981807Y-65863926D01*
X95892351Y-65682527D01*
X95771335Y-65520467D01*
X95767160Y-65516608D01*
X95763353Y-65512379D01*
X95764960Y-65510933D01*
X95733963Y-65459115D01*
X95730000Y-65428018D01*
X95730000Y-64697000D01*
X93408126Y-64697000D01*
X93391941Y-64695939D01*
X93302492Y-64684163D01*
X93286775Y-64682094D01*
X93255508Y-64673716D01*
X93232598Y-64664226D01*
X93227047Y-64661927D01*
X93172644Y-64618086D01*
X93150500Y-64547366D01*
X93150500Y-62892634D01*
X93170185Y-62825595D01*
X93227047Y-62778073D01*
X93255508Y-62766284D01*
X93286775Y-62757906D01*
X93391941Y-62744061D01*
X93408126Y-62743000D01*
X95730000Y-62743000D01*
X95730000Y-62243000D01*
X95731929Y-62243254D01*
X95753217Y-62185008D01*
X95808873Y-62142768D01*
X95878530Y-62137323D01*
X95940654Y-62170980D01*
G37*
%TD.AperFunction*%
%TD*%
%TA.AperFunction,Conductor*%
%TO.N,AGND*%
G36*
X111270681Y-74854585D02*
G01*
X111291323Y-74871219D01*
X111398599Y-74978495D01*
X111592170Y-75114035D01*
X111646720Y-75139472D01*
X111653805Y-75142776D01*
X111699600Y-75183098D01*
X111699600Y-75401300D01*
X113393907Y-75401300D01*
X113406061Y-75401897D01*
X113582935Y-75419318D01*
X113606776Y-75424060D01*
X113770999Y-75473876D01*
X113793454Y-75483177D01*
X113833954Y-75504825D01*
X113883797Y-75553785D01*
X113899500Y-75614182D01*
X113899500Y-77195018D01*
X113879815Y-77262057D01*
X113833954Y-77304375D01*
X113793454Y-77326023D01*
X113770999Y-77335324D01*
X113606776Y-77385140D01*
X113582935Y-77389882D01*
X113406061Y-77407303D01*
X113393907Y-77407900D01*
X111499600Y-77407900D01*
X111499600Y-77910783D01*
X111403034Y-77978399D01*
X111403030Y-77978403D01*
X111398599Y-77981505D01*
X111231505Y-78148599D01*
X111228403Y-78153030D01*
X111228399Y-78153034D01*
X111099073Y-78337732D01*
X111095965Y-78342171D01*
X111093675Y-78347082D01*
X110998386Y-78551427D01*
X110998384Y-78551433D01*
X110996097Y-78556337D01*
X110934937Y-78784592D01*
X110914341Y-79020000D01*
X110934937Y-79255408D01*
X110996097Y-79483663D01*
X110998384Y-79488567D01*
X110998386Y-79488573D01*
X111085631Y-79675669D01*
X111095965Y-79697829D01*
X111099072Y-79702266D01*
X111099073Y-79702268D01*
X111228399Y-79886966D01*
X111228403Y-79886970D01*
X111231505Y-79891401D01*
X111398599Y-80058495D01*
X111402647Y-80061330D01*
X111441267Y-80119383D01*
X111442372Y-80189244D01*
X111439898Y-80197150D01*
X111425751Y-80237579D01*
X111413704Y-80262596D01*
X111334177Y-80389163D01*
X111316864Y-80410872D01*
X111211172Y-80516564D01*
X111189463Y-80533877D01*
X111062896Y-80613405D01*
X111037881Y-80625452D01*
X110896783Y-80674823D01*
X110869722Y-80680999D01*
X110721181Y-80697736D01*
X110693419Y-80697736D01*
X110544878Y-80680999D01*
X110517817Y-80674823D01*
X110376719Y-80625452D01*
X110351704Y-80613405D01*
X110225137Y-80533877D01*
X110203428Y-80516564D01*
X110097736Y-80410872D01*
X110080423Y-80389163D01*
X110000895Y-80262596D01*
X109988848Y-80237581D01*
X109939477Y-80096483D01*
X109933301Y-80069422D01*
X109915780Y-79913922D01*
X109915000Y-79900039D01*
X109915000Y-75734161D01*
X109915780Y-75720278D01*
X109927734Y-75614182D01*
X109935808Y-75542527D01*
X109941984Y-75515465D01*
X109998751Y-75353231D01*
X110010798Y-75328216D01*
X110102240Y-75182688D01*
X110119553Y-75160979D01*
X110241079Y-75039453D01*
X110262788Y-75022140D01*
X110408316Y-74930698D01*
X110433331Y-74918651D01*
X110595565Y-74861884D01*
X110622627Y-74855708D01*
X110774313Y-74838617D01*
X110800378Y-74835680D01*
X110814261Y-74834900D01*
X111203642Y-74834900D01*
X111270681Y-74854585D01*
G37*
%TD.AperFunction*%
%TD*%
M02*
