%TF.GenerationSoftware,KiCad,Pcbnew,(6.0.7-1)-1*%
%TF.CreationDate,2022-09-30T15:54:31+08:00*%
%TF.ProjectId,PicoBoot,5069636f-426f-46f7-942e-6b696361645f,REV1*%
%TF.SameCoordinates,Original*%
%TF.FileFunction,Soldermask,Bot*%
%TF.FilePolarity,Negative*%
%FSLAX46Y46*%
G04 Gerber Fmt 4.6, Leading zero omitted, Abs format (unit mm)*
G04 Created by KiCad (PCBNEW (6.0.7-1)-1) date 2022-09-30 15:54:31*
%MOMM*%
%LPD*%
G01*
G04 APERTURE LIST*
G04 Aperture macros list*
%AMRoundRect*
0 Rectangle with rounded corners*
0 $1 Rounding radius*
0 $2 $3 $4 $5 $6 $7 $8 $9 X,Y pos of 4 corners*
0 Add a 4 corners polygon primitive as box body*
4,1,4,$2,$3,$4,$5,$6,$7,$8,$9,$2,$3,0*
0 Add four circle primitives for the rounded corners*
1,1,$1+$1,$2,$3*
1,1,$1+$1,$4,$5*
1,1,$1+$1,$6,$7*
1,1,$1+$1,$8,$9*
0 Add four rect primitives between the rounded corners*
20,1,$1+$1,$2,$3,$4,$5,0*
20,1,$1+$1,$4,$5,$6,$7,0*
20,1,$1+$1,$6,$7,$8,$9,0*
20,1,$1+$1,$8,$9,$2,$3,0*%
G04 Aperture macros list end*
%ADD10O,1.802000X1.802000*%
%ADD11RoundRect,0.476000X0.425000X-0.425000X0.425000X0.425000X-0.425000X0.425000X-0.425000X-0.425000X0*%
%ADD12C,0.752000*%
%ADD13O,1.102000X2.202000*%
%ADD14O,1.102000X1.702000*%
%ADD15C,2.202000*%
%ADD16RoundRect,0.051000X0.850000X-1.750000X0.850000X1.750000X-0.850000X1.750000X-0.850000X-1.750000X0*%
%ADD17RoundRect,0.051000X1.750000X0.850000X-1.750000X0.850000X-1.750000X-0.850000X1.750000X-0.850000X0*%
%ADD18RoundRect,0.051000X0.850000X0.850000X-0.850000X0.850000X-0.850000X-0.850000X0.850000X-0.850000X0*%
%ADD19C,1.802000*%
%ADD20RoundRect,0.051000X-1.750000X-0.850000X1.750000X-0.850000X1.750000X0.850000X-1.750000X0.850000X0*%
%ADD21RoundRect,0.051000X-0.850000X-0.850000X0.850000X-0.850000X0.850000X0.850000X-0.850000X0.850000X0*%
%ADD22RoundRect,0.051000X-1.000000X-1.000000X1.000000X-1.000000X1.000000X1.000000X-1.000000X1.000000X0*%
G04 APERTURE END LIST*
D10*
%TO.C,J5*%
X101100000Y-106900000D03*
D11*
X103640000Y-106900000D03*
D10*
X106180000Y-106900000D03*
%TD*%
D12*
%TO.C,USB1*%
X106540000Y-63475000D03*
X100760000Y-63475000D03*
D13*
X107970000Y-64005000D03*
D14*
X99330000Y-59825000D03*
X107970000Y-59825000D03*
D13*
X99330000Y-64005000D03*
%TD*%
D15*
%TO.C,H4\u002CH3\u002CH1\u002CH2*%
X130850000Y-88725000D03*
%TD*%
%TO.C,H3*%
X130850000Y-82975000D03*
%TD*%
D16*
%TO.C,*%
X101100000Y-108550000D03*
%TD*%
%TO.C,*%
X103650000Y-108650000D03*
%TD*%
%TO.C,*%
X106200000Y-108625000D03*
%TD*%
D15*
%TO.C,H1*%
X125100000Y-82975000D03*
%TD*%
%TO.C,H2*%
X125100000Y-88725000D03*
%TD*%
D17*
%TO.C,J4*%
X113970000Y-58700000D03*
D10*
X112270000Y-58700000D03*
D17*
X113970000Y-61240000D03*
D10*
X112270000Y-61240000D03*
D18*
X112270000Y-63780000D03*
D17*
X113970000Y-63780000D03*
X113970000Y-66320000D03*
D10*
X112270000Y-66320000D03*
X112270000Y-68860000D03*
D17*
X113970000Y-68860000D03*
D10*
X112270000Y-71400000D03*
D17*
X113970000Y-71400000D03*
D10*
X112270000Y-73940000D03*
D17*
X113970000Y-73940000D03*
D18*
X112270000Y-76480000D03*
D17*
X113970000Y-76480000D03*
X113970000Y-79020000D03*
D10*
X112270000Y-79020000D03*
X112270000Y-81560000D03*
D17*
X113970000Y-81560000D03*
D10*
X112270000Y-84100000D03*
D17*
X113970000Y-84100000D03*
X113970000Y-86640000D03*
D10*
X112270000Y-86640000D03*
D18*
X112270000Y-89180000D03*
D17*
X113970000Y-89180000D03*
D10*
X112270000Y-91720000D03*
D17*
X113970000Y-91720000D03*
D10*
X112270000Y-94260000D03*
D17*
X113970000Y-94260000D03*
D10*
X112270000Y-96800000D03*
D17*
X113970000Y-96800000D03*
X113970000Y-99340000D03*
D10*
X112270000Y-99340000D03*
D18*
X112270000Y-101880000D03*
D17*
X113970000Y-101880000D03*
X113970000Y-104420000D03*
D10*
X112270000Y-104420000D03*
D17*
X113970000Y-106960000D03*
D10*
X112270000Y-106960000D03*
%TD*%
D19*
%TO.C,J3*%
X94950000Y-106900000D03*
D20*
X93250000Y-106900000D03*
D10*
X94950000Y-104360000D03*
D20*
X93250000Y-104360000D03*
X93250000Y-101820000D03*
D21*
X94950000Y-101820000D03*
D10*
X94950000Y-99280000D03*
D20*
X93250000Y-99280000D03*
D10*
X94950000Y-96740000D03*
D20*
X93250000Y-96740000D03*
D10*
X94950000Y-94200000D03*
D20*
X93250000Y-94200000D03*
D10*
X94950000Y-91660000D03*
D20*
X93240000Y-91660000D03*
X93250000Y-89120000D03*
D21*
X94950000Y-89120000D03*
D10*
X94950000Y-86580000D03*
D20*
X93250000Y-86580000D03*
D10*
X94950000Y-84040000D03*
D20*
X93250000Y-84040000D03*
X93250000Y-81500000D03*
D10*
X94950000Y-81500000D03*
X94950000Y-78960000D03*
D20*
X93260000Y-78960000D03*
X93250000Y-76420000D03*
D21*
X94950000Y-76420000D03*
D20*
X93250000Y-73880000D03*
D10*
X94950000Y-73880000D03*
D20*
X93250000Y-71340000D03*
D10*
X94950000Y-71340000D03*
X94950000Y-68800000D03*
D20*
X93250000Y-68800000D03*
D10*
X94950000Y-66260000D03*
D20*
X93250000Y-66250000D03*
D21*
X94950000Y-63720000D03*
D20*
X93250000Y-63720000D03*
D10*
X94950000Y-61180000D03*
D20*
X93250000Y-61170000D03*
X93250000Y-58640000D03*
D10*
X94950000Y-58640000D03*
%TD*%
D22*
%TO.C,TP1\u002CTP2*%
X102400000Y-58625000D03*
%TD*%
%TO.C,TP2*%
X104900000Y-58625000D03*
%TD*%
M02*
