M48
; DRILL file {KiCad (6.0.7-1)-1} date 
; FORMAT={-:-/ absolute / metric / decimal}
; #@! TF.CreationDate,2022-09-30T15:54:31+08:00
; #@! TF.GenerationSoftware,Kicad,Pcbnew,(6.0.7-1)-1
; #@! TF.FileFunction,Plated,1,2,PTH
FMAT,2
METRIC
; #@! TA.AperFunction,Plated,PTH,ViaDrill
T1C0.200
; #@! TA.AperFunction,Plated,PTH,ViaDrill
T2C0.350
; #@! TA.AperFunction,Plated,PTH,ComponentDrill
T3C0.350
; #@! TA.AperFunction,Plated,PTH,ViaDrill
T4C0.400
; #@! TA.AperFunction,Plated,PTH,ComponentDrill
T5C0.600
; #@! TA.AperFunction,Plated,PTH,ComponentDrill
T6C1.000
%
G90
G05
T1
X96.1Y-84.9
X96.2Y-89.4
X96.3Y-90.4
X96.6Y-95.3
X96.7Y-100.9
X97.2Y-97.6
X97.8Y-86.2
X97.8Y-90.7
X98.0Y-94.925
X98.25Y-87.05
X98.275Y-95.975
X98.8Y-89.8
X98.8Y-98.8
X98.813Y-90.468
X98.842Y-89.077
X98.9Y-101.0
X99.2Y-87.0
X99.25Y-87.8
X99.4Y-93.7
X99.5Y-102.1
X99.6Y-95.3
X99.634Y-91.034
X99.85Y-87.1
X100.2Y-84.5
X100.2Y-97.0
X100.6Y-93.4
X100.9Y-80.6
X100.9Y-81.6
X100.9Y-85.8
X101.0Y-78.4
X101.0Y-79.4
X101.2Y-102.3
X101.7Y-91.0
X101.75Y-68.6
X101.85Y-96.2
X102.1Y-81.6
X102.1Y-83.9
X102.2Y-78.5
X102.2Y-79.4
X102.2Y-80.5
X102.7Y-83.9
X102.9Y-63.8
X103.6Y-102.2
X104.0Y-100.5
X104.3Y-96.6
X104.4Y-63.55
X104.7Y-101.2
X104.95Y-99.15
X105.0Y-97.5
X106.2Y-68.0
X106.35Y-95.6
X106.45Y-98.75
X106.6Y-91.4
X106.8Y-71.0
X106.8Y-75.6
X107.0Y-79.2
X107.3Y-95.85
X107.4Y-76.4
X107.4Y-103.35
X107.8Y-93.3
X108.38Y-72.47
X108.38Y-73.17
X108.38Y-73.8
X108.38Y-74.53
X108.4Y-66.4
X108.4Y-68.6
X108.4Y-69.2
X108.42Y-71.22
X108.5Y-83.8
X108.7Y-90.0
X108.8Y-91.0
X108.85Y-95.3
X108.97Y-74.53
X109.0Y-83.5
X109.3Y-89.5
X109.67Y-74.52
X109.8Y-96.35
X109.9Y-93.3
X110.0Y-86.6
X110.0Y-89.6
X110.575Y-93.475
X110.775Y-100.4
T2
X101.25Y-69.975
X101.6Y-66.33
X104.2Y-85.3
X104.849Y-95.051
X104.9Y-92.0
X105.6Y-62.8
X105.6Y-87.6
X106.778Y-85.378
T3
X102.975Y-88.662
X102.975Y-89.938
X102.975Y-91.212
X104.25Y-88.662
X104.25Y-89.938
X104.25Y-91.212
X105.525Y-88.662
X105.525Y-89.938
X105.525Y-91.212
T4
X101.4Y-77.3
X101.7Y-73.2
X102.2Y-74.2
X102.6Y-77.3
X104.0Y-77.2
X108.8Y-77.4
T6
X93.24Y-91.66
X93.25Y-58.64
X93.25Y-61.17
X93.25Y-63.72
X93.25Y-66.25
X93.25Y-68.8
X93.25Y-71.34
X93.25Y-73.88
X93.25Y-76.42
X93.25Y-81.5
X93.25Y-84.04
X93.25Y-86.58
X93.25Y-89.12
X93.25Y-94.2
X93.25Y-96.74
X93.25Y-99.28
X93.25Y-101.82
X93.25Y-104.36
X93.25Y-106.9
X93.26Y-78.96
X94.95Y-58.64
X94.95Y-61.18
X94.95Y-63.72
X94.95Y-66.26
X94.95Y-68.8
X94.95Y-71.34
X94.95Y-73.88
X94.95Y-76.42
X94.95Y-78.96
X94.95Y-81.5
X94.95Y-84.04
X94.95Y-86.58
X94.95Y-89.12
X94.95Y-91.66
X94.95Y-94.2
X94.95Y-96.74
X94.95Y-99.28
X94.95Y-101.82
X94.95Y-104.36
X94.95Y-106.9
X101.1Y-106.9
X101.1Y-108.55
X103.64Y-106.9
X103.65Y-108.65
X106.18Y-106.9
X106.2Y-108.625
X112.27Y-58.7
X112.27Y-61.24
X112.27Y-63.78
X112.27Y-66.32
X112.27Y-68.86
X112.27Y-71.4
X112.27Y-73.94
X112.27Y-76.48
X112.27Y-79.02
X112.27Y-81.56
X112.27Y-84.1
X112.27Y-86.64
X112.27Y-89.18
X112.27Y-91.72
X112.27Y-94.26
X112.27Y-96.8
X112.27Y-99.34
X112.27Y-101.88
X112.27Y-104.42
X112.27Y-106.96
X113.97Y-58.7
X113.97Y-61.24
X113.97Y-63.78
X113.97Y-66.32
X113.97Y-68.86
X113.97Y-71.4
X113.97Y-73.94
X113.97Y-76.48
X113.97Y-79.02
X113.97Y-81.56
X113.97Y-84.1
X113.97Y-86.64
X113.97Y-89.18
X113.97Y-91.72
X113.97Y-94.26
X113.97Y-96.8
X113.97Y-99.34
X113.97Y-101.88
X113.97Y-104.42
X113.97Y-106.96
T5
G00X99.33Y-60.125
M15
G01X99.33Y-59.525
M16
G05
G00X99.33Y-64.555
M15
G01X99.33Y-63.455
M16
G05
G00X107.97Y-60.125
M15
G01X107.97Y-59.525
M16
G05
G00X107.97Y-64.555
M15
G01X107.97Y-63.455
M16
G05
T0
M30
